<svg width="178" height="36" viewBox="0 0 178 36" fill="none" xmlns="http://www.w3.org/2000/svg">
<path fill-rule="evenodd" clip-rule="evenodd" d="M30.9666 26.7385C30.2137 28.5643 27.1658 27.4408 28.1356 25.4338C28.9057 23.84 31.7816 24.7621 30.9666 26.7385ZM18.41 12.7588C14.4959 11.3407 11.8791 12.4868 10.6592 15.8282C9.78817 18.2141 8.46605 24.9753 12.815 23.8112C13.0531 23.3974 13.7311 19.8662 13.664 19.3118L12.0302 19.3108L12.6169 16.1856C13.3018 15.9553 18.292 16.0757 19.3598 16.1334C19.326 17.0765 17.9137 24.1681 17.5428 26.0071C17.386 26.7847 17.2142 26.7182 16.4926 26.989C15.9816 27.1808 15.4775 27.3289 14.9016 27.4417C10.615 28.2818 5.39658 27.7949 4.4404 22.6863C3.68645 18.6579 5.33095 13.7964 8.30009 10.9352C9.63112 9.65254 11.8423 8.69499 13.8074 8.41497C15.7212 8.14226 19.2527 8.36136 20.533 9.48341L18.41 12.7588ZM19.3546 27.6836L20.0428 23.9417C23.2349 23.5522 23.2532 20.4327 23.8507 17.3578L25.5002 8.5715L30.9686 8.56299C30.7057 10.2915 28.8726 20.0884 28.4944 21.3533C27.3144 25.3 24.1127 27.4846 19.3545 27.6836H19.3546ZM0 36L36.0015 35.9687L35.9787 0.000178417L0.00197631 0L0 36Z" fill="#EE3A43"/>
<path fill-rule="evenodd" clip-rule="evenodd" d="M20.5331 9.48344C19.2528 8.36138 15.7213 8.14225 13.8074 8.41499C11.8423 8.69498 9.63123 9.65258 8.30016 10.9352C5.33103 13.7965 3.68649 18.658 4.44047 22.6863C5.39669 27.7949 10.6151 28.2818 14.9017 27.4417C15.4776 27.3289 15.9817 27.1808 16.4927 26.989C17.2143 26.7182 17.3861 26.7847 17.5429 26.0072C17.9137 24.1682 19.326 17.0765 19.3599 16.1334C18.2921 16.0757 13.3019 15.9554 12.6169 16.1857L12.0303 19.3108L13.6641 19.3118C13.7311 19.8662 13.0532 23.3975 12.8151 23.8113C8.46613 24.9753 9.78824 18.2141 10.6593 15.8283C11.8792 12.4868 14.4959 11.3408 18.4101 12.7589L20.5331 9.48344Z" fill="#FEFEFE"/>
<path fill-rule="evenodd" clip-rule="evenodd" d="M19.3545 27.6836C24.1126 27.4846 27.3144 25.3 28.4944 21.3533C28.8725 20.0884 30.7057 10.2915 30.9686 8.56299L25.5002 8.5715L23.8507 17.3578C23.2532 20.4327 23.2348 23.5522 20.0427 23.9417L19.3545 27.6836H19.3545Z" fill="#FEFEFE"/>
<path fill-rule="evenodd" clip-rule="evenodd" d="M28.9283 26.9105C28.8857 26.8231 28.8518 27.0007 28.8299 26.652L28.9649 26.0154C29.0778 25.5158 28.9378 25.5653 29.3089 25.3239C29.3425 25.3139 31.0782 25.153 29.9809 26.358C30.0779 26.4875 30.2794 26.4305 30.0702 26.9097C29.416 26.7055 29.8808 26.5963 29.3307 26.2867C29.1443 26.8491 29.3019 26.734 28.9283 26.9105H28.9283ZM29.0186 25.0359C27.5936 25.6937 28.5093 27.8201 29.9723 27.2784C31.3443 26.7704 30.6288 24.2927 29.0186 25.0359Z" fill="#ED3C45"/>
<path fill-rule="evenodd" clip-rule="evenodd" d="M29.0183 25.0357C30.6285 24.2925 31.344 26.7702 29.9721 27.2782C28.509 27.8199 27.5934 25.6935 29.0183 25.0357ZM30.9664 26.7384C31.7814 24.7621 28.9055 23.8398 28.1354 25.4337C27.1656 27.4407 30.2135 28.5642 30.9664 26.7384Z" fill="#FDFDFB"/>
<path fill-rule="evenodd" clip-rule="evenodd" d="M28.9285 26.9105C29.3021 26.734 29.1445 26.8492 29.3309 26.2867C29.881 26.5964 29.4163 26.7055 30.0704 26.9097C30.2797 26.4305 30.0781 26.4875 29.9811 26.358C31.0784 25.153 29.3428 25.3139 29.3091 25.3239C28.938 25.5653 29.078 25.5158 28.9651 26.0154L28.8301 26.6521C28.852 27.0007 28.8859 26.8231 28.9285 26.9105H28.9285Z" fill="#FDE6E1"/>
<path fill-rule="evenodd" clip-rule="evenodd" d="M52.7273 7.27252C50.2456 10.1943 47.9443 16.7009 47.4875 21.6914C46.1367 36.4498 60.1886 30.7001 60.4254 30.3256C60.5612 30.1106 61.3023 26.936 61.4322 26.3835C62.0308 23.8358 62.9352 20.9189 63.3418 18.4295L56.714 18.4293C56.2018 18.847 56.1099 20.1252 55.9692 20.7583C58.1186 20.8603 57.9262 20.7527 56.8405 25.21C56.562 26.3532 56.2156 28.1392 55.8515 29.1352C51.7937 30.1956 52.1123 25.4486 52.5172 22.4147C52.9015 19.5353 53.7132 16.3001 54.5585 13.6715C55.6583 10.2512 57.8697 3.96591 62.5179 5.71318C64.2049 6.34732 63.7528 8.02791 63.3982 9.67244L65.3416 9.67224C65.6971 9.43705 65.5493 9.61158 65.7059 9.08453L66.8718 4.29825C64.0934 3.43507 62.1332 2.4896 58.5846 3.35573C55.6917 4.06183 54.0952 5.66213 52.7273 7.27255V7.27252ZM173.972 3.06658C170.25 3.36297 167.911 8.22593 169.066 11.5723C169.51 12.8602 170.298 13.6251 171.021 14.3135C173.199 16.3855 171.641 20.1508 169.505 20.1454C167.674 20.1408 168.06 18.5369 168.332 17.1076L166.716 17.0987L166.052 19.841L165.764 21.0291C165.827 21.0926 165.925 21.1616 166.052 21.2318C167.503 22.0344 172.797 22.9934 174.937 17.7057C177.381 11.6695 172.06 10.5039 172.146 7.70857C172.183 6.49467 172.992 5.05962 174.002 4.83405C175.902 4.40981 175.448 6.33538 175.272 7.53912L176.867 7.55384L177.73 3.92491C176.57 3.44687 175.426 2.95085 173.972 3.06661L173.972 3.06658ZM157.422 5.32748C157.49 6.50385 156.028 11.6474 155.667 13.1477C155.359 14.4268 155.045 15.7476 154.717 17.0194C153.904 20.1717 154.102 19.4405 152.699 19.8364L152.371 21.5068L156.898 21.4673L157.29 19.8128L156.239 19.5789C156.177 19.1189 158.025 11.301 158.328 10.6483L161.934 21.502L163.795 21.503C164.259 20.2891 164.662 18.1838 165.013 16.7846L166.052 12.628L167.398 7.24399C167.605 6.41173 167.642 5.50688 168.392 5.30222C169.14 5.09774 169.166 5.67646 169.537 3.4878L166.052 3.50674L164.956 3.51272L164.637 5.21793C166.159 5.30148 165.712 5.63364 165.367 6.99207C164.804 9.20719 164.119 12.5143 163.527 14.4311C163.186 13.8384 161.242 7.65334 160.774 6.16016C160.584 5.55276 160.205 3.81888 159.737 3.48992L156.946 3.48988C156.543 3.78729 156.384 4.7472 156.392 5.20749L157.422 5.32748ZM148.918 4.00087C146.647 8.40262 144.113 14.1573 141.87 18.2634C141.685 18.603 141.461 19.0294 141.259 19.2989C140.989 19.6619 140.643 19.7594 140.28 19.8842L139.954 21.5045L143.215 21.5052L143.62 19.7849L142.913 19.6334C143.115 18.8142 143.886 17.4415 144.306 16.62L147.376 16.6435C147.429 17.3097 147.406 18.0775 147.408 18.7553C147.411 19.7748 147.31 19.7498 146.28 19.7605L145.94 21.5053L151.324 21.4914L151.727 19.9492C151.468 19.6961 151.784 19.9784 151.455 19.7999C151.391 19.7655 151.337 19.7523 151.278 19.7129C151.079 19.5812 151.143 19.7039 151.032 19.4554C150.888 19.1301 150.886 16.7676 150.887 16.3347L150.761 3.48907C148.979 3.48918 149.242 3.37277 148.918 4.00094V4.00087ZM147.243 10.6799C147.396 11.2529 147.414 14.2728 147.318 14.9088L145.188 14.8819L147.243 10.6799H147.243ZM134.494 5.27224C134.587 6.07341 131.944 16.5723 131.297 18.8557C131.064 19.6767 130.788 19.6767 129.803 19.7458L129.434 21.4046L138.975 21.4411L139.876 17.6459L138.28 17.6351C138.079 18.2482 138.04 19.0269 137.661 19.6143C136.879 19.681 135.378 19.9326 134.682 19.5065C134.718 18.4375 135.155 17.0223 135.415 15.9915C135.581 15.3346 136.042 12.8598 136.392 12.7508L138.223 12.7872L138.027 13.9785C139.804 13.9908 139.447 14.2011 139.831 12.5445C140.016 11.7469 140.371 10.6887 140.443 9.89579C138.758 9.89643 139.047 9.73888 138.854 10.4265C138.589 11.3668 138.1 11.1426 136.652 11.1283C136.831 10.1439 137.144 9.04715 137.393 8.07484C138.157 5.09049 137.516 4.99451 140.071 5.16853L141.042 5.30144C141.101 5.89044 140.828 6.53564 140.737 7.09579L142.266 7.14164L143.098 3.46356L133.848 3.45921L133.435 5.1674L134.494 5.27218L134.494 5.27224ZM125.36 6.17773C125.454 7.04046 122.658 17.3988 122.22 19.0359C121.548 21.5464 120.438 26.4135 119.71 28.5813C119.323 29.7347 119.046 30.4526 117.716 30.5225C117.656 29.7219 117.99 28.9634 118.106 28.2017L115.867 28.2057L114.403 32.321C115.848 33.0741 117.968 33.1288 119.685 32.7374C124.614 31.6136 125.173 26.1213 126.44 21.3506C127.531 17.2444 128.993 10.8018 130.225 6.99004C130.662 5.63789 131.704 6.39929 132.148 5.86525C132.243 5.75106 132.686 3.74987 132.735 3.45843L124.48 3.46451L123.889 5.98505L125.36 6.17777V6.17773ZM113.935 3.48773C113.503 4.67728 107.83 15.825 106.64 18.3084C105.889 19.8736 105.795 19.4979 105.117 19.8862L104.732 21.3895L107.591 21.44C108.157 21.4408 108.109 21.24 108.235 20.6692C108.298 20.3835 108.369 20.0534 108.424 19.7408L107.679 19.6636L109.082 16.5569L112.19 16.5577L112.19 18.999C112.19 19.6519 112.315 19.4972 111.828 19.6676L111.071 19.8543L110.725 21.4404C117.692 21.4424 115.687 21.8495 116.575 19.9247C116.296 19.6315 116.064 19.835 115.88 19.4611C115.719 19.132 115.584 3.87003 115.584 3.46437L113.935 3.48773H113.935ZM112.117 10.6333C111.803 11.1033 110.111 14.4202 110.064 14.877L112.095 14.8767L112.172 14.4332L112.159 12.7822L112.117 10.6333ZM101.637 5.16013C102.863 5.20869 102.861 5.22903 102.568 6.35484L100.062 16.5384C99.2474 19.7942 99.6385 19.1982 98.2768 19.8306L97.9735 21.4376L103.552 21.4357L103.936 19.7282C103.437 19.7224 103.294 19.7714 102.892 19.5065C102.827 18.758 104.382 12.9497 104.674 11.7735C104.99 10.5032 105.327 9.17694 105.633 7.91154C106.184 5.63838 105.99 5.28201 107.58 5.16094L107.908 3.45727L102.039 3.44845L101.637 5.1601V5.16013ZM90.3517 5.28837C90.5193 6.20566 88.174 14.8846 87.645 16.9455C87.0091 19.4228 87.3176 19.37 86.1274 19.7169C86.0922 19.7271 86.054 19.7386 86.022 19.7489L85.3093 21.4403C91.7909 21.4403 90.9694 21.9893 91.4608 19.7786L90.5011 19.5947C90.5576 18.7852 91.3058 16.0166 91.569 14.9064C91.835 13.7846 91.6842 13.7431 92.1122 13.5108C92.2423 13.6636 92.1784 13.5401 92.2687 13.7679L93.0648 21.3605C93.774 21.5572 95.9462 21.4478 96.7918 21.4307L97.1229 19.8872C96.1401 19.0737 96.2197 18.6727 96.0169 16.5957C95.8921 15.3175 95.7611 14.0397 95.6329 12.75C96.8408 12.2274 97.734 11.1704 98.3558 9.88406C98.9128 8.73162 99.5448 6.63644 99.1443 5.24417C98.6948 3.6809 97.2369 3.35068 95.4106 3.39948C93.6007 3.44782 91.8065 3.4565 89.9554 3.45864C89.5202 3.74611 89.4226 4.67257 89.3238 5.14531L90.3517 5.28837ZM92.3591 11.7898L93.9765 5.16874C95.1229 5.17278 95.728 5.26241 95.8325 6.43298C95.9062 7.25861 95.6144 8.24423 95.3805 8.94372C94.9024 10.3737 94.1366 11.7749 92.3591 11.7898H92.3591ZM84.0402 4.88391C85.1337 7.50743 81.3997 21.5491 79.5654 19.8956C78.574 19.002 80.2421 12.6038 80.5586 11.3739C80.8577 10.2113 82.1458 4.56141 84.0401 4.88387L84.0402 4.88391ZM84.1191 3.04504C80.3418 3.0254 78.0732 7.63282 77.0766 11.0692C73.4623 23.532 80.6617 23.9002 84.2178 18.8441C86.1429 16.1068 87.7381 10.73 87.4738 7.24283C87.314 5.13428 86.4029 3.05692 84.246 3.04571L84.1191 3.04504ZM69.2601 5.31964C69.3594 6.09464 67.0057 15.0463 66.5243 17.0069C65.9525 19.3353 66.199 19.6898 64.5813 19.7309L64.2147 21.4397L74.1256 21.4364L75.1114 17.3504L73.5885 17.3497C72.4238 17.6638 74.6308 20.1583 69.5356 19.3559C69.4442 18.26 70.9208 13.002 71.2725 11.6151L72.7027 5.93748C72.9658 5.18469 73.3434 5.29073 74.168 5.11404L74.5239 3.45513L68.6081 3.5079L68.2322 5.13849L69.2601 5.31964Z" fill="#00A0E3"/>
</svg>
