<svg width="177" height="36" viewBox="0 0 177 36" fill="none" xmlns="http://www.w3.org/2000/svg">
<path fill-rule="evenodd" clip-rule="evenodd" d="M33.9191 24.2308C34.7813 24.4397 35.6303 25.4451 38.0822 25.4451L38.1521 25.7964C37.1014 25.792 36.6533 25.7112 35.7067 25.3921C35.2833 25.2492 34.1631 24.5731 33.9191 24.2308ZM33.9191 24.2308L33.7456 24.1441L33.9191 24.2308ZM33.7456 24.1441L33.5722 24.0574L33.7456 24.1441ZM33.5722 24.0574H33.4855L33.5577 23.9562L33.5722 24.0574ZM33.312 23.8839C33.3204 23.8756 33.3371 23.8972 33.3371 23.9091C33.3371 23.9139 33.3478 23.9197 33.3474 23.9194C33.3453 23.9173 33.1955 24.0004 33.312 23.8839ZM25.3328 23.6237H25.4195L25.3472 23.7249L25.3327 23.6237H25.3328ZM25.3328 23.6237L25.246 23.537L25.3328 23.6237ZM22.5574 23.8839C22.659 23.6158 22.6772 23.7106 22.975 23.521C23.165 23.4001 23.2507 23.3052 23.4247 23.1901C23.3035 23.7196 23.0381 23.7694 22.5574 23.8839ZM33.1385 22.583C34.2759 22.583 33.9951 22.8431 34.9599 22.8431V22.9299C34.2258 22.9299 33.8007 22.6697 33.1385 22.6697V22.5829V22.583ZM22.4707 22.8431L22.9923 22.4983C22.8914 22.8639 22.8425 22.8353 22.4707 22.8431ZM25.2461 23.537C24.6995 23.1754 24.2153 21.9727 24.8124 21.5422C24.8124 21.9786 24.7849 22.2743 24.8957 22.6731C24.9883 23.0065 25.1659 23.2062 25.246 23.5371L25.2461 23.537ZM30.9703 22.0626C30.9787 22.0542 30.9953 22.0759 30.9954 22.0877C30.9954 22.0926 31.0061 22.0984 31.0057 22.098C31.0037 22.096 30.8538 22.1791 30.9703 22.0626ZM10.4151 21.282C11.2501 21.5105 12.6111 23.0099 13.5374 22.583C13.5307 22.9 13.5426 23.001 13.2772 23.1901C13.0152 23.1192 10.5604 21.5035 10.4151 21.282ZM9.46105 21.282H9.54778L9.47547 21.3832L9.46101 21.282H9.46105ZM10.4151 21.282H10.3284L10.4007 21.1809L10.4151 21.282H10.4151ZM10.1549 21.1086C10.1633 21.1002 10.1799 21.1218 10.18 21.1337C10.18 21.1386 10.1907 21.1443 10.1903 21.144C10.1882 21.1419 10.0384 21.2251 10.1549 21.1086ZM9.46101 21.282C9.14896 21.2542 8.69262 21.1105 8.44256 20.9128C8.82476 20.5871 9.25324 20.968 9.46101 21.282ZM29.0622 20.5015C29.7591 20.6901 30.4752 22.2397 30.5366 22.9299C30.3172 22.6831 30.1157 22.0354 29.878 21.6804C29.6056 21.2737 29.323 20.9002 29.0622 20.5014V20.5015ZM29.0622 20.5015L28.9755 20.4147L29.0622 20.5015ZM28.9755 20.4147H28.8887L28.961 20.3136L28.9755 20.4147H28.9755ZM14.2312 19.2005V19.2872L14.13 19.2149L14.2312 19.2005V19.2005ZM14.318 19.1138L14.2312 19.2005L14.318 19.1138ZM14.4047 19.0271L14.318 19.1138L14.4047 19.0271ZM12.7568 18.9403V19.0271L12.6556 18.9548L12.7568 18.9403ZM12.8435 18.8536L12.7568 18.9403L12.8435 18.8536ZM12.9302 18.7669L12.8435 18.8536L12.9302 18.7669ZM13.017 18.6801L12.9302 18.7669L13.017 18.6801ZM13.1037 18.5934L13.017 18.6801L13.1037 18.5934ZM18.3943 18.1597V18.2465L18.2931 18.1742L18.3943 18.1597V18.1597ZM22.1237 18.073C22.6259 18.0836 22.8755 18.29 22.991 18.7669C22.8529 19.3371 22.5181 19.258 22.037 19.374C22.2938 19.0137 22.5829 19.2093 22.7308 18.6801C22.6099 18.2474 22.4012 18.3178 22.1238 18.073H22.1237ZM22.1237 18.073H22.037L22.1093 17.9718L22.1238 18.073H22.1237ZM20.0422 17.8995C21.4135 17.897 21.496 19.0091 20.5625 19.027C21.0181 18.1277 20.5442 18.3373 20.0422 17.8995ZM14.4046 19.027L15.7241 17.6577C15.7056 17.3206 15.6818 16.9037 15.7045 16.5974C15.7331 16.2094 15.8054 16.1334 15.7813 15.6445L15.7972 15.4398L15.936 15.5578C16.0051 15.9967 16.1105 16.3753 16.3121 16.7726C16.5163 17.1747 16.7553 17.4889 16.4213 17.9213C16.2461 18.148 14.7196 18.9408 14.4046 19.027V19.027ZM23.3379 16.5118C24.329 16.5979 24.434 17.8983 23.0777 17.8995C23.2484 17.7472 23.4546 17.5961 23.5981 17.3791C23.5991 16.8163 23.6251 16.947 23.3379 16.5118H23.3379ZM21.69 16.3383C22.5816 16.4158 22.4453 17.3716 21.7768 17.5526C22.0533 16.9552 21.9784 16.903 21.69 16.3383ZM22.991 16.1649V16.2516L22.8898 16.1793L22.991 16.1649V16.1649ZM22.9039 15.2109C23.1863 15.2531 23.2763 15.3318 23.4247 15.5578V15.8179C23.267 16.0562 23.2551 16.0934 22.991 16.1649C23.0839 15.7792 23.1942 15.5808 22.8176 15.2898L22.686 15.158C23.1098 14.9549 22.7584 15.0983 22.9039 15.2109ZM9.80792 15.1241C9.73546 15.2337 9.63286 15.3714 9.52788 15.4529C8.81116 16.0093 8.48954 14.854 9.37428 14.7772L9.80792 15.1241ZM9.80792 15.1241V15.0374L9.90911 15.1097L9.80792 15.1241ZM13.1037 18.5934C13.7277 17.6502 15.2145 17.2609 14.4816 15.3074C14.2129 14.5913 14.1445 14.7829 14.1445 13.9099L14.7521 15.2103C15.285 16.2682 15.2236 17.0908 14.2318 17.8133C13.9408 18.0254 13.4122 18.5098 13.1037 18.5933V18.5934ZM17.6137 13.9966C17.6221 13.9882 17.6388 14.0099 17.6388 14.0218C17.6388 14.0266 17.6495 14.0324 17.6491 14.032C17.6471 14.03 17.4972 14.1131 17.6137 13.9966ZM17.527 13.7364C17.5354 13.728 17.552 13.7497 17.5521 13.7615C17.5521 13.7664 17.5628 13.7722 17.5624 13.7718C17.5604 13.7698 17.4105 13.8529 17.527 13.7364ZM9.20083 13.6497V13.7364L9.09964 13.6641L9.20083 13.6497ZM17.4403 13.4762C17.5412 13.6111 17.5412 13.5148 17.4403 13.6497V13.4762ZM9.28756 13.4762L9.20083 13.6497L9.28756 13.4762ZM17.3535 13.216L17.4403 13.4762L17.3535 13.216ZM9.37432 13.3027L9.28759 13.4762L9.37432 13.3027ZM13.971 13.216V13.3894C13.8379 13.2115 13.8693 13.3848 13.971 13.216ZM9.46105 13.216L9.37432 13.3027L9.46105 13.216ZM17.2668 13.0425L17.3536 13.216L17.2668 13.0425ZM9.54782 13.0425L9.46109 13.216L9.54782 13.0425ZM13.9711 13.216C14.0304 12.9685 13.9579 13.0855 14.1445 12.9558C14.0853 13.2033 14.1577 13.0863 13.9711 13.216ZM17.1801 12.8691L17.2668 13.0425L17.1801 12.8691ZM9.63454 12.8691L9.54782 13.0425L9.63454 12.8691ZM14.2313 12.7824L14.1446 12.9558L14.2313 12.7824ZM24.3788 12.6956C24.752 12.7036 24.8685 12.7315 25.0727 13.0425C25.0021 13.8557 24.4369 13.5674 24.0542 13.8454C24.1292 14.2765 24.7533 14.3403 24.3188 14.8039L24.0319 15.0374C24.0489 15.0492 24.0736 15.049 24.0821 15.0739C24.1201 15.1847 25.009 15.1846 25.0727 15.7312C24.9516 16.24 24.7823 16.4617 24.2054 16.5118C24.437 16.3052 24.6344 16.1625 24.7332 15.8106C24.443 15.3115 23.9825 15.2114 23.4248 15.2109L24.0476 14.5321C23.9829 13.9526 23.7802 14.0536 23.4248 13.7364C23.9493 13.6101 24.4298 13.7537 24.7258 13.3028C24.6815 12.8771 24.6043 13.0333 24.3789 12.6957L24.3788 12.6956ZM18.3944 18.1597C18.5135 17.7197 22.2027 12.901 22.6442 12.6089C22.562 12.9127 18.7098 17.951 18.3944 18.1597ZM17.0067 12.6089C17.1933 12.7386 17.1209 12.6216 17.1802 12.8691C16.9935 12.7394 17.066 12.8564 17.0067 12.6089ZM14.318 12.5222L14.2313 12.7824L14.318 12.5222ZM9.63458 12.8691C9.69383 12.6216 9.62141 12.7386 9.80804 12.6089C9.74879 12.8564 9.82121 12.7394 9.63458 12.8691ZM9.80804 12.6089C9.86729 12.3614 9.79487 12.4784 9.98149 12.3487C9.92224 12.5962 9.99466 12.4792 9.80804 12.6089ZM15.0119 12.0885C15.2484 12.3565 15.4222 12.7828 15.652 13.0963C15.8911 13.4223 16.4219 13.655 16.2038 13.9743C15.8252 13.9066 15.05 12.5273 15.0119 12.0885ZM14.318 12.5222L14.3505 12.3487L14.4048 12.1049C14.4048 11.9738 14.3693 12.0018 14.4915 12.0018L14.5251 12.1753C14.4811 12.4924 14.5371 12.2831 14.4048 12.3575L14.318 12.5222ZM22.6442 12.6089C22.7165 12.3418 22.8421 12.2445 23.0778 12.0885C23.0056 12.3556 22.8799 12.453 22.6442 12.6089ZM23.1646 12.0018L23.0778 12.0885L23.1646 12.0018ZM14.9251 11.8283L15.0119 12.0885L14.9251 11.8283ZM23.2513 11.915L23.1646 12.0018L23.2513 11.915ZM23.338 11.8283L23.2513 11.915L23.338 11.8283ZM18.2209 11.7416V11.8283L18.1197 11.756L18.2209 11.7416ZM14.9251 11.8283C14.8242 11.6934 14.8242 11.7898 14.9251 11.6549V11.8283ZM14.7517 11.308C14.8576 11.4685 14.8357 11.0771 14.8091 11.4123C14.7956 11.5838 14.8184 11.4664 14.7517 11.5682V11.308ZM11.9763 11.4814C12.1555 11.5249 12.1194 11.5134 12.3003 11.591C12.3249 11.6016 12.3982 11.6327 12.4208 11.644C12.5986 11.7329 12.5018 11.6851 12.5834 11.7416C12.488 12.0884 12.1487 12.168 11.8029 12.1753L12.0856 11.9452L11.9763 11.4814L11.9763 11.4814ZM23.338 11.8283C23.4103 11.5613 23.5359 11.4639 23.7717 11.308C23.6994 11.575 23.5737 11.6724 23.338 11.8283ZM11.7161 11.3203L11.8586 11.3947C12.0037 11.3947 11.9763 11.3533 11.9763 11.4814L11.8896 11.4715L11.6294 11.4937L11.5281 11.3129L11.7161 11.3203H11.7161ZM23.8584 11.2212L23.7717 11.308L23.8584 11.2212ZM21.083 10.961C21.4492 10.968 21.506 10.9481 21.6034 11.3079H21.3432C21.4167 11.5081 21.3804 11.4065 21.5289 11.5558C22.1019 12.1318 21.9494 11.7926 22.2179 12.2545L22.0746 12.6419C21.649 12.7645 21.6362 12.8619 21.2713 12.6237L21.7713 12.4972L21.5791 12.1017L21.7768 12.0885C21.5539 11.8908 21.1937 11.8092 20.9095 11.7415C21.2068 11.5341 21.0626 11.7841 21.1474 11.5036L20.8592 11.2477C20.8748 11.2405 20.9596 11.2186 20.9772 11.2041C21.1268 11.0805 21.038 11.3717 21.0829 10.961L21.083 10.961ZM13.364 11.3079L13.1905 11.2212L13.364 11.3079ZM13.0171 10.961C13.2037 11.0907 13.1313 10.9737 13.1905 11.2212C13.0039 11.0915 13.0763 11.2085 13.0171 10.961ZM13.0171 10.961C12.9161 10.8261 12.9161 10.9225 13.0171 10.7875V10.961ZM9.98149 12.3487C10.1154 11.8595 10.5031 11.7354 10.5886 11.1345C10.6502 10.7012 11.0408 10.206 11.4559 10.0937C11.4559 10.4968 11.4563 10.5157 11.5427 10.8743C10.5567 11.3695 10.5264 11.991 9.98153 12.3487H9.98149ZM27.6746 10.1804V10.2671L27.5734 10.1949L27.6746 10.1804ZM27.7613 10.0937L27.6746 10.1804L27.7613 10.0937ZM27.848 10.007L27.7613 10.0937L27.848 10.007ZM20.0458 9.49733C20.2435 9.79305 20.1961 9.73974 20.5627 9.74677V10.2671C20.3281 10.2029 20.5104 10.2682 20.3145 10.1683L20.0423 10.007C20.2612 9.94532 20.1443 10.0419 20.1934 9.85578L19.7108 9.63624L20.0458 9.4973V9.49733ZM17.0067 12.6089C16.8907 12.5262 16.159 11.607 16.0202 11.4271C15.8495 11.2058 15.0405 10.5973 14.7517 10.5274V11.3079L14.5828 11.2138L14.592 11.6549L14.5921 11.9407L14.4136 11.9151L14.4136 11.4814L14.3283 11.1463C14.0207 11.2046 14.135 11.2289 13.8844 11.3946C13.587 11.3946 13.5565 11.4539 13.3641 11.3079C13.8149 11.3079 13.6225 11.3892 14.163 10.8926C14.1441 10.234 13.8853 10.093 13.6242 9.57332C14.8785 9.68502 16.8567 11.9895 17.0067 12.6089H17.0067ZM36.7813 9.48659H37.3884C37.3615 9.79336 37.4632 9.65591 37.215 9.8335V9.57328H36.7813V9.48655V9.48659ZM27.848 10.007C27.9646 9.57652 29.3073 8.41107 29.7561 8.1856C29.6293 8.64906 28.2448 9.89955 27.848 10.007ZM29.7561 8.1856V8.09887L29.8573 8.17114L29.7561 8.1856ZM36.6227 7.57104C36.6951 7.49627 36.8778 7.70443 36.7122 7.62904C36.7102 7.62814 36.4649 7.73414 36.6227 7.57104ZM33.7458 7.40501V7.49174L33.6446 7.41947L33.7458 7.40501ZM30.9704 7.31828V7.40501L30.8692 7.3327L30.9704 7.31824V7.31828ZM31.0571 7.23156L30.9704 7.31828L31.0571 7.23156ZM31.2305 7.14482L31.0571 7.23156L31.2305 7.14482ZM38.6026 8.01214C38.7642 7.69321 38.8347 7.72257 38.7191 7.37527C38.3829 7.26333 37.3608 7.57804 36.868 7.57846C37.2046 7.27924 38.9374 6.93202 39.4699 6.88461C39.4367 7.28112 38.9746 7.91142 38.6026 8.0121L38.6026 8.01214ZM31.3172 7.0581L31.2305 7.14482L31.3172 7.0581ZM23.8584 11.2212C24.2426 10.6404 28.3457 6.94487 28.8888 6.79791C28.5814 7.26251 28.0432 7.51402 27.6516 7.90244C27.3069 8.2443 26.8045 8.73911 26.426 9.0186C25.982 9.34644 24.0966 11.1567 23.8584 11.2212ZM39.123 6.53774V6.62446L39.0218 6.55219L39.123 6.53774ZM28.8888 6.79791C29.0532 6.54738 28.9806 6.6068 29.2357 6.53774C29.0712 6.78827 29.1439 6.72885 28.8888 6.79791ZM29.2357 6.53774C29.4002 6.28717 29.3275 6.34658 29.5826 6.27751C29.4181 6.52804 29.4908 6.46864 29.2357 6.53774ZM29.5826 6.27751C29.7326 6.04907 29.9356 5.9134 30.1897 5.84383C30.0398 6.07228 29.8367 6.20798 29.5826 6.27751ZM30.1897 5.84383C30.3194 5.65725 30.2024 5.72963 30.4499 5.67037C30.3202 5.857 30.4372 5.78458 30.1897 5.84383ZM31.3172 7.0581C31.5809 6.65655 33.0863 5.64857 33.5701 5.32128C34.172 4.91403 33.9859 5.44995 35.047 4.80338C35.4138 4.57986 35.8391 4.26053 36.2431 4.00473C37.187 3.40721 39.4081 2.73259 40.5653 2.34245C41.0303 2.18568 41.6975 1.96403 42.1586 1.85425C42.1581 2.45794 41.7659 3.00277 41.448 3.48542C40.6107 4.75679 37.8557 4.73271 36.6946 5.75715C37.3774 5.74268 40.5249 4.3373 41.4078 4.42645C41.6202 5.10088 39.8764 6.47063 39.1231 6.53774C39.6807 6.04575 41.0144 5.50079 41.0312 4.62961C40.5994 4.66807 39.4984 5.01209 39.0462 5.15979C37.8949 5.53574 36.5164 6.04394 35.4212 6.56525C34.9886 6.77118 34.1053 7.31789 33.7458 7.40501C34.2127 6.69387 37.024 5.2906 37.9421 4.92301C38.7266 4.60893 39.5736 4.45529 40.3562 3.95454C40.8169 3.65977 41.9925 2.76506 41.8415 2.17137C41.4793 2.05732 40.8273 2.43159 40.4375 2.56151C37.7294 3.46416 37.6823 3.35066 35.1166 4.95959C34.7792 5.17116 34.1813 5.41102 33.7746 5.61242C33.1823 5.90571 31.7618 6.95034 31.3173 7.05806L31.3172 7.0581ZM30.4499 5.67037C31.1363 4.62488 39.5407 -0.0514182 40.5405 0.263326C40.6987 0.738784 40.0266 1.90048 39.5567 2.02766C39.8154 1.63209 40.1534 1.12994 40.1638 0.639984C38.3657 0.641586 30.6588 5.61323 30.4499 5.67037ZM18.2209 11.7415C18.3084 11.5297 18.2795 11.6715 18.2209 11.3946L18.0927 10.7571C17.8317 10.724 17.948 10.8765 17.6136 10.707C17.4311 10.6146 17.4163 10.5163 17.1504 10.3836C17.0818 9.89287 16.8816 10.0996 16.6431 9.85007C16.4697 9.66868 16.3337 9.66024 16.0526 9.66001L16.3199 9.40866C15.9264 9.30672 15.8714 9.3131 15.4455 9.3131V9.22636C15.8928 9.22636 15.6305 9.23923 15.7057 9.05291C14.0336 8.65007 14.4555 8.95141 13.4507 9.22636C13.4516 8.72202 13.1579 6.87882 12.4669 7.02836C12.353 7.36976 12.4406 7.73261 12.3607 8.13639C12.277 8.55905 12.152 8.77221 12.063 9.13968C11.4965 8.76486 11.2924 8.45544 10.5886 8.09891C10.63 8.57601 11.0572 9.21539 11.2824 9.66005C10.9623 9.87184 10.4328 10.4662 10.1319 10.7645C9.47606 11.4148 10.1178 11.593 9.51268 12.487C9.2267 12.9095 8.88507 13.4943 8.65173 13.9678C8.35047 14.5792 7.82507 14.9103 7.81322 15.471C7.81881 15.4903 8.44795 16.7717 9.02745 16.5985C9.54285 16.2601 9.70626 15.3666 10.5019 15.2975C10.1246 16.0485 9.42904 15.9918 9.37436 16.5985C9.3914 16.6103 9.41587 16.6102 9.42439 16.6353C9.43299 16.6608 9.46453 16.6641 9.47692 16.6699C10.4212 17.1127 10.7435 15.9767 11.4194 15.5212C11.7885 15.2725 12.1124 15.1464 12.4973 14.8645C13.0078 14.4906 12.9521 14.1706 13.6242 14.17C13.6242 16.7729 12.5153 16.7938 11.8557 18.7329C11.7112 19.1577 11.4653 20.0584 11.4559 20.5014C9.05919 18.9338 9.13528 18.7745 7.9012 19.6353C7.53917 19.8878 7.16705 20.14 6.85918 20.4147C5.69979 19.878 4.68677 20.3283 2.95628 20.3279C1.90621 20.3277 1.97762 20.2253 1.18628 20.8129C0.73099 21.151 0.1647 21.3966 0 21.9832C0.455056 22.766 1.60514 23.0186 2.38014 22.5265C2.48469 22.4601 2.46116 22.4631 2.53007 22.402C2.31663 22.0379 2.18453 21.6989 2.17569 21.2819C2.87006 21.2953 2.60808 21.7266 3.14404 21.7592C3.88304 21.8042 4.6802 20.5274 6.51223 21.4554C6.49277 22.3753 5.52337 24.6917 5.82494 25.3512C6.01141 25.759 8.2895 26.8606 8.84653 27.1871L9.05805 26.8625C9.2462 26.4371 9.27278 25.9262 9.1517 25.4942C8.96863 24.8407 8.69101 24.5764 7.98664 24.5777L7.30486 25.1133C7.27168 24.2701 7.64157 22.7969 7.63969 21.8023L11.1623 23.7437C11.392 23.933 11.1748 23.9019 11.4615 24.0517C11.7781 24.2172 12.1789 24.0648 12.4999 24.2275C14.0581 25.0174 14.0842 26.3019 17.7012 26.3131C18.1734 26.3146 18.3805 26.2223 18.8269 26.2245C19.887 26.2296 21.0997 26.0386 22.1237 25.7919C22.1372 25.8073 22.1598 25.8095 22.165 25.8374C22.217 26.1195 23.1829 27.6401 23.9124 27.9061C24.3012 28.0478 26.391 28.0448 27.3573 28.3641C27.6092 29.0418 28.021 30.5706 28.8887 30.6488C28.8966 31.0219 30.115 33.4369 30.3631 33.5109C30.8292 33.5105 31.2735 33.3129 31.7139 33.2138C32.201 33.104 32.6892 33.1118 33.1385 32.9038C32.6611 31.9613 32.1841 31.2247 30.9926 31.365C30.7267 31.7295 30.9003 32.0861 30.4499 32.21C30.3334 32.0777 30.2862 31.9943 30.3082 31.8132C30.4472 30.6697 29.9716 31.0227 29.8651 30.411C30.5642 29.8582 30.8318 30.3158 31.4978 30.3883C32.7497 30.5245 32.989 28.6866 35.2224 32.4679C36.8141 35.1628 36.3003 35.7799 38.3458 35.8493C38.7663 35.8636 39.9547 36.0784 40.2802 35.9692C40.5882 35.051 39.2544 33.7561 38.4291 33.6844C37.6723 34.1851 38.2619 34.7101 37.4751 34.7252C37.4467 33.3855 37.0623 33.3735 36.3475 32.2967C35.1722 30.5261 35.2038 30.5273 34.5177 28.6625C34.2734 27.9983 33.9408 28.0631 33.3937 28.1269C32.894 28.1853 32.1502 28.1713 31.6984 28.2547C29.2159 28.7126 30.396 27.3794 30.8957 25.9776C31.1711 25.2052 31.3172 24.2339 31.3172 23.3634C33.2195 23.8163 34.2038 25.2179 36.0752 25.8041C37.4409 26.232 39.3457 26.2648 40.6152 25.4628C41.7549 24.7427 41.6924 25.0828 41.727 23.8838L41.5514 23.8838C41.5514 23.345 41.6821 23.3889 41.2912 23.1899C41.2908 22.7518 41.1211 22.2709 40.9443 21.889L40.8445 21.2863C39.7455 21.3763 39.323 22.2359 34.8731 22.2359C34.3699 22.7621 32.6937 22.0625 31.1437 22.0625C31.563 21.7954 32.284 21.837 32.7573 21.9233C33.8973 22.1312 35.1043 22.2166 36.2419 22.0436C36.7357 21.9685 37.3546 21.7254 37.822 21.7155V21.889C38.3112 21.8786 40.3119 21.3413 40.6618 21.0861L40.6541 20.7293C40.2671 20.6119 38.9055 21.0984 38.4469 21.213C37.7379 21.3902 36.8029 21.6324 36.0815 21.7097C35.4274 21.7797 34.7367 21.851 34.0914 21.8034C33.7885 21.781 33.7683 21.7156 33.4016 21.7126C32.8834 21.7084 32.5918 21.6278 32.0983 21.6277C29.9063 21.6274 31.1888 22.0769 29.4747 20.3489C28.9492 19.8191 28.3653 19.6498 27.7612 19.3737C28.0366 18.9874 28.4896 18.9141 28.8738 18.665C29.3707 18.343 29.384 17.86 29.8716 17.7548C30.3368 17.6543 30.8281 17.6211 31.2838 17.3456C31.7744 17.049 31.875 16.7406 32.068 16.2217C32.7266 15.897 33.6722 15.5064 34.1569 15.0149L34.1057 14.6277C34.4682 14.2676 34.8245 14.0355 34.8731 13.476H34.266C34.9016 12.911 36.5689 12.9607 36.6944 11.5679H36.0006C36.753 10.8967 37.9693 10.4605 37.9954 9.22617C39.5335 8.45348 39.6268 7.58159 39.9976 6.89187L39.8188 6.53625C40.3628 6.38804 40.8448 5.91047 41.276 5.56833C41.8631 5.10241 42.0717 4.70828 42.0717 3.93559L41.6508 3.8147C42.0738 3.36832 42.8227 2.24958 42.6218 1.65085C42.1439 1.49135 40.7161 1.98115 40.1636 2.11423C40.3244 1.5268 41.0256 0.912789 41.0086 0.141738C40.7101 -0.558571 36.2546 1.55436 35.8837 1.73723C32.5977 3.35742 31.1231 4.76163 28.4549 6.71095C27.429 7.46043 26.5447 8.43281 25.5404 9.17376C24.887 9.65582 24.3146 10.4054 23.598 10.8741C23.7208 10.3645 23.8071 10.026 23.6277 9.54338L23.2525 9.47471C23.2503 8.66094 23.6309 7.74047 23.1658 7.14327C23.1563 7.13111 23.1311 7.10864 23.123 7.0993C23.1148 7.08992 23.0924 7.07209 23.0776 7.05794C22.489 7.44738 22.2189 8.18239 21.6899 8.53235C21.6899 7.91694 21.5933 6.82031 20.8226 6.79772C20.4466 7.54005 19.7944 8.71859 19.6084 9.4864H19.2615L19.5209 9.69436C19.2277 10.1962 18.7879 11.5625 18.7411 12.0883L18.2207 11.7414L18.2209 11.7415Z" fill="#CC2128"/>
<path fill-rule="evenodd" clip-rule="evenodd" d="M97.696 18.4768C97.3331 18.3557 91.2344 18.3557 90.8715 18.4768C90.711 18.9579 90.8145 19.6327 90.8145 20.1544H92.2022L92.2015 26.4635C91.7524 26.8969 91.0702 27.1141 90.5322 26.6814C90.1268 26.3554 90.2941 25.1027 90.2941 24.5777V10.4405C90.6749 9.86506 91.4107 9.70103 91.961 10.0743C92.4866 10.4308 92.289 11.6545 92.289 12.2619C92.289 13.9387 92.289 15.6155 92.289 17.2923H97.753C97.753 15.9046 97.753 14.5169 97.753 13.1292C97.753 10.7156 98.4076 7.7498 94.7193 7.75C93.3021 7.75007 91.8848 7.75191 90.4676 7.75191C88.5418 7.75191 85.194 7.30119 84.8355 10.5327L84.8301 23.1033C84.8301 26.6251 84.1844 29.1051 89.3401 29.0878C90.4593 29.084 94.5843 29.1003 95.4642 28.8805C96.7148 28.5681 97.3958 28.1238 97.6339 26.8003C97.7741 26.0205 97.8849 19.0429 97.696 18.4768Z" fill="#CC2128"/>
<path fill-rule="evenodd" clip-rule="evenodd" d="M138.153 8.10115C137.942 8.50864 138.083 22.4212 138.083 25.0985C138.083 26.201 138.013 27.1405 138.673 27.9778C139.145 28.5774 140.276 28.9996 141.029 29.0043L144.414 29.0881C144.963 29.0881 145.513 29.0877 146.062 29.0881C146.693 29.0886 147.123 28.9957 147.71 29.0014C151.545 29.0388 150.832 25.5248 150.832 21.8027C150.832 17.2349 150.832 12.6671 150.832 8.09927C150.121 7.92785 146.253 7.92785 145.542 8.09927V25.4454C145.542 26.3517 145.615 26.9393 144.5 26.9249C143.468 26.9116 143.457 26.444 143.46 25.5322C143.469 22.7599 143.551 8.48667 143.4 8.07293C143.121 7.97115 138.501 7.90009 138.153 8.1011L138.153 8.10115Z" fill="#CC2128"/>
<path fill-rule="evenodd" clip-rule="evenodd" d="M161.87 26.3765L161.847 22.7561H156.297C156.297 23.6812 156.298 24.6064 156.297 25.5315C156.294 27.1661 157.034 28.2248 158.625 28.7542C159.886 29.1741 164.522 29.1794 165.212 29.0696C165.661 28.9983 166.038 29.0226 166.465 28.9353C168.519 28.5156 168.96 27.727 168.959 25.7917C168.959 24.5312 169.121 21.3495 168.839 20.3611C168.443 18.9703 167.169 18.2658 166.045 17.5176C165.078 16.874 163.558 16.0074 162.78 15.2322C162.286 14.7404 161.851 14.1407 161.844 13.3924C161.835 12.4404 161.847 11.4801 161.847 10.5271C162.245 9.92551 163.188 9.92657 163.582 10.5271C163.582 11.2357 163.477 13.8022 163.639 14.2862C164.166 14.4621 168.16 14.3432 169.046 14.3432C169.046 12.9904 169.299 9.83933 168.505 8.89939C167.245 7.40716 165.591 7.75166 163.669 7.75166C162.686 7.75166 161.703 7.75166 160.72 7.75166C159.648 7.75166 159.007 7.64941 158.088 8.15535C156.22 9.18412 156.297 10.762 156.297 12.3484C156.297 14.1734 156.105 16.0254 157.093 17.5366C158.257 19.318 163.042 21.272 163.465 23.1331C163.553 23.5201 163.514 25.5264 163.5 26.0562C163.485 26.5858 162.967 27.4891 161.87 26.3765L161.87 26.3765Z" fill="#CC2128"/>
<path fill-rule="evenodd" clip-rule="evenodd" d="M125.507 26.226V22.7568H119.869C119.869 24.4204 119.59 26.2168 120.561 27.6155C121.132 28.4372 122.402 28.8951 123.344 28.9959L124.725 29.0889C126.838 29.0786 130.624 29.4612 131.992 28.0275C132.629 27.3591 132.619 26.705 132.619 25.7923C132.617 20.1684 133.351 19.9782 129.687 17.5355C128.704 16.8799 127.239 16.0189 126.394 15.2775C125.932 14.8717 125.51 14.0218 125.503 13.393C125.494 12.4411 125.507 11.4806 125.507 10.5277C125.925 9.8957 126.855 9.9385 127.241 10.5277C127.241 11.2363 127.137 13.8028 127.298 14.2868C127.639 14.4005 132.308 14.4005 132.648 14.2868C132.803 13.8242 132.705 12.0114 132.705 11.3949C132.706 7.37267 130.341 7.75224 127.328 7.75224C126.345 7.75224 125.362 7.75224 124.379 7.75224C122.766 7.75224 121.257 7.72492 120.273 9.71688C119.835 10.6039 119.956 11.4136 119.956 12.4357C119.956 17.7715 120.165 17.4718 124.12 20.2402C124.654 20.6138 125.309 21.0795 125.83 21.4792C126.406 21.9212 126.95 22.4556 127.125 23.2204C127.191 23.5112 127.197 25.8575 127.153 26.2243C127.055 27.0398 125.77 27.1892 125.507 26.2259V26.226Z" fill="#CC2128"/>
<path fill-rule="evenodd" clip-rule="evenodd" d="M57.3067 20.878C57.1745 20.4817 57.1868 10.8515 57.2646 9.84829C59.0095 9.7496 58.9851 10.8007 58.9844 11.7415V19.0269C58.9844 19.8191 59.218 21.0709 57.3067 20.878ZM51.8501 8.09881C51.6407 8.55023 51.7857 26.4838 51.7857 28.654H57.2497V22.6696C59.6201 22.6696 63.2477 23.2777 64.156 20.9895C64.6303 19.7943 64.5029 12.7412 64.363 10.6126C64.1986 8.11179 61.6511 8.15834 60.4531 8.01768C59.8605 7.94807 52.1363 7.94447 51.8501 8.09877V8.09881Z" fill="#CC2128"/>
<path fill-rule="evenodd" clip-rule="evenodd" d="M108.768 15.2109L109.48 21.0033C109.523 21.2873 109.575 21.6231 109.617 21.9072C109.648 22.1134 109.718 22.7432 109.722 22.9299H107.987C108.011 22.6629 108.044 22.7144 108.068 22.4905L108.683 16.2532C108.699 15.8289 108.768 15.6227 108.768 15.2109V15.2109ZM102.003 28.6542H107.38C107.38 27.4237 107.727 26.2204 107.727 25.0115H109.982C109.981 25.7744 110.329 27.8679 110.329 28.6542H115.706L113.544 18.327C113.374 17.4586 113.146 16.6218 113.009 15.7401C112.883 14.9328 112.64 13.9741 112.463 13.1637C112.281 12.3312 112.027 11.4291 111.899 10.6053C111.803 9.98545 111.544 8.52737 111.283 8.01221L106.354 8.01323C106.11 8.41525 105.384 12.3861 105.233 13.1504C104.891 14.8799 104.499 16.5737 104.151 18.3127L102.003 28.6542L102.003 28.6542Z" fill="#CC2128"/>
<path fill-rule="evenodd" clip-rule="evenodd" d="M69.7163 8.09898C69.5069 8.5504 69.6519 26.4839 69.6519 28.6542H79.8861V27.2665H75.1159V19.1138H79.7127V17.6393H75.1159V9.57335C75.9139 9.57335 79.3377 9.68041 79.8292 9.51637C79.9667 9.10423 79.8861 8.54724 79.8861 8.09895C79.2161 7.93749 70.0553 7.91615 69.7163 8.09895L69.7163 8.09898Z" fill="#CC2128"/>
<path fill-rule="evenodd" clip-rule="evenodd" d="M171.735 25.879C171.735 25.481 172.037 24.6632 172.449 24.2521C174.076 22.6316 176.424 23.9872 176.424 25.879C176.424 26.4201 176.154 27.1821 175.749 27.5516C175.374 27.8927 174.578 28.2434 174.079 28.2255C173.168 28.1927 172.378 27.673 171.994 26.8342C171.934 26.7032 171.863 26.5171 171.839 26.3816C171.825 26.3011 171.735 25.9101 171.735 25.879V25.879ZM173.816 23.1036C173.135 23.2671 173.053 22.9543 171.972 24.0346C171.407 24.5991 171.245 25.4249 171.299 26.2273C171.394 27.6144 172.669 28.7808 174.512 28.6563C175.943 28.5596 177.176 26.9176 176.889 25.4946C176.682 24.4675 176.037 23.5673 175.022 23.1985L174.158 23.0091C173.798 23.0026 173.827 23.101 173.816 23.1036Z" fill="#C92128"/>
<path fill-rule="evenodd" clip-rule="evenodd" d="M173.571 25.4304L173.578 24.8068C173.953 24.6949 174.476 24.7515 174.748 24.9472L174.741 25.3835C174.423 25.4953 173.923 25.4577 173.571 25.4304H173.571ZM172.949 26.9197L172.981 27.2992L173.586 27.3374L173.649 26.0525C174.655 26.0738 174.551 27.4393 175.29 27.3533L175.67 27.321C175.699 26.9798 175.066 26.2588 174.849 25.9731C175.248 25.6927 175.655 25.3849 175.464 24.7514C175.244 24.0195 173.727 24.231 172.949 24.231V26.9197Z" fill="#CC2128"/>
<path fill-rule="evenodd" clip-rule="evenodd" d="M14.5921 11.6549L14.4136 11.4814L14.4136 11.9152L14.5921 11.9407L14.5921 11.6549Z" fill="#701316"/>
<path fill-rule="evenodd" clip-rule="evenodd" d="M14.3506 12.3488L14.4049 12.3576C14.5372 12.2832 14.4812 12.4925 14.5253 12.1754L14.4049 12.105L14.3506 12.3488Z" fill="#761417"/>
<path fill-rule="evenodd" clip-rule="evenodd" d="M11.6294 11.4937L11.8896 11.4715L11.8587 11.3947L11.7161 11.3203L11.6294 11.4937Z" fill="#6D1216"/>
<path fill-rule="evenodd" clip-rule="evenodd" d="M22.8176 15.2897L22.9039 15.2108C22.7585 15.0982 23.1098 14.9548 22.686 15.1579L22.8176 15.2897Z" fill="#85161B"/>
<path fill-rule="evenodd" clip-rule="evenodd" d="M15.7817 15.6447L15.9364 15.5579L15.7976 15.4399L15.7817 15.6447Z" fill="#661115"/>
</svg>
