<svg width="152" height="36" viewBox="0 0 152 36" fill="none" xmlns="http://www.w3.org/2000/svg">
<path fill-rule="evenodd" clip-rule="evenodd" d="M151.322 26.9455H124.376V22.2031H151.322V13.1495H124.376V9.05365H151.322V0.000901622H115.324V36H151.322V26.9455ZM47.1837 13.1495H65.3141V9.05365H47.423L47.1837 13.1495ZM74.3677 0.000901622V36H38.5847V0.000901622H74.3677ZM47.423 26.9455H65.3141V22.2031H47.423V26.9455ZM36.2135 9.05362H22.6336V35.783L13.58 35.783V9.05362H0V0.000868955H36.2135V9.05362ZM112.737 35.9991H76.955V3.26675e-05L112.738 0V35.9991L112.737 35.9991ZM85.7925 9.05362V26.9447L103.684 26.9446V9.05362H85.7925Z" fill="#BD2930"/>
</svg>
