<svg width="138" height="26" viewBox="0 0 138 26" fill="none" xmlns="http://www.w3.org/2000/svg">
<path fill-rule="evenodd" clip-rule="evenodd" d="M0.371094 0.000530369V19.8783H6.79145V9.29705C6.95462 9.34062 7.1864 9.6162 7.33142 9.7392L7.86485 10.1881C8.58214 10.7464 9.26167 11.4429 9.97977 12.002C10.7243 12.5817 11.3734 13.2574 12.1165 13.8319C12.6526 14.2466 13.1694 14.7825 13.7027 15.1924C13.8806 15.3291 14.0537 15.5085 14.2314 15.6459L15.1668 16.4483C15.2378 16.5115 15.2454 16.505 15.3155 16.5641L18.7474 19.5167C18.8385 19.5879 18.9289 19.6634 19.0156 19.7396C19.2648 19.9591 19.2613 19.8784 19.8965 19.8784C22.5276 19.8784 25.1587 19.8784 27.7898 19.8784L30.6352 14.9408C31.1314 14.0314 31.6776 13.1603 32.1824 12.2564C32.2777 12.0854 32.3542 11.9694 32.4467 11.8029C32.7855 11.1935 33.1653 10.6234 33.4798 10.0024L35.043 7.29634C35.2105 7.01892 36.0037 5.72463 36.0606 5.48022H36.1361C36.199 5.71558 37.0331 7.04754 37.1724 7.27764L40.5712 13.0975C40.6694 13.2608 40.7448 13.3817 40.8411 13.5455C41.5285 14.7158 42.2907 15.9677 42.9459 17.1458L43.4745 18.0528C43.6206 18.3155 44.4566 19.6394 44.5203 19.8783H56.5679V9.07027L60.7711 13.1405C60.8779 13.2298 60.9134 13.2466 61.0153 13.3497C61.2862 13.624 61.6194 13.9982 61.9041 14.2364L63.0218 15.3099C63.4114 15.6715 63.7684 16.0815 64.176 16.4225L64.3576 16.5807C64.4433 16.6638 64.4995 16.7235 64.5839 16.8079L66.5968 18.7617C66.6029 18.7667 66.6114 18.7739 66.6173 18.7789C66.9952 19.0976 67.285 19.5385 67.695 19.8168C67.8776 19.9407 68.2664 19.8783 68.5021 19.8783H73.7895V0.000530369H67.4824V11.1109C67.2548 10.9584 66.1823 9.84173 65.7986 9.47022L63.9909 7.68905C63.3429 7.14705 62.7244 6.4364 62.1108 5.82893L56.296 0.121336C56.2309 0.0536287 56.1558 0.0180293 56.0726 0.000488281H55.5104H50.1853V17.1952C49.999 16.9807 48.5363 14.4266 48.297 13.983L40.5011 0.545467C40.3876 0.352258 40.2764 0.188095 40.1771 0.000488281H32.0951C32.0356 0.223393 31.6696 0.754191 31.5449 0.961623C28.8857 5.38329 26.3327 9.85892 23.666 14.2782C23.5313 14.5015 23.1586 15.0446 23.1067 15.2679L19.679 12.2733C19.5844 12.1897 19.532 12.1566 19.4337 12.0652C19.3316 11.9703 19.2749 11.943 19.1696 11.8382C19.0703 11.7393 19.0203 11.7212 18.9237 11.6309C18.5805 11.3095 18.0182 10.8769 17.7149 10.573C17.6115 10.4694 17.5853 10.45 17.4738 10.3607C17.3721 10.2793 17.3211 10.2097 17.215 10.1284C17.0045 9.96697 15.3646 8.55964 15.2512 8.39005C15.5717 8.17521 15.8804 7.87593 16.1866 7.62557L17.1675 6.83092C17.3811 6.64034 17.5955 6.49321 17.8096 6.30185L22.3086 2.64091C22.6645 2.35732 25.4085 0.172923 25.5237 0.000572458H16.573H16.5448H16.5177C15.9679 0.00164992 16.0712 0.0506963 15.473 0.524735L12.742 2.70495C11.9625 3.29126 11.2174 3.93937 10.4548 4.53547C9.8419 5.0145 9.24344 5.50057 8.63015 5.9974L7.26609 7.08891C7.1068 7.21403 6.9591 7.3566 6.79145 7.44533V0.000618755H0.371094V0.000530369Z" fill="#1A1817"/>
<path fill-rule="evenodd" clip-rule="evenodd" d="M95.7321 19.8779H103.059C103.089 19.7491 103.471 19.1416 103.566 18.9869L105.166 16.356C105.353 16.0678 105.512 15.782 105.691 15.4823L111.035 6.6583C111.141 6.48199 111.478 5.86706 111.594 5.78203C111.631 5.92107 114.027 9.99752 114.377 10.6313C114.925 11.6252 115.628 12.7277 116.164 13.718C116.325 14.0164 116.497 14.3001 116.677 14.6033C117.35 15.7425 118.354 17.4452 118.971 18.5801L119.607 19.6829C119.66 19.7755 119.678 19.8779 119.789 19.8779H131.837V4.6297e-05H125.53V17.686C125.393 17.5288 125.037 16.8558 124.895 16.6209C124.331 15.6939 123.553 14.2587 123.002 13.3003C121.957 11.4853 120.901 9.53852 119.849 7.76317C119.624 7.38421 119.44 7.03063 119.215 6.65874L117.955 4.44322C117.321 3.37115 116.69 2.16582 116.062 1.12176C115.946 0.928339 115.858 0.754954 115.746 0.569028C115.681 0.461239 115.474 0.118132 115.446 0H107.704C107.666 0.143345 107.095 1.03264 106.974 1.23494L96.4744 18.6177C96.3534 18.8401 96.2311 19.0148 96.1026 19.2282C96.0189 19.367 95.7657 19.7513 95.7319 19.8778L95.7321 19.8779Z" fill="#1A1817"/>
<path fill-rule="evenodd" clip-rule="evenodd" d="M75.6021 5.89582C75.6021 7.61742 75.7524 8.46982 76.6096 9.91383C76.7093 10.082 76.787 10.1852 76.9022 10.339C77.2121 10.7529 77.5667 11.0908 77.9761 11.4185C78.7958 12.0744 80.024 12.5388 81.0514 12.6872C81.2714 12.719 81.4742 12.7693 81.6811 12.775C83.1402 12.8151 85.2536 12.7738 86.7431 12.7738C87.3684 12.7738 90.5322 12.725 91.0011 12.8213C92.1789 13.0632 92.0164 14.4824 90.4823 14.4745C90.091 14.4725 89.8275 14.435 89.4625 14.4364L84.0618 14.4365C83.3402 14.4365 82.725 14.3988 81.9846 14.3988L76.0916 14.3998C75.8753 14.3983 75.6776 14.2967 75.6776 14.4743V19.8783H91.5773C92.0342 19.8783 92.5792 19.7786 92.9468 19.6993C93.8391 19.5067 94.4194 19.1914 95.1355 18.7149C95.4531 18.5036 95.7185 18.2476 95.9866 17.9794C96.5868 17.3789 96.9364 16.9642 97.2476 16.1045C97.6181 15.081 97.7333 14.2779 97.7333 13.0382C97.7333 12.288 97.7131 11.8572 97.4059 11.2496C97.3178 11.0755 97.2695 10.9331 97.18 10.7576C97.1285 10.6566 97.1009 10.621 97.0556 10.5421L96.6536 9.88616C96.09 9.07372 95.3087 8.3323 94.4856 7.78516C93.8637 7.37194 93.0539 7.237 92.318 7.11985C91.8992 7.05309 91.4398 7.06719 90.9731 7.06728C90.4804 7.06749 90.0921 7.02952 89.5757 7.02952C88.6318 7.02952 87.6866 7.02465 86.7427 7.03004C86.469 7.03159 86.3654 6.98974 86.1021 6.9909C85.5353 6.99314 82.7663 7.02038 82.5278 6.97724C81.6597 6.82067 81.5433 5.95103 82.2402 5.50901C82.4816 5.35584 82.766 5.32804 83.1554 5.3289C83.8855 5.33054 84.6158 5.3289 85.3459 5.3289C86.0843 5.3289 86.7346 5.36675 87.4986 5.36675H97.4313L97.469 0.000488281H81.3426C80.9303 0.000488281 80.4321 0.0854362 80.0809 0.174089C79.6473 0.28343 79.3644 0.396087 78.9902 0.556499C78.3569 0.827759 77.7625 1.32817 77.3103 1.78536L76.6745 2.58518C76.0503 3.52584 75.6021 4.62438 75.6021 5.89578L75.6021 5.89582Z" fill="#1A1817"/>
<path fill-rule="evenodd" clip-rule="evenodd" d="M29.9424 19.878H42.5187C42.4828 19.7237 41.8654 18.7202 41.7376 18.5057L36.5585 9.70555C36.4653 9.55152 36.2463 9.11286 36.1361 9.03223C36.0259 9.11308 34.6631 11.5721 34.5805 11.7082L33.4292 13.7305C33.2865 13.9699 33.1635 14.1813 33.0277 14.4246L32.069 16.1107C32.0025 16.2298 31.9448 16.3317 31.8758 16.4464L30.7094 18.4915C30.5918 18.7021 29.988 19.6822 29.9424 19.878H29.9424Z" fill="#E62F4B"/>
<path fill-rule="evenodd" clip-rule="evenodd" d="M105.173 19.878H117.787L117.016 18.5335C116.943 18.4095 116.891 18.3262 116.817 18.2034L114.623 14.4665C114.349 14.0101 114.091 13.5674 113.82 13.1157L112.224 10.4043C112.127 10.2295 111.477 9.17876 111.443 9.03223C111.285 9.07425 111.181 9.35594 111.005 9.65271L107.905 15.0914C107.582 15.7294 106.771 17.06 106.356 17.8117C105.989 18.4766 105.538 19.189 105.173 19.878Z" fill="#E62F4B"/>
<path fill-rule="evenodd" clip-rule="evenodd" d="M44.1426 21.1632V25.7358H57.0211C57.1081 25.7358 57.1343 25.7095 57.1343 25.6224C57.1343 25.2722 57.1746 24.8615 57.0966 24.5265H47.8815V23.9974H56.379C56.466 23.9974 56.4924 23.9712 56.4924 23.8841V22.7882H47.8815V22.2969H57.1343V21.1632C57.1343 21.0761 57.1081 21.0498 57.0211 21.0498H44.2559C44.1689 21.0498 44.1426 21.0761 44.1426 21.1632Z" fill="#1A1817"/>
<path fill-rule="evenodd" clip-rule="evenodd" d="M22.4269 23.4304V25.7356H26.2791V24.3752C27.5129 24.3752 33.6503 24.4385 34.4913 24.3164C34.9552 24.2491 35.135 24.2097 35.4991 24.0777C36.9311 23.5591 37.2748 22.065 35.5112 21.3727C34.9101 21.1366 34.1231 21.0874 33.3037 21.0874H22.5025C22.3277 21.0874 22.3885 21.389 22.3891 21.5787L22.427 23.4304L22.4269 23.4304Z" fill="#1A1817"/>
<path fill-rule="evenodd" clip-rule="evenodd" d="M0.786578 22.4857C0.786578 22.8064 0.970694 23.0928 1.16977 23.3116C1.45331 23.6234 1.78319 23.7526 2.25503 23.8505C2.68683 23.9402 8.1766 23.8839 9.2841 23.8839C9.57833 23.8839 10.4171 23.8386 10.4171 24.2241C10.4171 24.5482 9.66845 24.5265 9.47287 24.5264H1.27751C0.633191 24.5253 0.748782 24.3218 0.748782 25.6223C0.748782 25.7094 0.775158 25.7356 0.86213 25.7356H11.3613C15.0063 25.7356 14.7461 23.0132 11.9561 22.6462C11.6035 22.5999 5.98855 22.6367 5.01642 22.6368C4.6069 22.6368 4.35723 22.7043 4.18557 22.4478C4.29909 22.2781 4.33637 22.3143 4.58341 22.2791C4.91152 22.2324 11.4937 22.2568 12.4187 22.259C12.8299 22.2598 13.1483 22.2211 13.5894 22.2211V21.0874H3.16587C2.33398 21.0874 1.52545 21.1989 1.0443 21.7989C0.927293 21.9449 0.786578 22.2384 0.786578 22.4857Z" fill="#1A1817"/>
<path fill-rule="evenodd" clip-rule="evenodd" d="M67.1426 25.7356H79.3412V24.5264H69.0687C68.7587 24.5264 68.6249 24.4533 68.4787 24.2475C68.1451 23.7779 68.1474 22.3345 68.9176 22.3345H79.3412V21.0874H67.0293C65.9537 21.0874 65.1229 21.5564 64.7513 22.4359C64.5527 22.9058 64.5549 23.4839 64.6793 23.9679C64.9753 25.1192 65.9715 25.7356 67.1426 25.7356Z" fill="#1A1817"/>
<path fill-rule="evenodd" clip-rule="evenodd" d="M95.6943 25.7356H100.302C100.667 25.7362 100.709 25.7882 100.934 25.6125L104.947 22.6368L108.681 25.514C108.868 25.6642 108.893 25.7398 109.213 25.7374L113.671 25.7356C113.551 25.5551 109.341 22.5273 108.578 21.9512C108.443 21.8492 108.329 21.7583 108.188 21.6618C108.074 21.5842 107.434 21.0874 107.364 21.0874H102.379C102.301 21.0874 101.636 21.5694 101.538 21.6437C101.256 21.855 100.972 22.0196 100.69 22.2317C99.7537 22.9355 98.3057 23.8318 97.3455 24.5535C97.0692 24.7611 95.7982 25.5805 95.6943 25.7356Z" fill="#1A1817"/>
<path fill-rule="evenodd" clip-rule="evenodd" d="M131.233 22.75C131.233 24.1099 131.887 25.1369 132.983 25.6852C133.34 25.864 133.723 25.9681 134.11 26H134.625C135.339 25.941 136.033 25.6379 136.567 25.1025C137.043 24.6258 137.502 23.8786 137.502 23.1279V23.0344C137.501 22.4153 137.486 22.0784 137.188 21.4772C136.961 21.0189 136.589 20.5803 136.181 20.2934C135.419 19.7576 134.517 19.6071 133.591 19.8187C132.354 20.1014 131.233 21.3727 131.233 22.75Z" fill="#1A1817"/>
<path fill-rule="evenodd" clip-rule="evenodd" d="M118.43 21.125V25.7355H130.477V24.4507H121.98V21.1251C121.98 21.038 121.953 21.0117 121.866 21.0117H118.543C118.456 21.0117 118.43 21.038 118.43 21.1251V21.125Z" fill="#1A1817"/>
<path fill-rule="evenodd" clip-rule="evenodd" d="M133.945 20.3877C132.703 20.6053 131.642 21.775 131.885 23.271C132.089 24.5206 133.268 25.6038 134.781 25.3565C136.017 25.1544 137.097 23.9857 136.863 22.4834C136.667 21.2237 135.463 20.1215 133.945 20.3877H133.945Z" fill="#FEFEFE"/>
<path fill-rule="evenodd" clip-rule="evenodd" d="M87.4609 21.1632V25.6224C87.4609 25.7095 87.4872 25.7358 87.5743 25.7358H91.011V21.0498H87.5743C87.4872 21.0498 87.4609 21.0761 87.4609 21.1632Z" fill="#1A1817"/>
<path fill-rule="evenodd" clip-rule="evenodd" d="M26.2627 23.2935L32.1704 23.2945C33.0275 23.2945 32.9612 22.3937 32.3951 22.2949C32.084 22.2406 26.8035 22.2776 26.2633 22.2819L26.2627 23.2935V23.2935Z" fill="#FEFEFE"/>
</svg>
