<svg width="162" height="28" viewBox="0 0 162 28" fill="none" xmlns="http://www.w3.org/2000/svg">
<path fill-rule="evenodd" clip-rule="evenodd" d="M136.058 4.33666V24.1973C136.058 24.7221 136.084 25.0842 136.118 25.5851C136.164 26.2813 136.904 27.0497 137.506 27.0915C138.005 27.1261 138.373 27.1503 138.895 27.1503H149.028C149.504 27.1503 150.144 26.4308 150.37 25.9442C150.6 25.448 150.476 24.1617 150.476 23.4446C150.476 22.5203 150.534 21.8042 150.534 20.8968V6.88438C150.534 6.02615 150.538 3.00823 150.387 2.2831C150.217 1.46951 149.103 0.92041 148.796 0.92041H137.737C137.311 0.92041 136.566 1.49612 136.288 2.01868C136.015 2.52893 136.166 2.46511 136.113 3.11765C136.081 3.5082 136.058 3.86175 136.058 4.33666ZM0.912735 14.1222C0.912735 14.8171 0.912735 15.5119 0.912735 16.2067C0.912735 16.9683 0.853177 17.5927 0.85477 18.2912C0.858282 19.8355 0.830656 20.9347 0.913025 22.46C1.0207 24.4539 0.49318 25.9873 1.77169 26.8704C2.59089 27.4363 3.35186 27.2082 4.61853 27.2082C16.2075 27.2082 27.9007 27.1584 39.4761 27.2084C39.996 27.2106 39.9954 27.2492 40.3656 27.0556C40.7947 26.8312 41.2982 26.4693 41.4318 25.9794C41.6136 25.3123 41.5607 22.7397 41.5605 21.8812C41.5603 20.9928 41.6207 20.8823 41.6186 20.0864L41.5521 3.18709C41.5241 2.93767 41.5013 2.48038 41.453 2.24395C41.3732 1.8538 41.2917 1.77071 41.0316 1.56513C40.7878 1.37241 40.7772 1.2266 40.4433 1.11121C39.8219 0.896511 38.0962 0.97834 37.3915 0.97834C34.5744 0.97834 31.7511 0.959469 28.935 0.975653C28.2976 0.979309 27.8686 1.33233 27.5641 1.68925C27.1715 2.14939 27.1967 2.6454 27.2014 3.46895C27.2038 3.88876 27.1397 4.04742 27.1414 4.45119L27.1427 16.1489C27.1427 16.965 27.25 20.6884 27.0239 21.2993C26.899 21.6364 26.4988 21.9339 26.1047 21.9435C24.3497 21.9862 22.0325 21.9392 20.2523 21.9392L17.1242 21.9405C16.9075 21.9414 16.3026 21.907 16.0968 21.8678C15.3942 21.7342 15.3876 21.1291 15.39 20.49C15.3915 20.1138 15.3279 19.9311 15.3302 19.5076L15.3306 16.2647C15.3306 15.5188 15.2727 14.9247 15.2727 14.2378C15.2727 12.9188 15.4436 12.9039 14.8602 12.1608C14.377 11.5453 13.8734 11.4807 13.0742 11.4569C11.4656 11.4089 9.76927 11.4588 8.15061 11.4588C6.51004 11.4588 4.86944 11.4592 3.22887 11.4588C2.70287 11.4586 2.52662 11.397 2.14635 11.5922C1.86839 11.735 1.58247 11.8885 1.39163 12.1114C0.873234 12.7167 0.912735 13.058 0.912735 14.1223V14.1222ZM45.4979 5.321V25.4712C45.4979 26.0664 46.2215 26.8779 46.6651 27.0254C47.3969 27.2685 74.4468 27.1504 76.8812 27.1504C77.8444 27.1504 78.6053 27.2083 79.5447 27.2083H83.7137C84.4633 27.2083 85.1548 27.2132 85.7504 26.4656C85.8708 26.3144 86.2035 25.7552 86.2035 25.5291V13.4275C86.2035 11.8029 86.1456 10.3085 86.1456 8.73732C86.1456 7.17394 86.1456 5.61057 86.1456 4.0472C86.1456 2.67184 86.3184 2.0352 85.3443 1.31647C85.1839 1.19808 84.7625 0.920438 84.5243 0.920438H77.576C76.3077 0.920438 75.2235 0.984709 73.9852 0.977576C73.3358 0.973847 72.9133 1.05564 72.5364 1.32378C71.5345 2.0365 71.7857 3.13593 71.7857 4.22092C71.7857 4.83852 71.7857 5.45616 71.7857 6.0738C71.7857 6.75024 71.7263 7.23822 71.7277 7.86867L71.7278 17.0174C71.7278 18.2781 71.6637 19.3986 71.6703 20.6077C71.6776 21.9658 71.2512 21.9391 69.2959 21.9391C67.7814 21.9391 62.0603 22.0189 60.8555 21.8678C60.458 21.8179 60.0903 21.5789 59.9885 21.1714C59.9187 20.8916 59.9735 6.91507 59.9735 5.49474C59.9735 5.04061 60.0131 4.36758 59.9651 3.93981C59.8627 3.02825 60.0677 2.08302 59.321 1.45712C59.1613 1.32323 58.4714 0.92041 58.2364 0.92041H47.2928C46.6824 0.92041 45.8185 1.60522 45.6227 2.31924C45.5472 2.59462 45.4978 4.82842 45.4978 5.32104L45.4979 5.321ZM90.1409 2.59961V23.9078C90.1409 25.5127 90.0731 26.1072 90.9094 26.7872C91.0473 26.8993 91.5552 27.2083 91.7622 27.2083L103.081 27.1204C103.847 26.9838 104.559 26.1364 104.562 25.4164C104.566 24.3704 104.473 19.2392 104.641 18.663C104.829 18.0193 105.413 18.5518 105.752 18.7773C106.012 18.9504 106.249 19.1265 106.483 19.3201L107.197 19.88C109.228 21.4078 111.581 23.3926 113.683 25.0324C113.937 25.2309 114.144 25.3988 114.389 25.6004C114.646 25.8121 114.884 25.9664 115.142 26.1794C115.406 26.3979 116.406 27.1503 116.776 27.1503H132.294C132.607 27.1503 132.876 27.1068 133.053 26.9824C133.43 26.7171 133.652 25.7453 132.956 25.2145C132.844 25.129 132.838 25.111 132.743 25.0226L129.175 22.1053C128.864 21.8573 128.595 21.6365 128.274 21.3853L119.298 14.156C118.52 13.5275 118.778 13.352 119.39 12.8565L125.23 8.15828C125.537 7.9183 125.802 7.68297 126.124 7.43054L130.602 3.80262C131.243 3.24389 132.68 2.40525 131.926 1.40469C131.835 1.28492 131.581 0.978269 131.426 0.978269H117.703C116.655 0.978269 116.225 1.07657 115.631 1.57049C115.503 1.67683 115.392 1.75304 115.27 1.8462L111.141 5.12911C110.879 5.34127 110.649 5.5022 110.393 5.71289L106.685 8.66277C106.354 8.90785 105.361 9.77952 105.08 9.77952C104.574 9.77952 104.598 9.23748 104.562 8.79218C104.506 8.11118 104.555 3.87102 104.561 2.77093C104.564 2.27622 104.372 1.96589 104.137 1.68928C103.479 0.913637 103.004 0.97834 101.837 0.97834H92.2833C91.3703 0.97834 90.8306 1.209 90.432 1.9064C90.3511 2.04797 90.1409 2.41217 90.1409 2.59965V2.59961Z" fill="#007AC3"/>
<path fill-rule="evenodd" clip-rule="evenodd" d="M157.945 8.04265C156.015 8.04265 154.529 6.36142 154.529 5.03172C154.529 3.4913 154.885 2.95125 155.904 2.06456C156.712 1.36144 158.426 1.22266 159.509 1.78805C160.563 2.33792 161.472 3.62367 161.355 4.84739C161.176 6.72352 159.74 8.04265 157.945 8.04265H157.945ZM153.892 4.39479C153.892 5.39694 153.962 6.35328 154.717 7.15984C154.813 7.26241 154.852 7.31043 154.934 7.40532C156.611 9.33163 160.217 9.1662 161.595 6.48112C162.371 4.96745 161.998 2.98945 160.768 1.86069C159.197 0.417665 156.842 0.341594 155.151 1.83303C154.595 2.32366 153.892 3.37048 153.892 4.39482V4.39479Z" fill="#007AC3"/>
<path fill-rule="evenodd" clip-rule="evenodd" d="M158.582 4.39485H157.134L157.192 3.2368C157.57 3.32489 158.575 3.23466 158.796 3.37051C159.281 3.66935 158.85 4.39485 158.582 4.39485ZM156.15 6.59516C156.15 6.79477 156.193 6.81935 156.208 7.00048C156.408 7.04715 157.134 7.19912 157.134 6.88467V5.2634C158.755 5.2634 158.79 5.10007 158.812 6.13303C158.836 7.22428 158.945 7.05839 159.682 7.05839C159.838 7.05839 159.842 7.03072 159.971 7.00048C159.966 6.76634 159.809 6.3991 159.798 5.7841C159.784 4.96186 159.426 5.14851 159.392 4.74225C159.99 4.58276 160.224 3.13223 159.452 2.65616C159.004 2.38005 156.827 2.48404 156.15 2.48404V6.59516Z" fill="#007AC3"/>
</svg>
