<svg width="114" height="36" viewBox="0 0 114 36" fill="none" xmlns="http://www.w3.org/2000/svg">
<path fill-rule="evenodd" clip-rule="evenodd" d="M6.71542 19.181C6.71744 18.8004 6.90706 18.2361 7.11356 17.9705C7.31783 17.7076 7.7385 17.4473 8.20497 17.4459C8.91926 17.4449 9.4923 17.4695 9.78422 18.517C9.98786 19.2477 9.93589 23.3652 9.93565 24.3834C9.93558 24.6805 10.0091 24.7018 10.0082 25.0644C10.0076 25.3103 10.0061 25.5562 10.0061 25.8022C10.0062 27.2308 10.1665 28.9379 9.67544 29.971C9.33268 30.6923 8.62226 31.1635 7.83026 30.8531C7.47686 30.7146 7.20978 30.4536 7.01211 30.1679C6.80271 29.8652 6.71632 29.4595 6.71542 29.0077V19.181ZM101.902 13.079C101.86 14.9669 101.892 17.1089 101.892 19.0233C101.893 24.4258 101.845 30.1815 101.897 35.5794L108.537 35.5772L108.544 22.9645C108.543 21.8635 109.292 20.7738 110.241 20.2866C111.364 19.7098 112.45 19.6535 113.959 19.654C114.018 18.7466 114.009 14.0448 113.959 12.7867C113.181 12.6676 112.825 12.6102 112.051 12.8776C111.496 13.0692 110.976 13.3658 110.573 13.6825C109.893 14.2179 109.159 15.0115 108.654 15.724C108.569 15.8425 108.509 15.9701 108.393 16.0222L108.442 13.0825C106.614 13.0214 104.158 13.0704 102.169 13.0739L101.902 13.079H101.902ZM90.3649 12.675C87.9784 12.6729 85.323 13.765 84.1199 15.3637C83.9848 15.5432 83.8701 15.7298 83.7207 15.9563C83.467 16.341 83.2111 16.9047 83.0779 17.3593C82.8861 18.0141 82.7884 18.3005 82.7899 19.0759C82.7913 19.7588 82.7912 20.4423 82.79 21.1253L82.8502 21.9651C82.8975 23.069 82.7969 24.7545 82.8408 25.9073L82.8885 27.3787C82.8886 29.3111 82.7623 30.3597 83.6217 32.2196C84.814 34.7998 86.2913 35.3913 88.9426 35.7971C89.207 35.8375 89.4792 35.8706 89.7148 35.9028C90.9017 36.0648 93.0629 36.0366 94.1849 35.7244C95.7349 35.2931 96.8718 34.6964 98.03 33.4767C98.2922 33.2006 98.6559 32.7031 98.8579 32.2699C99.3625 31.1879 99.3635 30.0623 99.4774 28.8005C99.5283 28.2369 99.6723 27.581 99.6705 26.9795L97.9234 26.975C97.3793 26.9368 97.7261 26.9052 96.9915 26.9173C95.6261 26.9399 94.0565 26.8781 92.7213 26.9275C92.71 27.0537 92.7695 27.6883 92.7957 27.8659C92.823 28.0517 92.8806 28.6184 92.8812 28.7975C92.8827 29.5535 93.0773 30.0593 92.6851 30.7339C92.4306 31.1717 91.9801 31.5253 91.4017 31.6933C90.1901 32.0451 89.3306 30.4395 89.3301 29.3755L89.3325 25.0173C90.998 24.9642 93.2775 25.0056 94.9207 25.0057L99.5153 25.0028C99.5756 23.1594 99.5219 21.1632 99.533 19.2858C99.5414 17.8581 98.8072 16.1715 98.0003 15.3191C97.6211 14.9184 97.6859 14.883 97.0466 14.3954C96.0006 13.5976 94.9397 13.207 93.6428 12.9242C92.5963 12.6959 91.4346 12.6759 90.3649 12.675H90.3649ZM89.4416 18.7606C89.442 17.8644 90.2134 16.9353 91.1856 17.0763C92.0647 17.2039 92.8216 17.8798 92.8226 18.8131L92.8122 20.8233C92.4362 20.8971 91.3832 20.8433 90.9344 20.8433C89.4291 20.8432 89.4428 21.0036 89.4423 20.4947L89.4416 18.7606V18.7606ZM54.0761 13.1292C54.0023 16.6907 54.0691 21.323 54.067 25.014C54.065 28.4257 54.007 32.2535 54.0716 35.5759L60.6486 35.5799C60.7098 34.0374 60.6635 30.6999 60.6612 29.0077L60.6603 21.0202C60.66 19.9471 60.7192 18.4898 62.0456 18.3501C63.3174 18.2162 63.9424 19.1608 63.9424 20.3896C63.9423 21.5767 63.9023 23.4088 63.9428 24.541L64.0025 25.3814C64.059 26.9921 63.9341 29.1939 63.9991 30.7944L64.0573 31.5298C64.1035 32.712 64.034 34.3497 64.0688 35.7077L70.5085 35.7033C70.6217 34.1803 70.54 30.7512 70.5393 28.7975L70.5394 20.81C70.539 20.1884 70.6359 19.6479 70.8464 19.1812C71.0398 18.7526 71.4132 18.3669 71.8916 18.3096C73.1992 18.153 73.7584 19.108 73.7585 20.3371L73.7586 23.3324C73.7586 23.6242 73.8232 23.7796 73.8205 24.1193L73.8199 26.8006C73.8199 28.0089 73.8255 29.2185 73.8195 30.4265L73.8792 35.5793L80.5202 35.5795C80.5861 31.8307 80.5315 27.6418 80.5279 23.8579L80.5288 17.3943C80.5286 15.6138 79.4905 13.8543 78.0155 13.223C76.2523 12.4682 73.9253 12.6828 72.326 13.6961C70.912 14.592 71.0669 14.7805 70.3298 15.4519C70.1405 15.2977 69.9516 14.8484 69.5674 14.4381C68.9461 13.7748 68.3154 13.3461 67.4541 13.0011C66.6288 12.6705 66.1205 12.6751 65.308 12.6749C64.4358 12.6746 62.401 13.6964 61.7043 14.3697L60.8868 15.2266C60.7883 15.3172 60.8798 15.2408 60.7881 15.3114C60.7756 15.0261 60.7965 14.7286 60.7808 14.4514L60.7114 13.1334L54.0761 13.1292V13.1292ZM45.7381 0L45.7365 35.7675L52.243 35.7782L52.2531 0.0134522L45.7381 0L45.7381 0ZM37.1064 0.00467285L37.1043 35.7558L43.5556 35.7512L43.5557 0.00272583L37.1064 0.00470825V0.00467285ZM18.4673 12.8325C18.4725 13.6259 18.4048 30.1551 18.4719 30.79C18.5033 31.0874 18.5608 31.4478 18.6276 31.7222C18.9536 33.0605 19.6057 34.4222 20.8371 35.1048C23.0916 36.3546 25.5859 35.6812 27.4773 34.2248L28.6624 33.2534L28.6797 35.4365L35.321 35.4333L35.3262 12.9545L28.5656 12.9465C28.4762 13.4403 28.543 14.7133 28.5429 15.2923L28.5428 27.326C28.5429 28.9837 28.8278 30.0434 26.7814 30.3769C26.0162 30.5016 25.6197 29.9172 25.4224 29.3991C24.9699 28.2109 25.1206 23.9932 25.1205 22.4389L25.1221 18.8107C25.1202 18.5927 25.0737 18.4746 25.0569 18.2896C25.005 17.7205 25.0588 13.776 25.0519 12.8488C24.855 12.7836 18.9068 12.7682 18.4673 12.8324V12.8325ZM16.5232 19.6013C16.5223 18.174 16.7594 17.0988 16.1469 15.5331C15.6337 14.2213 14.8833 13.409 13.5758 12.8917C11.979 12.2599 9.62919 12.4965 8.1365 13.5946C7.48108 14.0768 7.12099 14.5742 6.65937 15.1198L6.64633 5.93934L0.0100098 5.92822L0 35.4335L6.64312 35.4333L6.64957 33.2667C6.87351 33.3843 6.87431 33.4898 7.0014 33.6457L8.16953 34.7207C8.80466 35.1673 9.39598 35.476 10.2222 35.6795C11.2008 35.9206 13.1311 35.867 14.0861 35.2886C14.6855 34.9255 14.8581 34.7997 15.3276 34.2927C15.8789 33.6973 16.4273 32.3524 16.4532 31.6383C16.5161 29.9044 16.4303 27.4054 16.4493 25.5359C16.4524 25.227 16.5216 25.2156 16.5256 24.9125L16.5232 19.6014L16.5232 19.6013Z" fill="#00509F"/>
</svg>
