<svg width="122" height="20" viewBox="0 0 122 20" fill="none" xmlns="http://www.w3.org/2000/svg">
<path fill-rule="evenodd" clip-rule="evenodd" d="M46.1388 14.638H40.4496C40.2431 14.638 40.0624 14.5897 39.9037 14.5262C39.5935 14.4021 39.3824 14.1539 39.2771 13.8372C39.0015 13.0077 39.3115 11.9715 39.7508 11.472C40.1622 11.0042 40.8508 10.8223 41.5019 10.8223H48.9012C48.9012 11.0153 48.8373 11.3718 48.8074 11.5508C48.7666 11.7952 48.7338 12.007 48.6848 12.2505C48.5804 12.7683 48.4655 13.3147 48.1593 13.7643C48.0845 13.8742 48.0388 13.8953 47.9579 13.9906C47.8629 14.1026 47.8772 14.0943 47.7558 14.1831C47.308 14.5109 46.7143 14.6381 46.1388 14.6381V14.638ZM32.7214 5.36179C37.3145 5.36179 41.9075 5.36179 46.5005 5.36179C47.2997 5.36179 48.0397 5.32704 48.5729 5.59144C48.8345 5.72112 49.0434 5.85909 49.1866 6.12902C49.595 6.89935 49.383 7.30865 49.3287 7.96048C45.9415 7.96048 42.5543 7.96048 39.167 7.96048C38.0168 7.96048 36.9138 7.93097 35.8968 8.07746C34.8085 8.23423 34.2023 8.39806 33.2335 8.8016C32.3694 9.16153 32.0553 9.46339 31.425 9.95315C30.7706 10.4615 30.1906 11.4456 29.8834 12.2269C29.293 13.7282 29.0542 16.1086 29.9896 17.6667C30.2533 18.1059 30.5612 18.3998 30.922 18.7077C31.3833 19.1013 32.2253 19.4331 32.8268 19.5984C33.9855 19.9169 35.9277 19.9999 37.1939 19.9999H49.9864C50.9917 19.9999 52.509 19.8318 53.4138 19.6124C54.7612 19.2858 55.9181 18.7172 56.9011 17.7389C57.0841 17.5568 57.4433 17.0822 57.5728 16.8647C58.3629 15.5364 58.3875 14.7549 58.6306 13.3175L59.0245 10.6195C59.1922 9.42334 59.7208 6.2781 59.7206 5.16445C59.7203 4.06622 59.4431 2.86685 58.7817 1.99175C57.5282 0.333392 55.2202 0 52.8474 0H33.5764C33.4326 0 33.4634 0.278493 33.4178 0.597903L32.7213 5.36182L32.7214 5.36179Z" fill="#03A7E0"/>
<path fill-rule="evenodd" clip-rule="evenodd" d="M89.6465 19.9999H98.9861C99.1194 19.9999 99.1107 19.7366 99.1322 19.5869C99.1592 19.398 99.1748 19.2497 99.202 19.0646C99.2545 18.7069 99.3034 18.4201 99.3532 18.0646L100.236 12.0065C100.379 12.1026 101.206 13.0086 101.412 13.2314L104.47 16.4881C104.572 16.589 104.605 16.6545 104.699 16.7522L105.16 17.2455C105.251 17.3357 105.316 17.4017 105.407 17.4915L107.544 19.7616C107.609 19.8353 107.692 19.9999 107.799 19.9999H118.224C118.472 19.9999 117.926 19.5674 117.769 19.37C117.672 19.2488 117.551 19.1551 117.443 19.0381C117.373 18.9629 117.365 18.9316 117.296 18.8564C117.007 18.5443 116.596 18.182 116.345 17.8667C116.28 17.786 116.272 17.7665 116.194 17.6885L115.569 17.0311C115.446 16.9088 115.359 16.8324 115.251 16.6914C115.01 16.3796 114.534 15.9762 114.288 15.681C114.018 15.3585 113.571 14.9449 113.334 14.6613L112.395 13.6596C112.27 13.5356 112.208 13.4379 112.083 13.3139L110.816 11.9825C110.746 11.9095 110.744 11.8913 110.684 11.8188L108.612 9.61486C108.505 9.48724 108.381 9.40881 108.293 9.27622L109.503 8.41408C110.186 7.95856 110.845 7.44957 111.516 6.97369C111.655 6.87447 111.776 6.79374 111.919 6.6866L113.127 5.82253C113.671 5.43905 114.203 5.02374 114.758 4.65793C115.248 4.33554 115.675 3.9806 116.159 3.65813L118 2.34201C118.144 2.24417 118.256 2.15628 118.403 2.05646L121.129 0.109843C121.221 0.0310923 121.18 0.102468 121.217 0H111.088H111.055H111.023H110.992C110.375 0.000378608 110.473 0.0195245 109.632 0.648852L106.925 2.5788C106.171 3.07597 105.475 3.66179 104.721 4.15774C104.619 4.22513 104.568 4.2707 104.472 4.3359L102.491 5.74313C102.397 5.80847 102.335 5.86129 102.247 5.92614L100.992 6.80916C100.998 6.52777 101.807 1.14632 101.928 0.343399C101.942 0.24826 102.033 0 101.88 0H92.5404C92.3864 0 92.3974 0.421085 92.3817 0.531963L89.7356 18.8391C89.7084 19.0248 89.6723 19.2505 89.6368 19.464C89.6246 19.5378 89.6022 19.7057 89.5884 19.7813C89.5624 19.9236 89.5255 19.9999 89.6465 19.9999V19.9999Z" fill="#03A7E0"/>
<path fill-rule="evenodd" clip-rule="evenodd" d="M61.1348 14.1118C61.1348 15.645 61.3249 17.0025 62.4486 18.1265C62.8986 18.5766 63.3795 18.8641 63.9411 19.1337C64.8377 19.5642 66.3206 19.8755 67.3176 19.9009C67.7878 19.913 68.2532 19.9999 68.8958 19.9999H86.391C86.5366 19.9999 86.5136 19.6905 86.5535 19.4059C86.6497 18.7208 86.7777 18.0449 86.8542 17.3711L87.2461 14.6381H74.0589C73.661 14.6381 73.1916 14.5349 72.918 14.3977C71.0036 13.4376 71.5448 9.84956 72.0977 8.23558C72.1662 8.03543 72.2429 7.894 72.3113 7.7256C72.5608 7.11134 73.0164 6.48358 73.5223 6.07514C73.8016 5.84971 74.0647 5.67826 74.4408 5.54642C75.2044 5.27877 76.2003 5.36182 77.1173 5.36182C80.9429 5.36182 84.7687 5.36182 88.5944 5.36182C88.6399 5.16627 88.6653 4.91895 88.6948 4.70574C88.7258 4.48231 88.758 4.23735 88.7898 4.01127L89.342 0.252148C89.3637 0.117526 89.4186 0 89.2849 0H72.9407C70.8509 0 69.0893 0.0669055 67.1652 0.703129C66.9346 0.779392 66.8079 0.842074 66.6032 0.930506C66.4992 0.975425 66.4136 1.01074 66.3255 1.04742C66.1953 1.10153 66.17 1.13203 66.0457 1.19526C64.7204 1.86975 63.7714 3.01374 63.1185 4.31983C63.0647 4.42752 63.0437 4.50565 62.9875 4.61637C62.8087 4.96831 62.6553 5.38724 62.5197 5.76036C61.8601 7.5757 61.6113 9.17621 61.3459 11.0665C61.2145 12.0028 61.1348 13.0767 61.1348 14.1118L61.1348 14.1118Z" fill="#03A7E0"/>
<path fill-rule="evenodd" clip-rule="evenodd" d="M11.5429 14.6381H0.756378L0 19.9999H17.2321C17.8995 19.9999 18.5059 19.9507 19.1091 19.9037C19.694 19.8582 20.3254 19.7784 20.8526 19.674C22.2455 19.3982 23.6046 18.9247 24.6695 18.0643C25.951 17.0287 26.633 15.4567 26.9011 13.8492C27.0893 12.7205 27.2329 11.541 27.4077 10.4086C27.6629 8.75507 27.9039 6.84291 28.1735 5.2206L28.6707 1.77062C28.7364 1.29995 28.9066 0.409221 28.9066 0H18.7449C18.6049 0 18.6213 0.247254 18.5861 0.49911C18.393 1.88422 18.148 3.32709 17.9826 4.698L17.6366 7.08221C17.5261 7.85106 17.0365 11.3205 16.9103 11.8162C16.5168 13.3632 15.4227 14.029 14.016 14.3817C13.3446 14.55 12.3921 14.6381 11.5429 14.6381H11.5429Z" fill="#03A7E0"/>
</svg>
