<svg width="96" height="36" viewBox="0 0 96 36" fill="none" xmlns="http://www.w3.org/2000/svg">
<path fill-rule="evenodd" clip-rule="evenodd" d="M75.3782 27.2813C76.44 27.2316 77.155 28.1637 77.0354 29.1821L73.652 29.1711C73.7755 28.1351 74.3777 27.328 75.3782 27.2813ZM3.96474 13.3148C3.74902 11.733 4.23776 10.5373 4.96313 9.58326C5.61978 8.71966 6.63093 8.08308 8.05217 7.86662C10.8597 7.43907 13.107 9.43318 13.4626 11.8895C13.8727 14.7229 11.9457 17.006 9.43194 17.368C6.51607 17.788 4.29363 15.726 3.96477 13.3148H3.96474ZM21.4531 20.9844C21.5747 18.1486 21.4143 15.1917 21.4732 12.3591C21.5028 10.9281 21.7452 9.89007 22.515 9.08411C23.2255 8.34034 24.4156 7.8347 25.6486 7.87262C25.5896 8.0434 25.1174 8.84263 24.8653 9.50063C24.6375 10.0951 24.4839 10.7261 24.3813 11.4358C24.1625 12.9484 24.3958 14.4534 24.8754 15.7552C27.1695 21.9829 35.836 23.6052 40.1801 17.8966C40.7381 17.1634 41.1313 16.3821 41.45 15.5053C41.5715 15.1711 41.6204 14.8449 41.7449 14.5665C41.9392 16.2533 42.1688 17.2347 43.0326 18.425C45.012 21.1522 49.1489 22.3755 52.1609 20.6825C53.0385 20.1893 53.3301 19.7496 53.6413 19.557L53.6691 20.9867L57.7899 20.9851C57.7948 18.191 57.7911 15.413 57.7899 12.6358C57.7894 11.3707 57.8612 10.1783 58.5114 9.18717C59.8193 7.19363 62.7353 7.16839 64.0453 9.10165C64.699 10.0665 64.7637 11.303 64.7628 12.6358C64.7612 14.8332 64.8516 19.0474 64.754 20.9785L68.9305 20.986C68.9924 20.2583 68.8497 15.098 69.0162 14.8421C69.5896 16.7077 70.1577 18.0865 71.8382 19.4271C75.097 22.0268 80.1691 21.9822 83.0185 19.6561C83.6752 19.1199 84.2117 18.5653 84.7686 17.7339C85.0883 17.2565 85.8167 15.819 85.8481 15.0331L81.8441 15.0416C81.584 15.5824 81.5525 15.7773 81.1484 16.2642C80.1449 17.4732 78.6704 18.1575 76.9308 17.9246C75.8119 17.7748 74.9274 17.2404 74.307 16.6118C73.8251 16.1234 72.9888 14.8912 72.9665 13.9509L86.3157 13.9443L86.3231 20.9801L90.4442 20.9865C90.5571 20.2565 90.4585 13.5435 90.4935 12.0103C90.5267 10.5561 90.968 9.56382 91.782 8.84326C92.7149 8.0175 93.7107 7.90459 95.2817 7.85199L95.2954 3.89845C93.9115 3.95449 92.9627 3.94288 91.7172 4.285C88.5867 5.14499 86.6906 7.21868 86.338 10.7446C85.7122 8.44676 84.9451 7.25168 83.4353 5.89308C79.5744 2.41897 71.9426 3.09916 69.4424 9.12653C69.2332 9.63053 69.1445 10.166 68.9634 10.6312C68.687 8.96128 68.5975 8.19386 67.749 6.91734C65.7162 3.85934 61.6793 2.74582 58.5488 4.93368C58.2663 5.13111 58.1265 5.34236 57.7984 5.46767L57.7901 0.057443L53.6704 0.0306602C53.5668 2.84891 53.6626 5.85571 53.6626 8.69365C53.6626 11.0865 54.0253 14.6953 52.5575 16.2329C51.8323 16.9926 51.0307 17.5143 49.5111 17.477C48.0801 17.4421 47.2033 16.9097 46.6005 16.0334C45.9327 15.0625 45.9486 13.737 45.9491 12.3592C45.9497 10.9183 45.933 9.46763 45.9496 8.02852C46.5973 7.84286 51.2502 7.99398 52.3293 7.97977L52.3474 4.11624L45.9656 4.09854L45.9478 0.0319814L41.7653 0.0331092L41.7517 10.6239C40.7098 7.3964 38.9048 5.10834 35.5339 4.13563C33.7955 3.63392 31.7183 3.72166 30.0805 4.33504C29.0016 4.73922 27.9768 5.34572 27.122 6.15215C26.9283 6.33495 26.4598 6.88185 26.2954 6.95136L26.2879 3.91502C23.0241 3.79379 19.7746 4.83948 18.258 7.52316C17.3626 9.10778 17.517 10.071 17.291 10.5189C17.0737 9.7612 16.9591 9.22616 16.5789 8.49881C16.2472 7.86418 15.8993 7.31338 15.5143 6.86751C13.6063 4.65799 10.8545 3.46424 7.71244 4.03588C5.3785 4.46049 4.52587 5.71339 4.0444 5.90191L4.04987 0.0118527L0.0365675 0C-0.0392418 0.916366 0.0261205 10.0167 0.0274403 11.1854C0.0294751 13.01 0.0901602 14.5609 0.712033 16.0727C3.53666 22.9394 12.8765 23.1196 16.3868 17.0671C16.7872 16.3766 17.1992 15.132 17.2262 15.0913C17.3066 15.1507 17.3308 14.9102 17.3189 15.6771L17.3132 20.9635L21.4532 20.9844L21.4531 20.9844ZM28.3779 13.3833C27.923 10.3981 29.9245 8.26959 32.403 7.87237C35.2341 7.41861 37.4705 9.40994 37.8654 11.8369C38.3385 14.744 36.2764 16.9761 33.8985 17.3591C31.0423 17.8194 28.7469 15.8052 28.3779 13.3833ZM73.1849 10.6642C73.3422 9.10941 75.3669 7.28537 77.5923 7.29378C78.7405 7.29804 79.73 7.70613 80.458 8.32129C80.9819 8.76413 81.8966 9.70629 81.9913 10.6634L73.1849 10.6642L73.1849 10.6642ZM21.4548 27.5496C20.8362 26.3647 19.4304 26.266 18.2483 26.5372C17.7841 26.6437 17.5079 26.8219 17.1534 26.9347C17.1771 27.1933 17.2702 27.524 17.4222 27.7354C18.1384 27.5449 18.4831 27.157 19.5411 27.3395C20.2727 27.4658 20.5856 28.1048 20.5596 28.9131C18.6576 29.0072 16.5544 29.3431 16.6838 31.5124C16.79 33.2928 19.1172 33.7796 20.4251 32.5183C20.6428 32.3084 20.4592 32.4237 20.6969 32.3181L20.7854 33.0625L21.8258 33.0799L21.7785 30.2025C21.7787 29.2894 21.8357 28.2791 21.4548 27.5495L21.4548 27.5496ZM18.194 32.0582C17.4825 31.4068 17.6957 29.5759 20.6031 29.7673C20.6031 30.8181 20.7202 31.3293 20.1004 31.911C19.6009 32.3797 18.681 32.5041 18.1941 32.0582H18.194ZM22.7913 26.5774L22.7881 27.4449L23.7607 27.454C24.0396 29.4673 23.147 32.1953 24.6352 33.0105C25.0752 33.2515 26.0657 33.3286 26.5524 33.0382L26.5339 32.1939C25.9958 32.1574 25.5185 32.3436 25.2017 31.9666C24.9397 31.6548 24.9431 31.0974 24.9425 30.6176C24.9414 29.8341 24.8531 28.136 24.9716 27.4592L26.6234 27.4509L26.6232 26.562L24.9405 26.5689L24.9458 24.9388L23.8031 25.2366L23.7744 26.5727L22.7913 26.5775V26.5774ZM31.0062 28.9378L32.3883 32.3889C32.6209 32.9536 32.4978 33.1163 32.2054 33.5759C31.5156 34.6599 31.0935 34.6381 30.4505 35.0439L30.7101 36C31.5703 35.9999 32.5436 34.9912 32.8995 34.4716C33.722 33.2711 36.1382 26.9046 36.1326 26.5774L34.9199 26.5728L33.1909 31.5813L31.3691 26.581L30.1107 26.5724C30.2144 27.1567 30.7701 28.3328 31.0062 28.9378L31.0062 28.9378ZM39.0365 27.3833C40.3919 26.8874 41.2922 28.0838 41.4721 29.2529C41.6842 30.631 41.075 31.9349 40.0872 32.2604C37.5244 33.1046 36.5525 28.292 39.0365 27.3833V27.3833ZM39.2719 26.4387C35.0851 26.9122 35.5031 33.6265 39.9032 33.1933C43.9457 32.7953 43.5946 25.9498 39.2719 26.4387ZM43.8831 26.5735C43.7752 27.3142 43.8595 28.7666 43.8593 29.5801C43.8587 31.1073 43.8546 33.3591 46.3349 33.2056C47.1467 33.1553 48.0364 32.5603 48.2295 32.0398L48.3342 33.0657L49.3449 33.0763L49.3199 26.5899L48.1426 26.5783C48.1509 27.7946 48.1493 29.0007 48.1461 30.2028C48.1434 31.2226 47.719 32.1858 46.5391 32.227C44.116 32.3118 45.4132 28.1261 44.9884 26.5661L43.8831 26.5735V26.5735ZM51.088 26.5907L51.1319 33.0676L52.3208 33.0774C52.598 31.2763 51.8258 28.9698 53.0021 27.9501C53.5941 27.437 53.8809 27.6646 54.5944 27.5382C54.6071 26.8692 54.9318 26.007 53.5282 26.539C52.5877 26.8954 52.5274 27.4892 52.1974 27.7572C52.16 26.7028 52.4665 26.3609 51.088 26.5908L51.088 26.5907ZM61.2685 26.8231C60.3846 26.1962 57.1366 26.0393 57.0723 28.2652C57.008 30.4903 60.5721 29.9336 60.4313 31.4449C60.3765 32.0337 59.7771 32.2842 59.129 32.3103C58.3525 32.3414 57.841 32.1311 57.2589 31.9452C57.0959 32.0968 56.9477 32.5315 56.9198 32.7616C57.712 33.3623 59.7193 33.3329 60.5577 32.8819C61.5029 32.3734 62.6512 30.2833 59.6682 29.2491C59.2335 29.0984 58.3958 28.8329 58.2325 28.4757C57.9537 27.866 58.5919 27.4331 59.1047 27.3411C59.9914 27.182 60.4376 27.5729 60.9936 27.5687L61.2685 26.8231V26.8231ZM62.9146 26.5747L62.9156 33.065L64.0689 33.0737L64.0695 26.5816L62.9146 26.5747ZM62.8019 24.2572C62.5193 24.8333 62.9956 25.6183 63.7945 25.3259C64.5906 25.0347 64.2935 23.5578 63.243 23.9191C63.0182 23.9964 62.9092 24.0388 62.802 24.2573L62.8019 24.2572ZM69.6327 26.7537C67.9526 25.7751 65.3162 26.869 65.4041 30.0659C65.4714 32.5137 67.4537 33.714 69.1649 33.0436C70.1141 32.6718 70.1426 32.1409 70.4209 32.0452L70.4688 33.0127C70.5608 33.0404 70.5173 33.0369 70.6778 33.0604C70.7579 33.0721 70.8689 33.0763 70.9508 33.0775C71.1259 33.0799 71.3185 33.0738 71.4938 33.0669L71.4314 23.9111L70.2913 23.925L70.2957 27.2772C70.1031 27.1779 70.2279 27.2525 70.0869 27.1289C70.0617 27.1068 69.9901 27.026 69.9445 26.9823C69.8543 26.8957 69.7333 26.8123 69.6327 26.7537L69.6327 26.7537ZM66.6129 29.787C66.6695 26.5749 70.2953 26.6336 70.2953 29.3727V30.2026C70.2953 32.9536 66.5552 33.0651 66.6129 29.7871V29.787ZM76.3096 26.5139C72.838 25.6243 71.3175 30.3049 73.4407 32.4174C74.4126 33.3844 76.4148 33.4476 77.826 32.7931C77.8235 32.6417 77.7939 32.5296 77.7556 32.3806L77.5921 31.9857C75.9222 32.4037 73.7725 32.7001 73.6353 30.0559L78.1702 30.0395C78.5157 28.4986 77.6141 26.8483 76.3096 26.5139V26.5139Z" fill="black"/>
</svg>
