<svg width="138" height="36" viewBox="0 0 138 36" fill="none" xmlns="http://www.w3.org/2000/svg">
<path fill-rule="evenodd" clip-rule="evenodd" d="M10.8792 35.0334L19.0953 35.0556L19.0927 25.6517L19.092 23.0953C19.092 22.8398 19.0088 21.6448 19.1745 21.4503L30.2067 2.48953e-05H20.2317C19.9336 0.886312 15.2087 11.3463 15.0973 11.4538C14.8933 11.2377 11.8984 4.16885 11.3261 2.86719C10.9258 1.95687 10.4242 0.909518 10.0943 0H5.71524H0V0.0790425L5.71524 11.3044L7.7496 15.3001C8.62474 17.0452 9.75389 19.3996 10.6636 21.0543C10.9509 21.5767 10.8796 21.6161 10.8787 22.2704L10.8789 25.6517L10.8791 35.0334L10.8792 35.0334ZM119.099 9.59882C116.696 11.7377 117.196 17.0241 117.196 20.1397C117.196 21.9771 117.196 23.8144 117.196 25.6517C117.196 26.5638 117.196 27.4759 117.195 28.388C117.191 34.1326 120.645 35.8086 126.224 35.9542C128.41 36.0993 131.668 35.9093 133.586 35.2456C135.614 34.5442 137.046 33.3407 137.642 31.1772C138.014 29.83 138.019 27.613 137.989 25.6518C137.976 24.8158 137.957 24.0263 137.957 23.3704C137.957 21.684 138.041 16.5997 137.949 15.3279C137.791 9.2703 135.128 7.63413 129.2 7.40689C126.846 7.31661 123.814 7.3519 121.69 8.05748C120.245 8.53751 120.036 8.7652 119.099 9.59884L119.099 9.59882ZM125.741 14.2944C125.903 13.5234 126.25 13.1044 127.063 12.968C129.235 12.6041 129.507 13.8751 129.506 15.7406C129.505 16.7839 129.535 22.0452 129.525 25.6517C129.521 27.4658 129.506 28.8611 129.472 29.0906C129.351 29.9211 129.002 30.28 128.174 30.3994C125.859 30.7335 125.65 29.6655 125.65 27.6319C125.651 27.2798 125.646 26.5696 125.641 25.6517C125.62 21.9955 125.584 15.0433 125.741 14.2944V14.2944ZM104.443 1.42082L104.435 25.6517L104.434 30.4888C104.34 32.6869 105.607 34.7322 107.988 35.2964C109.277 35.6016 114.697 35.5017 116.324 35.4757L116.326 30.0415C115.558 30.0364 113.627 30.1278 113.036 29.9974L113.027 25.6517L113.001 13.1224L116.274 13.1053L116.296 7.80989L113.027 7.8082L113.025 1.42386L104.443 1.42082H104.443ZM83.1533 10.8765C82.2919 12.0933 81.5826 14.8406 81.9122 16.6782L89.8496 16.6795C89.8915 15.7777 90.0022 14.4251 90.4504 13.8183C90.9506 13.1413 92.3106 12.9857 92.9643 13.5738C93.6802 14.2176 93.6764 15.1899 93.1025 15.9849C92.5408 16.7628 87.4923 19.0582 86.3158 19.6657C84.5574 20.5736 83.3365 21.2989 82.5028 22.8751C82.0965 23.6432 81.8537 24.6226 81.715 25.6517C81.5695 26.7316 81.5388 27.8663 81.5543 28.8692C81.5885 31.0902 82.2337 32.8899 83.3444 34.0958C84.4835 35.3322 86.2789 35.9551 88.5165 35.8916C90.3542 35.8394 92.0004 35.3213 93.3693 34.1877C93.5417 34.0451 93.3989 34.0589 93.66 34.0304L93.7342 35.0942L102.007 35.122C101.963 32.7867 102.026 30.4363 102.026 28.1131C102.026 27.2926 102.026 26.4722 102.026 25.6517C102.026 24.1123 102.026 22.5727 102.026 21.0333C102.026 18.7491 102.138 16.1993 102.019 13.951C101.902 11.7209 101.13 10.1208 99.7333 9.16031C97.2256 7.43595 90.7993 7.36445 87.526 8.15265C85.4502 8.6525 84.0649 9.58913 83.1534 10.8765L83.1533 10.8765ZM90.8059 28.9254C89.9015 28.4524 89.9626 27.5959 89.9618 26.3947C89.9617 26.1286 89.9629 25.8818 89.9714 25.6517C90.0092 24.6357 90.1907 23.9437 91.04 23.3442C91.5169 23.0074 93.0942 22.0337 93.6354 21.8602C93.6485 22.5428 93.6943 24.1678 93.6635 25.6517C93.6373 26.9158 93.5554 28.0774 93.3504 28.4666C92.9618 29.204 91.6818 29.3835 90.8059 28.9254V28.9254ZM47.024 8.18407L47.0228 25.6517L47.0222 35.1217L55.2649 35.121L55.2647 25.6517L55.2646 17.8714C55.2646 16.4641 55.0155 14.6468 57.2406 14.0392C58.7372 13.6305 58.9111 14.0116 58.9481 14.9128C59.0445 17.2637 58.9644 21.1254 58.9644 23.5765C58.9644 24.267 58.9626 24.9589 58.9599 25.6517C58.9478 28.7997 58.9185 31.9653 58.9665 35.0987L67.4836 35.1225C67.5511 33.2405 67.4881 31.2405 67.4881 29.3503V25.6517V17.8026C67.4881 16.2651 67.2041 14.7751 69.5242 14.057C71.5996 13.4148 71.199 14.7675 71.199 17.8026C71.199 20.3973 71.1865 23.0246 71.1787 25.6517C71.1693 28.8277 71.1668 32.0032 71.2018 35.1199L79.5309 35.1211C79.5268 31.9612 79.5262 28.8053 79.5269 25.6517C79.5277 21.5893 79.5306 17.5307 79.5306 13.4722C79.5306 11.3922 79.4781 10.5632 78.3796 9.28118C77.5855 8.35455 76.0128 7.67373 74.6846 7.5404C72.4065 7.31186 69.4675 8.63541 67.5243 9.79457C67.2151 9.97901 66.9603 10.1688 66.6625 10.3208C66.5182 10.1199 66.4317 9.85626 66.2899 9.65209C66.1514 9.45271 65.9746 9.26922 65.7998 9.10719C64.5713 7.96801 62.8713 7.45258 61.0758 7.51742C59.5565 7.5723 57.7948 8.48669 56.5291 9.21043C56.1471 9.4289 55.5372 9.87745 55.2141 10.0146L55.1204 10.0797L55.1085 8.18394L47.024 8.184V8.18407ZM24.4826 25.6517C24.3453 26.7067 24.3196 27.815 24.321 28.8692C24.327 33.3374 26.7878 36.0126 31.2291 35.8929C32.6535 35.8545 34.1771 35.4951 35.3427 34.7595C35.7708 34.4894 36.0405 34.2159 36.4193 33.9941L36.4817 35.1172L44.7732 35.1205C44.6962 31.9895 44.7143 28.8152 44.7422 25.6517C44.7617 23.4363 44.7861 21.2262 44.7861 19.0399C44.7861 13.7545 45.6771 9.2812 39.6185 8.06156C36.3516 7.40394 28.8051 7.21074 26.3829 10.2901C25.6783 11.1858 25.3413 11.6984 24.9926 12.8902C24.8234 13.4684 24.4536 15.9882 24.6421 16.5475C24.7204 16.7797 26.0148 16.6807 26.472 16.6807L32.5848 16.6815C32.7826 15.7157 32.6149 14.6496 33.2028 13.8605C33.7204 13.1658 34.8801 12.9666 35.7081 13.5429C36.4596 14.0658 36.3992 15.2658 35.8333 16.0024C35.492 16.4467 34.4192 17.0449 33.6986 17.376C32.3022 18.0177 28.0768 20.0601 26.8909 20.9715C26.2579 21.458 25.6727 22.0387 25.2625 22.8533C24.8495 23.6735 24.6145 24.638 24.4826 25.6516V25.6517ZM33.8877 23.272C34.2214 23.0294 35.9512 21.9825 36.3814 21.8746C36.4017 22.6626 36.4471 24.2462 36.4301 25.6517C36.418 26.6626 36.3735 27.5814 36.2644 28.0458C36.046 28.975 35.2724 29.2839 34.2029 29.1326C32.4757 28.8882 32.7232 27.3725 32.7232 26.051C32.7232 25.9106 32.725 25.7778 32.7293 25.6517C32.7683 24.5001 33.0092 23.9107 33.8877 23.272V23.272Z" fill="#E42234"/>
</svg>
