<svg width="181" height="20" viewBox="0 0 181 20" fill="none" xmlns="http://www.w3.org/2000/svg">
<path fill-rule="evenodd" clip-rule="evenodd" d="M10.533 4.86594C10.5325 4.12783 10.7753 3.71533 11.4765 3.59601C11.8315 3.53556 15.2363 3.5757 15.9045 3.57649C16.351 3.57707 16.5381 3.58981 16.7462 3.31199C17.0774 2.86976 17.0791 1.92878 16.975 1.40012C16.7753 0.385506 16.1855 0.577531 15.5621 0.577531H1.17952C0.756042 0.577473 0.51632 0.524877 0.301077 0.796261C0.0457575 1.1182 0.0856202 1.43093 0 1.58467V2.56522C0.127791 2.79611 0.0391248 3.05021 0.321026 3.36715C0.561862 3.63795 0.830697 3.57654 1.21759 3.57646C1.95324 3.57625 2.68881 3.57646 3.42446 3.57646C4.0243 3.57646 5.10703 3.49625 5.58844 3.6541C6.2686 3.87713 6.35332 4.28929 6.35317 5.09494C6.35253 8.04808 6.35317 11.0012 6.35317 13.9543C6.35317 15.4201 6.31107 16.9467 6.35196 18.4047C6.38534 19.5962 8.81525 19.7847 9.93017 19.2414C10.4815 18.9726 10.5355 18.6703 10.534 18.1749L10.533 4.86589L10.533 4.86594ZM176.68 4.08848C176.947 4.6057 176.938 5.38317 176.725 5.91832C175.866 8.07973 168.345 7.73603 164.521 10.3391L163.874 10.7771C163.804 10.908 163.409 11.2562 163.247 11.4224C163.128 11.5435 163.145 11.5624 163.019 11.6288C162.99 11.7343 162.912 11.8261 162.837 11.9243C161.685 13.4381 161.639 15.9758 162.927 17.4531C163.018 17.5579 163.081 17.6411 163.163 17.7114C163.419 17.9336 163.706 18.1793 164.007 18.3506C165.339 19.1099 166.99 19.5451 168.596 19.6145C171.143 19.7245 173.56 19.8459 175.943 19.3591C177.026 19.1378 178.019 18.9063 178.986 18.4804C179.64 18.1924 179.727 18.088 180.227 17.7452C180.753 17.3842 180.851 16.8824 181 16.5761V5.76745C180.954 5.68108 180.923 5.18576 180.901 5.04188C180.866 4.81268 180.812 4.60797 180.756 4.38528C179.945 1.20484 176.633 0.522753 173.687 0.279616C170.823 0.0434025 167.993 0.534041 165.608 1.80398C165.105 2.07196 163.997 2.80859 164.038 3.4242C164.36 3.83245 165.371 3.6109 165.929 3.52805C167.889 3.23738 169.421 2.74127 171.599 2.58241C173.151 2.46919 175.928 2.63471 176.68 4.08845L176.68 4.08848ZM177.141 11.6481C177.562 14.2535 176.396 16.7863 173.833 17.5136C172.501 17.8916 171.057 17.8921 169.789 17.4781C168.689 17.1191 167.601 16.3089 167.213 15.374C166.97 14.789 166.839 14.0546 167.005 13.389C167.587 11.0517 171.458 9.8454 173.668 9.5561C173.993 9.51359 174.391 9.50248 174.709 9.44881C174.914 9.41428 175.642 9.41367 175.83 9.46309C176.658 9.68078 177.022 10.9112 177.141 11.6482V11.6481ZM141.63 3.0674C141.961 3.82937 142.333 4.60029 142.693 5.3528C143.056 6.11151 143.378 6.90407 143.755 7.63633C143.941 7.99598 144.1 8.42279 144.285 8.78014L147.979 16.7237C148.169 17.1049 148.314 17.5017 148.51 17.8662C148.768 18.3477 148.92 18.5033 149.232 18.8181C149.947 19.5399 150.723 19.6395 151.703 19.643C152.845 19.6473 153.456 19.2261 154.009 18.6177C154.937 17.595 155.575 15.4355 156.095 14.0095C156.397 13.1822 156.694 12.4112 156.982 11.5881C157.826 9.17463 158.8 6.67478 159.656 4.25819C159.94 3.45407 160.243 2.68836 160.538 1.8251C160.831 0.966323 158.728 0.143793 157.924 0.515335C157.705 0.616715 157.683 0.782094 157.595 1.02398L156.254 4.69844C155.961 5.54 155.683 6.2807 155.369 7.12402C154.744 8.80885 154.23 10.3283 153.589 11.999C153.279 12.8059 153 13.6668 152.695 14.4528C152.047 16.1291 151.724 15.4928 151.315 14.6465C150.945 13.8836 150.625 13.1185 150.256 12.3579L147.081 5.53171C146.841 5.02987 145.167 1.35145 144.944 1.01211C144.434 0.237087 142.866 0.491511 142.006 1.29763C141.416 1.84994 141.327 2.36938 141.63 3.06743L141.63 3.0674ZM120.257 2.91101C120.129 3.03738 120.01 3.19089 119.878 3.30621L119.803 3.44572C118.668 4.90795 118.121 6.56313 117.935 8.47545C117.676 11.1416 117.996 13.6628 119.235 15.8294C119.401 16.1195 119.984 16.9083 120.193 17.1147C120.271 17.1912 120.339 17.2679 120.42 17.3453C120.525 17.4459 120.565 17.4899 120.648 17.5722L121.898 18.4897C123.089 19.2054 124.48 19.625 125.876 19.833C126.04 19.8574 127.441 19.9977 127.445 20H129.638C129.949 19.8526 135.458 20.1283 138.038 15.6994C139.992 12.3434 139.932 5.80134 136.865 2.85013C135.202 1.25077 133.279 0.499162 130.801 0.202498C127.848 -0.15095 124.02 0.11898 121.536 1.83077C121.359 1.95295 120.803 2.43675 120.646 2.48583C120.559 2.65682 120.394 2.77493 120.257 2.91104L120.257 2.91101ZM124.3 3.86547C124.349 3.79559 124.646 3.5983 124.806 3.50399C126.602 2.44583 129.27 2.37136 131.235 2.99986C131.698 3.14769 132.027 3.31959 132.406 3.54099C133.153 3.97802 133.663 4.53033 134.129 5.24153C134.585 5.93653 134.891 6.82448 135.073 7.71596C135.294 8.79713 135.28 9.7021 135.261 10.8745C135.234 12.6337 134.567 14.6033 133.379 15.7961C132.136 17.0443 130.059 17.6233 128.226 17.4926C125.922 17.3281 124.599 16.7616 123.446 15.4225C121.773 13.4779 121.531 9.60337 122.237 7.09546C122.37 6.62178 122.927 5.14987 123.342 4.81777C123.43 4.63607 124.113 3.94913 124.3 3.86541V3.86547ZM97.3072 1.27067C94.349 3.01138 94.7491 5.80367 94.7491 8.8213V17.2243C94.7491 17.6873 94.6723 18.4476 94.8558 18.7843C95.2075 19.4299 96.5243 19.6237 97.4416 19.5044C97.9047 19.4442 98.3675 19.3306 98.6932 19.0814C99.145 18.7357 99.095 18.4029 99.095 17.7946V7.68058C99.095 6.74285 98.9771 5.24703 99.2506 4.50444C99.8429 2.896 102.191 2.72364 104.217 2.72364C105.572 2.72364 107.474 2.79995 108.659 3.39365C110.358 4.24452 110.068 5.32327 110.068 7.03419V17.1102C110.068 17.6009 109.998 18.3633 110.148 18.7492C110.551 19.7849 113.115 19.802 113.61 18.7784C113.785 18.4175 113.699 16.08 113.699 15.4753V8.74526C113.699 6.42557 114.012 4.26686 112.493 2.37581C112.368 2.22012 112.228 2.08953 112.079 1.9526C110.806 0.778923 108.878 0.323485 107.159 0.130208C106.955 0.107198 105.715 0.0418901 105.627 0H102.797C102.627 0.0922746 99.4853 -0.0111124 97.3072 1.27067H97.3072ZM73.8174 1.94085L73.1542 2.37956C73.0128 2.49764 71.9147 3.39054 72.5603 3.65037C73.2833 3.94122 77.0652 3.01993 78.3357 2.83558C79.6415 2.64609 79.7502 2.61359 81.0448 2.61359C82.7259 2.61359 85.1458 3.18819 85.2051 4.82894C85.2271 6.05859 84.9989 6.49492 83.8596 6.99768C82.0875 7.77972 78.7357 8.22259 76.619 8.80487C74.6171 9.35561 72.1082 10.3737 70.9951 12.2411C70.0933 13.7543 70.0145 15.7752 71.033 17.2293C72.313 19.0567 75.5133 19.725 77.7345 19.725L79.713 19.7799C80.3384 19.7799 80.9842 19.7549 81.5759 19.7524C83.2137 19.7451 86.3574 19.0975 87.7565 18.3435L88.4989 17.8668C88.5655 17.8104 88.5548 17.8101 88.6186 17.7593C88.8469 17.577 89.11 17.2487 89.2239 16.9564C89.3075 16.7423 89.3587 16.4618 89.3587 16.1977V6.692C89.3587 3.70678 88.255 2.0488 85.9722 1.11972C83.876 0.266467 80.5311 0.120231 78.0205 0.511321C76.6096 0.731099 75.805 1.02427 74.5634 1.54356C74.3078 1.65047 74.0471 1.81 73.8174 1.94088L73.8174 1.94085ZM83.9365 9.49111C84.254 9.49111 84.5826 9.71307 84.7386 9.88252C84.9077 10.0663 85.0466 10.3236 85.1635 10.5983C85.3888 11.1276 85.5408 11.8961 85.5632 12.5098C85.6211 14.1011 84.9727 15.856 83.9075 16.6257C83.6731 16.7952 83.5467 16.9134 83.2418 17.0995C81.2512 18.3146 77.8636 18.0565 76.2468 16.4297C75.1283 15.3044 74.8807 13.5639 75.9313 12.3041C76.4438 11.6897 76.1109 12.0911 76.4995 11.7316C77.8099 10.5195 81.3022 9.49114 83.4799 9.49114H83.9365L83.9365 9.49111ZM58.0525 2.7655C57.3046 3.6205 56.8216 5.03915 56.8216 6.1977V18.403C56.8216 19.838 61.0141 20.0922 61.0037 18.2516L61.0027 7.30034C61.0027 6.66847 60.943 5.73543 61.089 5.18832C61.3898 4.06043 62.7794 3.44444 63.7308 3.43775C64.4532 3.43266 65.1784 3.43886 65.9012 3.43886C66.6201 3.43886 67.4213 3.58748 67.7414 3.05565C68.0735 2.50381 67.8291 1.74493 67.4941 1.37391C66.6761 0.467889 64.8402 0.412298 63.5041 0.412443C61.7992 0.412705 59.8376 1.1466 58.8389 1.99289C58.7547 2.06416 58.6905 2.12909 58.6184 2.18992C58.5229 2.27065 58.494 2.26294 58.4005 2.35207L58.0525 2.7655H58.0525ZM44.1944 2.07231C41.8993 3.95888 42.2727 6.84749 42.2727 9.58175C42.2727 12.0912 42.2727 14.6008 42.2727 17.1102C42.2727 17.6806 42.1816 18.4173 42.4483 18.8361C43.0911 19.8453 46.0342 19.8256 46.4438 18.5799C46.5413 18.2835 46.4812 15.44 46.4812 14.8669C46.4812 13.7506 46.4273 5.9024 46.5117 5.40799C46.6836 4.40047 47.5032 3.82687 48.4297 3.56883C49.5615 3.25364 52.4771 3.61061 52.9202 3.33943C53.0976 3.23092 53.2428 3.04786 53.3032 2.81365C53.6237 1.57041 52.6538 0.943749 51.7132 0.681092C50.7774 0.419803 49.3219 0.34987 48.2522 0.469635C47.0606 0.603043 45.3703 1.11579 44.454 1.87455C44.345 1.96482 44.287 1.99615 44.1944 2.07231ZM19.773 5.15691C19.2171 6.98099 19.3898 9.44462 19.3898 11.597C19.3898 14.5366 19.3793 16.3563 21.5343 18.022C21.8867 18.2943 22.1729 18.451 22.5954 18.6742C24.8812 19.8817 28.9629 19.9058 31.4399 19.4349C33.1307 19.1135 34.3436 18.6583 35.6866 17.7153C35.8601 17.5935 35.9662 17.4309 36.1634 17.3659C36.209 17.2573 36.2012 17.2721 36.3051 17.1928C36.3731 17.1408 36.3841 17.1366 36.4502 17.0712C36.545 16.9771 36.6068 16.9031 36.7005 16.7781C36.7912 16.6961 36.85 16.6027 36.905 16.5363C36.9744 16.4524 37.0239 16.3958 37.087 16.2997C37.2137 16.1066 37.2945 15.98 37.3979 15.7738C37.5737 15.4232 37.813 14.8882 37.7593 14.4086C37.6868 13.7599 36.9689 14.2333 36.6941 14.3869C36.3294 14.5908 35.9814 14.8327 35.6395 15.0448C34.2582 15.9018 32.6608 16.7173 30.8856 17.1008C29.0368 17.5002 26.5908 17.6034 24.8944 16.8724C24.5022 16.7034 24.0977 16.4218 23.9071 16.1475C23.6569 15.7873 23.4736 15.3711 23.5281 14.8463C23.6475 13.6962 23.9584 13.4097 25.038 12.9671C28.1523 11.6904 32.5073 11.8843 35.3357 9.61015C36.7177 8.49895 37.6111 6.91618 37.4567 4.95179C37.3548 3.65593 36.3737 2.51329 35.3974 1.88794C35.0459 1.66283 34.7482 1.49106 34.3155 1.29644C31.3941 -0.0177744 25.6157 -0.262367 22.8072 1.38403C21.2745 2.2826 20.33 3.32919 19.773 5.15682L19.773 5.15691ZM23.6451 9.79275C22.9024 9.02112 22.9925 5.50558 24.318 3.95777C24.4259 3.83184 24.4542 3.76418 24.5743 3.64459C25.3225 2.89955 26.1525 2.4575 27.2158 2.25872C27.4267 2.21922 27.5626 2.22829 27.7489 2.20037C28.4125 2.10102 29.2505 2.2113 29.8404 2.34157C30.6713 2.52522 31.6186 2.90584 32.2405 3.44814C32.374 3.56453 32.4426 3.59435 32.5537 3.70469C33.5525 4.69675 34.0561 6.10985 33.3818 7.4661C32.6276 8.98299 30.5379 9.64174 28.9256 9.90006C27.5982 10.1127 25.9975 10.1638 24.586 10.0338C24.2007 9.99836 23.8546 10.0105 23.6451 9.79269V9.79275Z" fill="black"/>
</svg>
