<svg width="173" height="63" viewBox="0 0 173 63" fill="none" xmlns="http://www.w3.org/2000/svg">
<path d="M21.0078 21.6477C20.3075 22.0494 19.4129 21.8081 19.0104 21.1092C18.6079 20.4102 18.8497 19.5172 19.5499 19.1155L40.3608 7.12232C40.83 6.85305 41.3863 6.87233 41.823 7.12481L41.8243 7.12232L53.3237 13.7495C54.024 14.1543 54.2632 15.0498 53.8577 15.7487C53.4515 16.4477 52.555 16.6865 51.8547 16.2817L41.0873 10.0768L21.0078 21.6483V21.6477ZM38.5423 16.9315C37.842 16.5298 37.6003 15.6368 38.0028 14.9378C38.4052 14.2389 39.2999 13.9976 40.0001 14.3993L55.0619 23.0792C55.7622 23.4809 56.0039 24.3739 55.6015 25.0729C55.199 25.7719 54.3044 26.0131 53.6041 25.6114L38.5423 16.9315Z" fill="#FF0000"/>
<path d="M32.5765 20.3691C31.8763 19.9674 31.6345 19.0744 32.037 18.3754C32.4395 17.6764 33.3341 17.4352 34.0344 17.8369L54.8453 29.83C55.3157 30.0999 55.5792 30.5912 55.5798 31.0962V44.3505C55.5798 45.157 54.9244 45.8112 54.1164 45.8112C53.3083 45.8112 52.6529 45.157 52.6529 44.3505V31.9388L32.5765 20.3691ZM45.4242 33.1626C45.4242 32.3529 46.0821 31.6962 46.8939 31.6962C47.705 31.6962 48.3629 32.3529 48.3629 33.1626V50.5224C48.3629 51.3321 47.705 51.9887 46.8939 51.9887C46.0821 51.9887 45.4242 51.3321 45.4242 50.5224V33.1626Z" fill="#FF0000"/>
<path d="M39.4589 29.725C39.4589 28.9147 40.1168 28.2586 40.9279 28.2586C41.7391 28.2586 42.397 28.9153 42.397 29.725V53.7113C42.397 54.3039 42.045 54.8145 41.5378 55.0458L30.1574 61.6039C29.4571 62.0057 28.5625 61.7644 28.16 61.0654C27.7576 60.3664 27.9993 59.4735 28.6995 59.0717L39.4583 52.8718V29.725H39.4589ZM34.7888 47.2347C35.4891 46.8292 36.3862 47.068 36.7918 47.7676C37.198 48.4666 36.9587 49.362 36.2579 49.7669L21.1961 58.4468C20.4958 58.8522 19.5987 58.6134 19.1931 57.9138C18.7875 57.2149 19.0261 56.3194 19.727 55.9146L34.7888 47.2347Z" fill="#FF0000"/>
<path d="M34.795 40.3587C35.4952 39.9569 36.3899 40.1982 36.7923 40.8972C37.1948 41.5962 36.9531 42.4892 36.2528 42.8909L15.4413 54.884C14.9721 55.1527 14.4158 55.134 13.9791 54.8816L13.9778 54.884L2.47836 48.2569C1.7781 47.8514 1.53886 46.9566 1.94444 46.2576C2.35002 45.5587 3.24715 45.3199 3.94741 45.7247L14.7155 51.9302L34.795 40.3587ZM17.2598 45.0755C17.9601 45.4772 18.2018 46.3702 17.7993 47.0691C17.3969 47.7681 16.5022 48.0094 15.802 47.6077L0.740167 38.9278C0.0399069 38.5261 -0.20182 37.6331 0.200642 36.9341C0.603105 36.2351 1.49774 35.9938 2.198 36.3956L17.2598 45.0755Z" fill="#FF0000"/>
<path d="M23.2256 41.6372C23.9259 42.039 24.1676 42.9319 23.7652 43.6309C23.3627 44.3299 22.4681 44.5712 21.7678 44.1694L0.95689 32.1763C0.48652 31.9064 0.222987 31.4151 0.222364 30.9102L0.221741 17.6559C0.221741 16.8493 0.877145 16.1951 1.68519 16.1951C2.49322 16.1951 3.14863 16.8493 3.14863 17.6559V30.0676L23.225 41.6372H23.2256ZM10.378 28.8437C10.378 29.654 9.7201 30.3107 8.90895 30.3107C8.09717 30.3107 7.43928 29.654 7.43928 28.8437V11.4839C7.43928 10.6743 8.09717 10.0176 8.90895 10.0176C9.7201 10.0176 10.378 10.6743 10.378 11.4839V28.8437Z" fill="#FF0000"/>
<path d="M16.3439 32.2814C16.3439 33.0911 15.686 33.7477 14.8749 33.7477C14.0631 33.7477 13.4052 33.0911 13.4052 32.2814V8.29506C13.4052 7.70243 13.7572 7.19189 14.2643 6.96056L25.6448 0.402432C26.3451 0.000711456 27.2397 0.241993 27.6422 0.940962C28.0446 1.63993 27.8029 2.53292 27.1026 2.93464L16.3439 9.13457V32.2814ZM21.0134 14.7717C20.3131 15.1766 19.416 14.9384 19.0104 14.2388C18.6048 13.5398 18.8434 12.6443 19.5443 12.2395L34.6061 3.55961C35.3064 3.15478 36.2035 3.39357 36.6091 4.09254C37.0147 4.79151 36.7761 5.68699 36.0752 6.09182L21.0134 14.7717Z" fill="#FF0000"/>
<path d="M42.3976 25.2462V36.7606C42.3976 37.5702 42.1895 38.3351 41.7995 39.0092L41.797 39.0136L41.7995 39.0154C41.4157 39.6783 40.855 40.238 40.1429 40.6497L40.1442 40.6522L30.1543 46.4093C29.4397 46.821 28.6709 47.0275 27.9015 47.0275C27.1314 47.0275 26.3633 46.821 25.6481 46.4093L15.6581 40.6522C15.6264 40.6335 15.5952 40.6142 15.5653 40.5937C14.9012 40.1895 14.3723 39.6485 14.0028 39.0098C13.6128 38.3357 13.4047 37.5709 13.4047 36.7612V25.2469C13.4047 24.4372 13.6128 23.6723 14.0028 22.9982C14.3922 22.3247 14.9529 21.762 15.6581 21.3559C15.6856 21.3403 15.7123 21.3254 15.7404 21.3117L25.6499 15.6012L25.6481 15.5987C26.3626 15.187 27.1314 14.9806 27.9015 14.9806C28.6671 14.9806 29.4341 15.1864 30.1487 15.5987L40.1429 21.3584L40.1442 21.3559C40.8525 21.7638 41.4132 22.3247 41.7995 22.9926C41.8188 23.0262 41.8363 23.0592 41.8525 23.0934C42.2082 23.7438 42.397 24.4751 42.397 25.2475L42.3976 25.2462ZM39.4589 36.7606V25.2462C39.4589 24.9683 39.4009 24.7183 39.2931 24.5081L39.2626 24.4583C39.1312 24.2314 38.9324 24.0355 38.6751 23.8875L38.6764 23.885L28.6908 18.1309C28.4397 17.9867 28.1706 17.9139 27.9015 17.9139C27.6361 17.9139 27.3682 17.986 27.1177 18.1309L27.1165 18.1284L17.2032 23.8408L17.1278 23.8881C16.8674 24.038 16.668 24.232 16.5403 24.4534C16.4126 24.6747 16.3441 24.944 16.3441 25.2469V36.7612C16.3441 37.064 16.4126 37.3339 16.5403 37.5547C16.6606 37.7624 16.8375 37.9433 17.0643 38.0851L17.1278 38.1193L27.1177 43.8765C27.3682 44.0208 27.6361 44.0935 27.9015 44.0935C28.1669 44.0935 28.4341 44.0214 28.6852 43.8765L38.6751 38.1193L38.6764 38.1218L38.6807 38.1193C38.9324 37.9744 39.1293 37.7786 39.2626 37.5485L39.2651 37.5497C39.3916 37.3296 39.4589 37.0616 39.4589 36.7606Z" fill="#FF0000"/>
<path d="M31.0052 19.4462C30.3429 18.9842 30.1809 18.0738 30.6438 17.4127C31.1067 16.7511 32.0188 16.59 32.6817 17.0514L32.7913 17.1285C32.8231 17.1515 32.853 17.1764 32.8823 17.2019L32.9053 17.2206C33.2617 17.5054 33.5732 17.8437 33.8243 18.2255L33.8268 18.2236C34.071 18.5967 34.261 19.0146 34.3831 19.4686C34.6024 20.2851 34.57 21.1115 34.3345 21.8652C34.1046 22.6021 33.6773 23.2694 33.0972 23.7911C33.0698 23.8185 33.0418 23.8446 33.0125 23.8695L31.1591 25.7152L34.9532 27.8581C34.9974 27.8805 35.0404 27.9047 35.0815 27.9308L35.1563 27.9731C35.6864 28.2436 36.1624 28.6267 36.5474 29.1018C36.9212 29.5626 37.2047 30.1024 37.3654 30.7006C37.576 31.4841 37.5561 32.2745 37.3474 33.0002C37.1437 33.711 36.7568 34.3615 36.2266 34.8851C36.1886 34.9274 36.1481 34.9672 36.1057 35.0045L29.4875 41.7342C29.4645 41.7579 29.4402 41.7809 29.4159 41.8026C29.2034 42.0595 29.0471 42.2927 28.9997 42.468C28.953 42.6428 28.9412 42.8175 28.9598 42.9842C28.9792 43.1564 29.0315 43.3231 29.1119 43.4748C29.4894 44.19 29.214 45.0749 28.4976 45.4517C27.7811 45.8279 26.8946 45.5537 26.5177 44.8386C26.2678 44.366 26.1052 43.8461 26.0442 43.3051C25.9856 42.7846 26.0217 42.2454 26.1644 41.7119C26.5071 40.4352 27.8577 39.1442 28.7561 38.286L29.0626 37.9913L34.0529 32.9163C34.0803 32.8871 34.1084 32.8578 34.1383 32.8305C34.3208 32.6607 34.4541 32.4412 34.5239 32.1987C34.5912 31.9642 34.5981 31.7093 34.5301 31.4574C34.4772 31.2597 34.3887 31.088 34.2747 30.9475C34.1539 30.7982 33.9987 30.6751 33.8218 30.5849C33.78 30.5638 33.7402 30.5408 33.7015 30.5165C33.5981 30.4904 33.4872 30.4749 33.3738 30.4711C33.2175 30.4662 33.0542 30.4842 32.8972 30.5259C32.7621 30.5619 32.6387 30.6135 32.5309 30.6782C32.4231 30.7429 32.321 30.8256 32.2294 30.9245C32.2026 30.9531 32.1746 30.9811 32.1459 31.0072L29.2439 33.8348C29.1505 33.9262 29.039 34.0431 28.9268 34.16C28.3262 34.7893 27.7151 35.4292 26.6672 35.7097C25.6947 35.9696 24.706 35.8104 23.8942 35.3428L23.8219 35.298L14.7846 29.9948C14.0874 29.5869 13.8538 28.6914 14.2625 27.9955C14.6712 27.2997 15.5683 27.0658 16.2655 27.4744L22.2694 30.9972C22.3622 30.7317 22.4849 30.4774 22.6357 30.2398C22.6843 30.1509 22.7435 30.0663 22.812 29.9873C23.4506 29.1491 25.2044 27.4545 26.5027 26.2008C26.8503 25.865 27.1643 25.5622 27.4061 25.3246L30.9815 21.7645C31.0214 21.7216 31.065 21.6799 31.1111 21.6414C31.3104 21.4722 31.4575 21.2477 31.536 20.9965C31.6114 20.7558 31.6207 20.4903 31.5497 20.2266C31.5111 20.0817 31.45 19.948 31.3721 19.8293L31.3746 19.8274L31.3721 19.8237C31.2924 19.7018 31.1989 19.5973 31.0943 19.5121L31.0482 19.4792L31.007 19.4474L31.0052 19.4462ZM29.0053 27.86L28.5381 28.3251C28.4795 28.3829 28.4178 28.4352 28.3524 28.4812C27.1145 29.6776 25.542 31.2043 25.1489 31.7447L25.114 31.7951C25.0642 31.8734 25.0287 31.9636 25.0118 32.06C24.9944 32.1607 24.9981 32.2671 25.0262 32.3722C25.0735 32.5488 25.1788 32.6912 25.314 32.7832L25.362 32.8093C25.5196 32.9001 25.714 32.93 25.9077 32.8784C26.1644 32.8099 26.4859 32.4729 26.8017 32.1421C26.927 32.0115 27.0516 31.8803 27.1992 31.7366L30.0962 28.9134C30.1872 28.817 30.2825 28.725 30.3822 28.6373L29.0053 27.8593V27.86Z" fill="#FF0000"/>
<path d="M41.9477 25.4446V36.5615C41.9477 37.3556 41.7446 38.105 41.3634 38.7635C41.344 38.7965 41.3241 38.8282 41.3023 38.8593C40.9254 39.4718 40.3996 39.9861 39.7467 40.3617C39.7199 40.3773 39.6925 40.3922 39.6644 40.4059L30.1 45.918L30.1013 45.9205C29.4035 46.3228 28.6528 46.5243 27.9008 46.5243C27.1488 46.5243 26.3981 46.3228 25.7003 45.9205L25.625 45.8732L16.0568 40.3592L16.0556 40.3617C15.3684 39.9656 14.822 39.4177 14.4414 38.7617L14.4389 38.7629C14.0582 38.1044 13.8545 37.355 13.8545 36.5609V25.4439C13.8545 24.6492 14.0576 23.9005 14.4389 23.2419C14.4582 23.209 14.4781 23.1766 14.4999 23.1462C14.8768 22.533 15.4027 22.0194 16.0556 21.6438C16.0824 21.6282 16.1098 21.6133 16.1372 21.5996L25.7022 16.0875L25.701 16.085C26.3987 15.6826 27.1495 15.4811 27.9014 15.4811C28.6534 15.4811 29.4041 15.6826 30.1025 16.085L30.1779 16.1322L39.746 21.6462L39.7473 21.6438C40.4338 22.0393 40.9808 22.5877 41.3609 23.2438L41.3634 23.2426C41.744 23.9011 41.9477 24.6504 41.9477 25.4446ZM39.009 36.5615V25.4446C39.009 25.1647 38.9455 24.9147 38.8265 24.7089L38.829 24.7077L38.8265 24.7033C38.7075 24.4968 38.5212 24.3165 38.2776 24.176L38.2789 24.1735L28.7138 18.6613C28.6864 18.6476 28.659 18.6333 28.6322 18.6172C28.398 18.4822 28.1488 18.4151 27.9008 18.4151C27.6535 18.4151 27.4036 18.4829 27.1694 18.6172L27.1681 18.6147L17.6 24.1287L17.5246 24.176C17.301 24.3047 17.1265 24.467 17.0069 24.6523L16.9758 24.7089C16.8568 24.9147 16.7932 25.1647 16.7932 25.4446V36.5615C16.7932 36.8414 16.8568 37.0914 16.9758 37.2972L16.9733 37.2984L16.9758 37.3028C17.0948 37.5086 17.281 37.6896 17.5246 37.8301L17.5234 37.8326L27.0878 43.3448C27.1152 43.3584 27.1426 43.3734 27.17 43.3889C27.4043 43.5239 27.6535 43.5916 27.9014 43.5916C28.1494 43.5916 28.3986 43.5239 28.6328 43.3889L28.6341 43.3914L38.2022 37.8774L38.2776 37.8301C38.5013 37.7014 38.6757 37.5385 38.7953 37.3538L38.8265 37.2972C38.9455 37.0914 39.009 36.8414 39.009 36.5615Z" fill="#FF0000"/>
<path d="M55.8027 19.3218V42.6844H55.7965C55.7965 44.0736 55.4482 45.3708 54.796 46.4989C54.1418 47.6294 53.1886 48.5809 51.9812 49.2773L31.7154 60.9558L31.7173 60.9583C30.5055 61.6567 29.2041 62.0055 27.9014 62.0055C26.5987 62.0055 25.2972 61.6561 24.0854 60.9583L24.0101 60.9111L3.81716 49.2742L3.81592 49.2767C2.61538 48.5846 1.6653 47.635 1.00927 46.5026L1.00678 46.5038C0.350753 45.3696 0 44.0705 0 42.6838V19.3212C0 17.9344 0.35013 16.636 1.00678 15.5011C1.6572 14.3774 2.60853 13.4284 3.81716 12.7313L3.81592 12.7288L24.0854 1.04721C24.1154 1.0298 24.1459 1.01363 24.1764 0.998705C25.3639 0.332694 26.6323 0 27.9007 0C29.1997 0 30.4993 0.349485 31.7104 1.04721L31.7148 1.0497L31.7167 1.04721L51.9868 12.7288C52.0161 12.7456 52.0441 12.763 52.0715 12.7817C53.2397 13.4744 54.1611 14.4047 54.796 15.5011C54.8134 15.5315 54.8302 15.5626 54.8452 15.5931C55.4694 16.7069 55.8027 17.9736 55.8027 19.3212V19.3218ZM52.8696 42.6844H52.864V19.3218C52.864 18.4767 52.6678 17.6993 52.2996 17.0333L52.2597 16.968C51.8722 16.2977 51.3077 15.7274 50.5913 15.3008L50.5178 15.261L30.2476 3.57942L30.2489 3.57693C29.5025 3.14785 28.7019 2.93331 27.9014 2.93331C27.1251 2.93331 26.3488 3.13479 25.6218 3.53838L25.5551 3.57942L5.28497 15.261L5.28372 15.2585L5.27936 15.261C4.53113 15.692 3.94363 16.2772 3.54366 16.968C3.1493 17.6496 2.93872 18.4493 2.93872 19.3218V42.6844C2.93872 43.5562 3.1493 44.3559 3.54366 45.0381L3.54117 45.0394L3.54366 45.0437C3.93803 45.7259 4.52802 46.3086 5.28497 46.7451L5.28372 46.7476L25.4729 58.3826C25.5003 58.3963 25.5277 58.4112 25.5551 58.4267C26.3027 58.8577 27.1033 59.0735 27.9014 59.0735C28.7001 59.0735 29.5 58.8577 30.2476 58.4267L30.2489 58.4292L50.5234 46.7458C51.2747 46.3129 51.8628 45.7296 52.2591 45.0443C52.6572 44.3559 52.8696 43.5537 52.8696 42.685V42.6844Z" fill="#FF0000"/>
<path d="M67.5913 33.8999H71.0319C71.6022 33.8999 72.0603 33.445 72.0637 32.8896L72.0448 27.1679C72.0437 27.0577 72.1372 26.9667 72.2521 26.9667H80.8297C81.1699 26.9667 81.4456 26.6938 81.4465 26.3586L81.4381 23.2032C81.435 22.8728 81.1589 22.5951 80.8186 22.5951H72.2411C72.1261 22.5951 72.0329 22.5042 72.0318 22.394L72.0277 20.517C72.0258 20.4021 72.1194 20.3111 72.2343 20.3111H82.8963C83.2365 20.3111 83.5123 20.0382 83.5131 19.7031L83.5017 16.2699C83.5033 15.9395 83.2233 15.6667 82.883 15.6667H67.5395C66.9742 15.6667 66.5112 16.1216 66.5134 16.6818L66.553 32.8895C66.5591 33.4449 67.0211 33.8998 67.5913 33.8998V33.8999Z" fill="black"/>
<path d="M80.8732 33.4594C81.0308 33.718 81.3146 33.8807 81.6261 33.8807H86.0202C86.3412 33.8807 86.6386 33.6988 86.7889 33.421L87.2967 32.4538L87.5551 31.9031H96.3626L97.1039 33.4113C97.2429 33.6986 97.515 33.8758 97.8025 33.8758H101.962C102.235 33.8758 102.484 33.7178 102.619 33.4593C102.749 33.2007 102.747 32.8799 102.612 32.6117L94.455 16.6146C93.9439 15.6569 93.0379 15.6808 93.0379 15.6808C92.5586 15.6808 92.1352 15.6713 91.7566 15.6713C91.6417 15.6713 91.5515 15.6761 91.4452 15.6713C91.4021 15.6713 91.3494 15.6713 91.3063 15.6713C91.0036 15.6665 90.7304 15.6665 90.4782 15.6761L90.4808 15.6905C90.476 15.6905 90.4713 15.6905 90.4673 15.6954L90.4638 15.6762C89.5364 15.7146 88.8837 15.8917 88.4795 16.6147L80.8471 32.6118C80.7046 32.88 80.7108 33.2008 80.8732 33.4594ZM91.8527 22.8058L94.2291 27.5602H89.6099L91.8527 22.8058Z" fill="black"/>
<path d="M120.424 15.6667H104.683C104.118 15.6667 103.655 16.1216 103.657 16.6819L103.663 19.3009C103.665 19.8612 104.126 20.3112 104.696 20.3112H112.632C112.828 20.3112 112.915 20.5506 112.765 20.6703L104.583 28.2643C103.925 28.8054 103.55 29.6051 103.551 30.4477L103.554 32.8704C103.556 33.4307 104.017 33.8807 104.588 33.8807H120.473C121.038 33.8807 121.502 33.4307 121.5 32.8704L121.491 30.1316C121.489 29.5714 121.027 29.1166 120.457 29.1166H112.497C112.306 29.1166 112.22 28.8819 112.365 28.7622L120.441 21.1634C121.089 20.6223 121.465 19.8276 121.465 18.9896L121.458 16.677C121.457 16.1216 120.995 15.6667 120.425 15.6667H120.424Z" fill="black"/>
<path d="M138.39 15.6667H127.867C125.194 15.6667 123.03 17.7975 123.038 20.4261L123.061 29.2028C123.063 31.8267 125.241 33.9574 127.915 33.9574H138.438C141.112 33.9574 143.275 31.8266 143.269 29.2028L143.25 20.4261C143.242 17.7975 141.069 15.6667 138.39 15.6667ZM137.739 28.5755C137.743 28.9107 137.467 29.1836 137.122 29.1836H129.196C128.856 29.1836 128.576 28.9107 128.577 28.5755L128.56 20.9863C128.555 20.6463 128.832 20.3783 129.177 20.3783H137.098C137.443 20.3783 137.717 20.6463 137.722 20.9863L137.739 28.5755H137.739Z" fill="black"/>
<path d="M150.877 21.3788H145.606C145.075 21.3788 144.647 21.8102 144.651 22.3363L144.673 25.2285C144.677 25.7548 145.108 26.1862 145.639 26.1862H150.91C151.442 26.1862 151.868 25.7556 151.865 25.2285L151.848 22.3412C151.845 21.8111 151.408 21.3789 150.876 21.3789L150.877 21.3788Z" fill="#FF0000"/>
<path d="M157.992 33.9141C158.563 33.9141 159.021 33.4641 159.024 32.9039L159.016 29.5377C159.015 29.4276 159.103 29.3365 159.218 29.3365L163.382 29.3318C163.588 29.3318 163.779 29.4324 163.896 29.5999L166.77 33.7751C167.078 34.23 167.505 34.2827 168.747 34.2636C169.482 34.2731 170.583 34.2157 172.376 34.2157C172.955 34.2157 173.195 33.6124 172.82 33.1095L169.786 29.0301C169.711 28.9342 169.748 28.8002 169.853 28.7428C171.363 27.9383 172.385 26.3773 172.38 24.5722L172.372 20.4256C172.364 17.7969 170.191 15.6662 167.517 15.6662H154.507C153.937 15.6662 153.479 16.121 153.481 16.6814L153.523 32.9037C153.52 33.4639 153.986 33.9139 154.552 33.9139H157.993L157.992 33.9141ZM158.995 20.4354C158.994 20.3253 159.086 20.2296 159.197 20.2296H165.929C166.442 20.2296 166.852 20.6365 166.852 21.1344L166.859 23.8637C166.859 24.357 166.449 24.764 165.941 24.764H159.213C159.099 24.764 159.005 24.6731 159.003 24.5581L158.995 20.4355L158.995 20.4354Z" fill="#FF0000"/>
<path d="M74.3677 37.7707H66.9881C66.7249 37.7707 66.5126 37.9807 66.5126 38.2393L66.5109 39.4484C66.5109 39.7071 66.7229 39.9148 66.9862 39.9148H69.309C69.362 39.9148 69.405 39.9567 69.4057 40.0099L69.399 45.7216C69.3963 45.978 69.6111 46.188 69.8742 46.188H71.4626C71.7258 46.188 71.9381 45.978 71.9385 45.7216L71.9475 40.0099C71.9468 39.9568 71.9879 39.9148 72.041 39.9148H74.3659C74.627 39.9148 74.8418 39.7071 74.8418 39.4484L74.8436 38.2393C74.8436 37.9807 74.6311 37.7707 74.3678 37.7707H74.3677ZM84.5868 46.2033H91.6835C91.8405 46.2033 91.9704 46.0774 91.9692 45.9226L91.9698 44.2759C91.9708 44.121 91.8419 43.9951 91.6847 43.9951H86.7539C86.7008 43.9951 86.6578 43.9531 86.6571 43.9L86.6577 43.091C86.6575 43.0402 86.7004 42.996 86.7536 42.996H90.7199C90.877 42.996 91.0069 42.87 91.006 42.7175L91.0094 41.2586C91.0081 41.1038 90.8815 40.9778 90.7245 40.9778H86.7559C86.705 40.9778 86.662 40.9359 86.6614 40.8828L86.6627 40.0162C86.6621 39.9633 86.7054 39.9212 86.7563 39.9212H91.6893C91.8464 39.9212 91.9742 39.7951 91.9751 39.6404L91.9771 38.0512C91.9785 37.8987 91.8493 37.7704 91.6921 37.7704H84.5956C84.3324 37.7704 84.1183 37.9827 84.1178 38.2391L84.1087 45.7346C84.1109 45.9933 84.3233 46.2032 84.5865 46.2032L84.5868 46.2033ZM109.535 37.7707H107.21C107.059 37.7707 106.915 37.8436 106.826 37.9629L105.578 39.6472C105.536 39.707 105.434 39.6937 105.381 39.6207L104.156 37.9628C104.066 37.8434 103.923 37.7706 103.77 37.7706H101.445C101.213 37.7706 101.078 38.0314 101.216 38.2171L103.8 41.7184C103.873 41.8178 103.873 41.9505 103.802 42.0478L101.076 45.7282C100.939 45.9139 101.074 46.1725 101.307 46.1725H103.634C103.784 46.1725 103.928 46.0995 104.017 45.9802L105.395 44.1191C105.44 44.0594 105.539 44.0726 105.594 44.1456L106.948 45.9802C107.036 46.0996 107.18 46.1725 107.332 46.1725H109.657C109.89 46.1725 110.027 45.9139 109.889 45.7282L107.171 42.0478C107.1 41.9505 107.098 41.8179 107.171 41.7184L109.765 38.2171C109.905 38.0314 109.769 37.7706 109.535 37.7706V37.7707ZM126.494 37.7707H119.115C118.852 37.7707 118.639 37.9807 118.639 38.2393L118.638 39.4484C118.638 39.7071 118.85 39.9148 119.113 39.9148H121.436C121.489 39.9148 121.532 39.9567 121.532 40.0099L121.526 45.7216C121.523 45.978 121.738 46.188 122.001 46.188H123.589C123.852 46.188 124.065 45.978 124.065 45.7216L124.074 40.0099C124.073 39.9568 124.115 39.9148 124.168 39.9148H126.493C126.754 39.9148 126.968 39.7071 126.968 39.4484L126.97 38.2393C126.97 37.9807 126.758 37.7707 126.494 37.7707H126.494ZM136.72 37.7707C136.457 37.7707 136.243 37.9807 136.243 38.2393L136.235 45.7216C136.233 45.978 136.448 46.188 136.708 46.188H138.299C138.562 46.188 138.774 45.978 138.775 45.7216L138.784 38.2393C138.784 37.9807 138.572 37.7707 138.309 37.7707H136.72H136.72ZM148.685 38.2393L148.678 45.7216C148.675 45.978 148.89 46.188 149.151 46.188H155.372C155.635 46.188 155.847 45.978 155.85 45.7216L155.849 44.4506C155.851 44.192 155.637 43.9819 155.373 43.9819H151.504C151.345 43.9819 151.219 43.8582 151.217 43.7012L151.225 38.2392C151.227 37.9806 151.014 37.7706 150.751 37.7706H149.163C148.9 37.7706 148.685 37.9806 148.685 38.2392V38.2393ZM165.607 46.2034H172.703C172.861 46.2034 172.99 46.0775 172.989 45.9227L172.99 44.276C172.991 44.1211 172.862 43.9952 172.705 43.9952H167.774C167.721 43.9952 167.678 43.9532 167.677 43.9001L167.678 43.0911C167.678 43.0403 167.72 42.9961 167.774 42.9961H171.74C171.897 42.9961 172.027 42.8702 172.026 42.7176L172.029 41.2587C172.028 41.1039 171.901 40.9779 171.744 40.9779H167.776C167.725 40.9779 167.682 40.936 167.681 40.8829L167.683 40.0163C167.682 39.9634 167.725 39.9213 167.776 39.9213H172.709C172.866 39.9213 172.994 39.7953 172.995 39.6405L172.997 38.0513C172.999 37.8988 172.869 37.7706 172.712 37.7706H165.616C165.352 37.7706 165.138 37.9828 165.138 38.2392L165.129 45.7347C165.131 45.9934 165.343 46.2033 165.607 46.2033L165.607 46.2034Z" fill="black"/>
</svg>
