<svg width="285" height="103" viewBox="0 0 285 103" fill="none" xmlns="http://www.w3.org/2000/svg">
<path d="M34.6082 35.6623C33.4546 36.3241 31.9808 35.9267 31.3178 34.7752C30.6547 33.6237 31.053 32.1526 32.2066 31.4908L66.4905 11.7333C67.2633 11.2897 68.1798 11.3214 68.8993 11.7373L68.9013 11.7333L87.8455 22.6508C88.9991 23.3177 89.3932 24.7929 88.7251 25.9444C88.0559 27.0959 86.579 27.4893 85.4254 26.8224L67.6872 16.6004L34.6082 35.6634V35.6623ZM63.4946 27.8929C62.341 27.2311 61.9427 25.76 62.6058 24.6085C63.2688 23.4571 64.7426 23.0596 65.8962 23.7214L90.709 38.0206C91.8626 38.6824 92.2609 40.1535 91.5978 41.305C90.9348 42.4565 89.461 42.854 88.3074 42.1922L63.4946 27.8929Z" fill="white"/>
<path d="M53.6665 33.5559C52.5129 32.8941 52.1147 31.423 52.7777 30.2715C53.4407 29.12 54.9146 28.7225 56.0682 29.3843L90.3521 49.1418C91.1269 49.5864 91.5611 50.3958 91.5621 51.2276V73.0627C91.5621 74.3914 90.4824 75.4692 89.1512 75.4692C87.8201 75.4692 86.7404 74.3914 86.7404 73.0627V52.6157L53.6665 33.5559ZM74.8317 54.6319C74.8317 53.298 75.9155 52.2162 77.2529 52.2162C78.5892 52.2162 79.673 53.298 79.673 54.6319V83.2304C79.673 84.5642 78.5892 85.646 77.2529 85.646C75.9155 85.646 74.8317 84.5642 74.8317 83.2304V54.6319Z" fill="white"/>
<path d="M65.0045 48.9689C65.0045 47.634 66.0883 46.5532 67.4246 46.5532C68.7609 46.5532 69.8447 47.635 69.8447 48.9689V88.4839C69.8447 89.4602 69.2649 90.3013 68.4294 90.6824L49.6813 101.486C48.5276 102.148 47.0538 101.751 46.3908 100.599C45.7278 99.4476 46.126 97.9765 47.2796 97.3147L65.0035 87.1009V48.9689H65.0045ZM57.3111 77.8143C58.4647 77.1464 59.9426 77.5397 60.6108 78.6923C61.2799 79.8437 60.8858 81.3189 59.7312 81.9859L34.9184 96.2851C33.7648 96.9531 32.2868 96.5597 31.6187 95.4072C30.9505 94.2557 31.3436 92.7805 32.4983 92.1136L57.3111 77.8143Z" fill="white"/>
<path d="M57.3212 66.4868C58.4748 65.8251 59.9487 66.2225 60.6117 67.374C61.2747 68.5255 60.8765 69.9966 59.7229 70.6584L25.4379 90.4159C24.6651 90.8585 23.7486 90.8278 23.0291 90.4118L23.0271 90.4159L4.08287 79.4984C2.92927 78.8304 2.53515 77.3563 3.2033 76.2048C3.87145 75.0533 5.34938 74.6599 6.50299 75.3268L24.2423 85.5498L57.3212 66.4868ZM28.4338 74.2573C29.5874 74.9191 29.9857 76.3902 29.3226 77.5417C28.6596 78.6932 27.1858 79.0907 26.0322 78.4289L1.21938 64.1296C0.0657765 63.4678 -0.332444 61.9967 0.330572 60.8452C0.993588 59.6937 2.46741 59.2962 3.62102 59.958L28.4338 74.2573Z" fill="white"/>
<path d="M38.2619 68.5931C39.4155 69.2549 39.8137 70.726 39.1507 71.8775C38.4877 73.029 37.0139 73.4265 35.8603 72.7647L1.57638 53.0071C0.801492 52.5625 0.367349 51.7532 0.366323 50.9214L0.365295 29.0862C0.365295 27.7575 1.44501 26.6798 2.77617 26.6798C4.10734 26.6798 5.18705 27.7575 5.18705 29.0862V49.5332L38.2609 68.5931H38.2619ZM17.0967 47.5171C17.0967 48.852 16.0129 49.9338 14.6766 49.9338C13.3393 49.9338 12.2555 48.852 12.2555 47.5171V18.9186C12.2555 17.5847 13.3393 16.5029 14.6766 16.5029C16.0129 16.5029 17.0967 17.5847 17.0967 18.9186V47.5171Z" fill="white"/>
<path d="M26.925 53.1803C26.925 54.5141 25.8412 55.5959 24.5049 55.5959C23.1676 55.5959 22.0837 54.5141 22.0837 53.1803V13.6652C22.0837 12.6889 22.6636 11.8478 23.4991 11.4667L42.2472 0.662867C43.4008 0.00107253 44.8747 0.398559 45.5377 1.55004C46.2007 2.70152 45.8025 4.17263 44.6489 4.83443L26.925 15.0482V53.1803ZM34.6174 24.3348C33.4638 25.0017 31.9859 24.6094 31.3177 23.4569C30.6496 22.3054 31.0427 20.8302 32.1973 20.1633L57.0101 5.864C58.1637 5.19708 59.6417 5.59047 60.3098 6.74195C60.978 7.89343 60.5849 9.36864 59.4302 10.0356L34.6174 24.3348Z" fill="white"/>
<path d="M69.8458 41.5908V60.5595C69.8458 61.8934 69.503 63.1534 68.8605 64.2639L68.8564 64.2711L68.8605 64.2742C68.2283 65.3662 67.3046 66.2882 66.1314 66.9664L66.1335 66.9705L49.6761 76.4549C48.4989 77.1331 47.2324 77.4732 45.9649 77.4732C44.6963 77.4732 43.4308 77.1331 42.2526 76.4549L25.7952 66.9705C25.7429 66.9398 25.6916 66.908 25.6423 66.8742C24.5482 66.2083 23.6769 65.3171 23.0682 64.2649C22.4257 63.1544 22.0829 61.8944 22.0829 60.5605V41.5918C22.0829 40.258 22.4257 38.9979 23.0682 37.8874C23.7097 36.7779 24.6334 35.8508 25.7952 35.1819C25.8404 35.1562 25.8845 35.1317 25.9307 35.1091L42.2557 25.7016L42.2526 25.6975C43.4298 25.0193 44.6963 24.6792 45.9649 24.6792C47.2262 24.6792 48.4897 25.0183 49.6669 25.6975L66.1314 35.186L66.1335 35.1819C67.3004 35.8539 68.2242 36.7779 68.8605 37.8782C68.8923 37.9335 68.921 37.9878 68.9477 38.0442C69.5338 39.1157 69.8447 40.3205 69.8447 41.5929L69.8458 41.5908ZM65.0045 60.5595V41.5908C65.0045 41.1329 64.9091 40.7211 64.7315 40.3748L64.6812 40.2928C64.4647 39.9189 64.1373 39.5962 63.7134 39.3524L63.7154 39.3483L47.2652 29.8691C46.8516 29.6314 46.4083 29.5115 45.9649 29.5115C45.5277 29.5115 45.0863 29.6304 44.6737 29.8691L44.6717 29.865L28.3405 39.2756L28.2164 39.3534C27.7874 39.6003 27.4589 39.9199 27.2485 40.2846C27.0381 40.6493 26.9252 41.0929 26.9252 41.5918V60.5605C26.9252 61.0595 27.0381 61.5041 27.2485 61.8677C27.4466 62.2099 27.7381 62.508 28.1117 62.7416L28.2164 62.7979L44.6737 72.2823C45.0863 72.52 45.5277 72.6398 45.9649 72.6398C46.4021 72.6398 46.8424 72.521 47.256 72.2823L63.7134 62.7979L63.7154 62.802L63.7226 62.7979C64.1373 62.5592 64.4616 62.2365 64.6812 61.8575L64.6853 61.8595C64.8937 61.4969 65.0045 61.0554 65.0045 60.5595Z" fill="white"/>
<path d="M51.0779 32.0358C49.9869 31.2746 49.7201 29.7748 50.4826 28.6859C51.2452 27.5958 52.7478 27.3305 53.8398 28.0906L54.0204 28.2177C54.0728 28.2556 54.122 28.2966 54.1703 28.3386L54.2082 28.3693C54.7953 28.8385 55.3085 29.3958 55.7221 30.0248L55.7262 30.0217C56.1285 30.6364 56.4416 31.3248 56.6427 32.0727C57.004 33.4178 56.9506 34.7793 56.5627 36.0209C56.184 37.2349 55.4799 38.3341 54.5244 39.1936C54.4792 39.2387 54.433 39.2817 54.3848 39.3227L51.3314 42.3633L57.5818 45.8935C57.6547 45.9304 57.7255 45.9704 57.7933 46.0134L57.9164 46.0831C58.7898 46.5287 59.574 47.1597 60.2082 47.9424C60.824 48.7015 61.291 49.5908 61.5558 50.5763C61.9027 51.8671 61.8699 53.1692 61.5261 54.3647C61.1904 55.5356 60.5531 56.6072 59.6797 57.4698C59.6171 57.5395 59.5504 57.605 59.4806 57.6665L48.5777 68.7531C48.5398 68.792 48.4997 68.8299 48.4597 68.8658C48.1097 69.2889 47.8521 69.673 47.7741 69.9619C47.6971 70.2498 47.6776 70.5377 47.7084 70.8122C47.7402 71.096 47.8265 71.3706 47.9589 71.6205C48.5808 72.7986 48.1272 74.2564 46.9469 74.8773C45.7666 75.497 44.3061 75.0453 43.6852 73.8671C43.2736 73.0886 43.0057 72.2321 42.9052 71.3409C42.8087 70.4834 42.8682 69.5952 43.1032 68.7162C43.6677 66.613 45.8928 64.4863 47.3728 63.0725L47.8778 62.5869L56.0988 54.2264C56.1439 54.1783 56.1901 54.1301 56.2394 54.085C56.5401 53.8054 56.7597 53.4437 56.8747 53.0442C56.9855 52.658 56.9968 52.2379 56.8849 51.823C56.7977 51.4973 56.652 51.2145 56.4641 50.983C56.265 50.7371 56.0095 50.5343 55.718 50.3857C55.6492 50.3509 55.5835 50.313 55.5199 50.2731C55.3495 50.23 55.1669 50.2044 54.9801 50.1983C54.7224 50.1901 54.4535 50.2198 54.1949 50.2884C53.9722 50.3478 53.769 50.4329 53.5914 50.5394C53.4139 50.646 53.2455 50.7822 53.0947 50.9451C53.0505 50.9922 53.0043 51.0383 52.9571 51.0813L48.1764 55.7395C48.0225 55.8901 47.8388 56.0827 47.654 56.2753C46.6646 57.312 45.6578 58.3662 43.9315 58.8282C42.3294 59.2564 40.7006 58.9942 39.3632 58.2238L39.2442 58.15L24.3561 49.4135C23.2076 48.7415 22.8227 47.2663 23.496 46.1199C24.1693 44.9736 25.6472 44.5884 26.7957 45.2614L36.6865 51.065C36.8395 50.6275 37.0417 50.2085 37.29 49.8172C37.3701 49.6707 37.4676 49.5313 37.5805 49.4012C38.6325 48.0203 41.5216 45.2287 43.6605 43.1634C44.2332 42.6102 44.7505 42.1113 45.1487 41.7199L51.0389 35.8549C51.1046 35.7843 51.1764 35.7156 51.2524 35.6521C51.5808 35.3735 51.823 35.0036 51.9524 34.5898C52.0765 34.1933 52.0919 33.7559 51.9749 33.3215C51.9113 33.0828 51.8107 32.8625 51.6824 32.6669L51.6865 32.6638L51.6824 32.6576C51.5511 32.4568 51.3971 32.2847 51.2247 32.1444L51.1487 32.0901L51.081 32.0378L51.0779 32.0358ZM47.7833 45.8966L47.0136 46.6629C46.9171 46.7582 46.8155 46.8442 46.7077 46.92C44.6684 48.8911 42.0779 51.4061 41.4303 52.2963L41.3728 52.3793C41.2907 52.5084 41.2322 52.6569 41.2045 52.8157C41.1758 52.9817 41.1819 53.1569 41.2281 53.33C41.3061 53.621 41.4796 53.8555 41.7023 54.0072L41.7813 54.0502C42.041 54.1998 42.3612 54.2489 42.6804 54.1639C43.1032 54.0512 43.6328 53.496 44.1532 52.951C44.3595 52.7358 44.5647 52.5197 44.808 52.283L49.5805 47.632C49.7303 47.4732 49.8874 47.3216 50.0516 47.1772L47.7833 45.8956V45.8966Z" fill="white"/>
<path d="M69.1046 41.9171V60.2312C69.1046 61.5395 68.77 62.7739 68.1419 63.8588C68.1101 63.9131 68.0773 63.9653 68.0413 64.0166C67.4204 65.0257 66.5542 65.8729 65.4786 66.4916C65.4344 66.5173 65.3893 66.5418 65.3431 66.5644L49.5867 75.6451L49.5888 75.6492C48.4393 76.312 47.2025 76.6439 45.9637 76.6439C44.7249 76.6439 43.4882 76.312 42.3387 75.6492L42.2145 75.5713L26.452 66.4875L26.4499 66.4916C25.3179 65.8391 24.4178 64.9365 23.7907 63.8557L23.7866 63.8578C23.1595 62.7729 22.8239 61.5384 22.8239 60.2302V41.9161C22.8239 40.6069 23.1584 39.3734 23.7866 38.2885C23.8184 38.2343 23.8512 38.181 23.8871 38.1308C24.5081 37.1207 25.3743 36.2745 26.4499 35.6557C26.494 35.6301 26.5392 35.6055 26.5844 35.583L42.3418 26.5023L42.3397 26.4982C43.4892 25.8353 44.726 25.5034 45.9648 25.5034C47.2036 25.5034 48.4403 25.8353 49.5908 26.4982L49.715 26.576L65.4775 35.6598L65.4796 35.6557C66.6106 36.3073 67.5117 37.2108 68.1378 38.2916L68.1419 38.2896C68.769 39.3745 69.1046 40.6089 69.1046 41.9171ZM64.2634 60.2312V41.9171C64.2634 41.4561 64.1587 41.0443 63.9627 40.7052L63.9668 40.7032L63.9627 40.696C63.7666 40.3559 63.4598 40.0588 63.0585 39.8273L63.0605 39.8232L47.3031 30.7425C47.2579 30.7199 47.2128 30.6964 47.1687 30.6697C46.7827 30.4474 46.3722 30.3368 45.9637 30.3368C45.5563 30.3368 45.1447 30.4484 44.7588 30.6697L44.7568 30.6656L28.9942 39.7494L28.87 39.8273C28.5016 40.0393 28.2142 40.3067 28.0171 40.612L27.9658 40.7052C27.7698 41.0443 27.6651 41.4561 27.6651 41.9171V60.2312C27.6651 60.6922 27.7698 61.1041 27.9658 61.4432L27.9617 61.4452L27.9658 61.4524C28.1619 61.7915 28.4687 62.0896 28.87 62.3211L28.868 62.3252L44.6244 71.4059C44.6695 71.4285 44.7147 71.453 44.7598 71.4787C45.1457 71.701 45.5563 71.8126 45.9648 71.8126C46.3732 71.8126 46.7838 71.701 47.1697 71.4787L47.1717 71.4828L62.9343 62.399L63.0585 62.3211C63.4269 62.109 63.7143 61.8406 63.9113 61.5364L63.9627 61.4432C64.1587 61.1041 64.2634 60.6922 64.2634 60.2312Z" fill="white"/>
<path d="M91.9294 31.8307V70.3182H91.9191C91.9191 72.6068 91.3454 74.7438 90.2708 76.6022C89.1931 78.4646 87.6228 80.0321 85.6338 81.1794L52.2479 100.419L52.251 100.423C50.2548 101.573 48.1108 102.148 45.9647 102.148C43.8186 102.148 41.6746 101.572 39.6783 100.423L39.5542 100.345L6.28839 81.1743L6.28634 81.1784C4.30858 80.0382 2.74341 78.4739 1.66267 76.6083L1.65857 76.6104C0.57783 74.7418 0 72.6017 0 70.3172V31.8297C0 29.5451 0.576804 27.4061 1.65857 25.5365C2.73007 23.6853 4.29729 22.122 6.28839 20.9736L6.28634 20.9695L39.6783 1.72517C39.7276 1.69649 39.7779 1.66985 39.8282 1.64527C41.7844 0.548081 43.874 0 45.9637 0C48.1036 0 50.2445 0.575741 52.2397 1.72517L52.2469 1.72927L52.25 1.72517L85.643 20.9695C85.6913 20.9971 85.7374 21.0258 85.7826 21.0565C87.707 22.1978 89.225 23.7304 90.2708 25.5365C90.2995 25.5867 90.3272 25.6379 90.3519 25.6881C91.3803 27.5229 91.9294 29.6097 91.9294 31.8297V31.8307ZM87.0973 70.3182H87.0881V31.8307C87.0881 30.4384 86.7648 29.1579 86.1583 28.0607L86.0926 27.9531C85.4542 26.8488 84.5243 25.9094 83.344 25.2066L83.2229 25.141L49.8299 5.89673L49.8319 5.89263C48.6024 5.18576 47.2835 4.83233 45.9647 4.83233C44.6859 4.83233 43.407 5.16425 42.2093 5.82912L42.0995 5.89673L8.70645 25.141L8.7044 25.1369L8.69721 25.141C7.46458 25.851 6.49674 26.815 5.83783 27.9531C5.18815 29.0759 4.84125 30.3934 4.84125 31.8307V70.3182C4.84125 71.7545 5.18815 73.0719 5.83783 74.1958L5.83372 74.1978L5.83783 74.205C6.4875 75.3288 7.45945 76.2887 8.70645 77.0079L8.7044 77.012L41.964 96.1794C42.0092 96.202 42.0543 96.2266 42.0995 96.2522C43.3311 96.9621 44.6499 97.3176 45.9647 97.3176C47.2804 97.3176 48.5983 96.9621 49.8299 96.2522L49.8319 96.2563L83.2322 77.0089C84.4699 76.2959 85.4388 75.335 86.0915 74.206C86.7474 73.0719 87.0973 71.7504 87.0973 70.3193V70.3182Z" fill="white"/>
<path d="M111.349 55.8465H117.017C117.957 55.8465 118.711 55.0971 118.717 54.1822L118.686 44.7562C118.684 44.5747 118.838 44.4248 119.028 44.4248H133.158C133.719 44.4248 134.173 43.9751 134.174 43.423L134.161 38.2249C134.155 37.6805 133.7 37.2229 133.14 37.2229H119.009C118.82 37.2229 118.666 37.0732 118.665 36.8916L118.658 33.7996C118.655 33.6103 118.809 33.4604 118.998 33.4604H136.563C137.123 33.4604 137.577 33.0107 137.579 32.4587L137.56 26.8029C137.563 26.2586 137.101 25.8091 136.541 25.8091H111.264C110.333 25.8091 109.57 26.5585 109.573 27.4815L109.639 54.182C109.649 55.0969 110.41 55.8463 111.349 55.8463V55.8465Z" fill="white"/>
<path d="M133.23 55.121C133.49 55.547 133.958 55.8151 134.471 55.8151H141.709C142.238 55.8151 142.728 55.5155 142.976 55.0578L143.812 53.4644L144.238 52.5572H158.748L159.969 55.0419C160.198 55.5152 160.646 55.8071 161.12 55.8071H167.972C168.422 55.8071 168.832 55.5469 169.054 55.1209C169.268 54.6948 169.266 54.1664 169.043 53.7246L155.605 27.3709C154.763 25.7933 153.27 25.8327 153.27 25.8327C152.481 25.8327 151.783 25.8169 151.16 25.8169C150.97 25.8169 150.822 25.825 150.647 25.8169C150.576 25.8169 150.489 25.8169 150.418 25.8169C149.919 25.8091 149.469 25.8091 149.054 25.825L149.058 25.8486C149.05 25.8486 149.042 25.8486 149.036 25.8567L149.03 25.8252C147.502 25.8884 146.427 26.1801 145.761 27.3711L133.187 53.7248C132.953 54.1666 132.963 54.695 133.23 55.121ZM151.318 37.5703L155.233 45.4028H147.623L151.318 37.5703Z" fill="white"/>
<path d="M198.387 25.8093H172.455C171.524 25.8093 170.761 26.5587 170.765 27.4817L170.774 31.7963C170.778 32.7193 171.537 33.4606 172.477 33.4606H185.549C185.873 33.4606 186.016 33.855 185.768 34.0523L172.29 46.5626C171.206 47.4541 170.588 48.7713 170.59 50.1595L170.595 54.1507C170.599 55.0737 171.358 55.8151 172.298 55.8151H198.467C199.398 55.8151 200.162 55.0737 200.159 54.1507L200.144 49.6388C200.141 48.7158 199.38 47.9666 198.44 47.9666H185.328C185.012 47.9666 184.871 47.58 185.111 47.3828L198.414 34.8646C199.482 33.9732 200.102 32.6639 200.102 31.2835L200.09 27.4736C200.088 26.5588 199.327 25.8093 198.387 25.8093H198.387Z" fill="white"/>
<path d="M227.984 25.8093H210.649C206.244 25.8093 202.68 29.3195 202.692 33.6499L202.731 48.1086C202.734 52.4313 206.322 55.9413 210.727 55.9413H228.063C232.468 55.9413 236.032 52.4311 236.02 48.1086L235.99 33.6499C235.977 29.3195 232.397 25.8093 227.984 25.8093ZM226.911 47.0753C226.917 47.6274 226.463 48.0771 225.894 48.0771H212.837C212.277 48.0771 211.816 47.6274 211.817 47.0753L211.79 34.5729C211.782 34.0127 212.238 33.5711 212.806 33.5711H225.855C226.423 33.5711 226.875 34.0127 226.883 34.5729L226.91 47.0753H226.911Z" fill="white"/>
<path d="M248.554 35.2195H239.871C238.996 35.2195 238.291 35.9302 238.298 36.797L238.334 41.5616C238.341 42.4285 239.05 43.1392 239.926 43.1392H248.609C249.485 43.1392 250.188 42.4299 250.183 41.5616L250.155 36.805C250.15 35.9317 249.43 35.2197 248.554 35.2197L248.554 35.2195Z" fill="white"/>
<path d="M260.277 55.8699C261.216 55.8699 261.972 55.1286 261.976 54.2056L261.962 48.6602C261.96 48.4788 262.106 48.3287 262.296 48.3287L269.155 48.321C269.494 48.321 269.809 48.4867 270.001 48.7626L274.736 55.6409C275.245 56.3903 275.948 56.4772 277.994 56.4457C279.205 56.4612 281.019 56.3667 283.971 56.3667C284.926 56.3667 285.32 55.3728 284.703 54.5444L279.705 47.8239C279.581 47.666 279.643 47.4452 279.816 47.3506C282.304 46.0253 283.987 43.4538 283.979 40.4801L283.966 33.6489C283.953 29.3184 280.372 25.8083 275.967 25.8083H254.535C253.595 25.8083 252.841 26.5576 252.844 27.4807L252.914 54.2053C252.909 55.1282 253.677 55.8696 254.609 55.8696H260.277L260.277 55.8699ZM261.928 33.6651C261.926 33.4836 262.079 33.3261 262.26 33.3261H273.352C274.196 33.3261 274.872 33.9963 274.872 34.8167L274.884 39.3129C274.883 40.1255 274.208 40.796 273.371 40.796H262.288C262.099 40.796 261.945 40.6463 261.942 40.4568L261.928 33.6652L261.928 33.6651Z" fill="white"/>
<path d="M122.513 62.2232H110.356C109.923 62.2232 109.573 62.5693 109.573 62.9953L109.57 64.9871C109.57 65.4133 109.919 65.7556 110.353 65.7556H114.18C114.267 65.7556 114.338 65.8246 114.339 65.9121L114.328 75.3216C114.323 75.744 114.677 76.0899 115.111 76.0899H117.727C118.161 76.0899 118.511 75.744 118.511 75.3216L118.526 65.9121C118.525 65.8248 118.593 65.7556 118.68 65.7556H122.51C122.94 65.7556 123.294 65.4133 123.294 64.9871L123.297 62.9953C123.297 62.5693 122.947 62.2232 122.513 62.2232H122.513ZM139.348 76.1152H151.039C151.298 76.1152 151.512 75.9078 151.51 75.6527L151.511 72.9399C151.513 72.6849 151.3 72.4774 151.041 72.4774H142.918C142.831 72.4774 142.76 72.4082 142.759 72.3207L142.76 70.988C142.76 70.9042 142.83 70.8314 142.918 70.8314H149.452C149.711 70.8314 149.925 70.624 149.923 70.3727L149.929 67.9692C149.927 67.7143 149.718 67.5067 149.459 67.5067H142.922C142.838 67.5067 142.767 67.4377 142.766 67.3502L142.768 65.9226C142.767 65.8354 142.838 65.766 142.922 65.766H151.049C151.308 65.766 151.518 65.5584 151.52 65.3035L151.523 62.6854C151.525 62.4341 151.312 62.2229 151.054 62.2229H139.363C138.929 62.2229 138.576 62.5725 138.576 62.9949L138.561 75.343C138.564 75.7692 138.914 76.1151 139.348 76.1151L139.348 76.1152ZM180.448 62.2232H176.617C176.37 62.2232 176.132 62.3435 175.986 62.54L173.929 65.3146C173.86 65.4131 173.692 65.3912 173.605 65.271L171.587 62.5398C171.439 62.3432 171.202 62.2231 170.95 62.2231H167.12C166.738 62.2231 166.516 62.6529 166.742 62.9588L171 68.7267C171.121 68.8905 171.12 69.109 171.003 69.2694L166.513 75.3324C166.288 75.6384 166.51 76.0644 166.892 76.0644H170.726C170.974 76.0644 171.211 75.9441 171.358 75.7476L173.628 72.6816C173.701 72.5833 173.865 72.605 173.956 72.7253L176.187 75.7476C176.331 75.9443 176.568 76.0644 176.819 76.0644H180.649C181.032 76.0644 181.258 75.6384 181.032 75.3324L176.553 69.2694C176.437 69.109 176.434 68.8906 176.554 68.7267L180.827 62.9588C181.057 62.6529 180.834 62.2231 180.448 62.2231V62.2232ZM208.387 62.2232H196.23C195.796 62.2232 195.446 62.5693 195.446 62.9953L195.443 64.9871C195.443 65.4133 195.793 65.7556 196.226 65.7556H200.053C200.14 65.7556 200.211 65.8246 200.212 65.9121L200.201 75.3216C200.197 75.744 200.551 76.0899 200.984 76.0899H203.601C204.034 76.0899 204.384 75.744 204.385 75.3216L204.4 65.9121C204.399 65.8248 204.466 65.7556 204.554 65.7556H208.384C208.814 65.7556 209.168 65.4133 209.168 64.9871L209.171 62.9953C209.171 62.5693 208.821 62.2232 208.387 62.2232H208.387ZM225.233 62.2232C224.799 62.2232 224.446 62.5693 224.446 62.9953L224.434 75.3216C224.43 75.744 224.783 76.0899 225.213 76.0899H227.834C228.267 76.0899 228.617 75.744 228.618 75.3216L228.633 62.9953C228.633 62.5693 228.283 62.2232 227.849 62.2232H225.233H225.233ZM244.944 62.9953L244.932 75.3216C244.927 75.744 245.281 76.0899 245.711 76.0899H255.959C256.393 76.0899 256.742 75.744 256.747 75.3216L256.746 73.2277C256.749 72.8017 256.396 72.4557 255.962 72.4557H249.588C249.326 72.4557 249.118 72.2518 249.115 71.9932L249.127 62.9951C249.131 62.5691 248.781 62.2231 248.347 62.2231H245.731C245.297 62.2231 244.944 62.5691 244.944 62.9951V62.9953ZM272.821 76.1154H284.512C284.77 76.1154 284.984 75.908 284.982 75.6529L284.983 72.9401C284.985 72.685 284.772 72.4776 284.514 72.4776H276.391C276.303 72.4776 276.232 72.4084 276.231 72.3208L276.232 70.9882C276.232 70.9044 276.302 70.8316 276.39 70.8316H282.924C283.183 70.8316 283.397 70.6242 283.396 70.3729L283.401 67.9694C283.399 67.7145 283.19 67.5069 282.932 67.5069H276.394C276.31 67.5069 276.239 67.4379 276.238 67.3503L276.24 65.9227C276.239 65.8356 276.311 65.7662 276.395 65.7662H284.521C284.78 65.7662 284.991 65.5586 284.992 65.3037L284.995 62.6856C284.998 62.4343 284.785 62.2231 284.526 62.2231H272.835C272.401 62.2231 272.049 62.5727 272.048 62.9951L272.033 75.3432C272.036 75.7694 272.386 76.1152 272.82 76.1152L272.821 76.1154Z" fill="white"/>
</svg>
