<svg width="128" height="28" viewBox="0 0 128 28" fill="none" xmlns="http://www.w3.org/2000/svg">
<g clip-path="url(#clip0)">
<path d="M3.32987 14.5443C3.77386 15.2411 4.43983 15.8507 5.37219 16.2862C6.26016 16.7216 7.23692 16.9393 8.30247 16.9393C8.83525 16.9393 9.36803 16.8958 9.85641 16.7652C10.3448 16.6345 10.7444 16.4603 11.144 16.2426C11.4991 16.0249 11.8099 15.7636 11.9875 15.4588C12.2095 15.154 12.2983 14.8491 12.2983 14.5008C12.2983 13.9782 12.0319 13.4992 11.4547 13.1509C10.8776 12.8025 10.1672 12.4541 9.27923 12.1493C8.39127 11.8445 7.45891 11.5397 6.48215 11.2348C5.46099 10.93 4.52863 10.5381 3.68506 10.1026C2.7971 9.62364 2.08672 9.10109 1.50955 8.40435C0.932372 7.75117 0.665983 6.88025 0.665983 5.87869C0.665983 5.05132 0.887974 4.2675 1.28756 3.52722C1.68714 2.83048 2.26432 2.17729 2.97469 1.65474C3.59626 1.13219 4.43983 0.74028 5.41659 0.435459C6.39335 0.130638 7.45891 0 8.61326 0C10.478 0 12.1207 0.391913 13.5859 1.13219C15.0066 1.87247 15.9834 2.91757 16.5161 4.1804L13.4971 5.92224C13.1419 5.22551 12.5647 4.70295 11.7211 4.31104C10.922 3.91913 9.94521 3.74495 8.87965 3.74495C7.76969 3.74495 6.88173 3.91913 6.17136 4.31104C5.46099 4.70295 5.1058 5.18196 5.0614 5.74806C5.0614 6.18351 5.37219 6.53188 5.94937 6.8367C6.52654 7.14152 7.28131 7.4028 8.12488 7.70762C9.01284 7.9689 9.94521 8.27372 10.9664 8.62208C11.9875 8.9269 12.9199 9.36236 13.8078 9.84137C14.6958 10.3204 15.4062 10.93 15.9834 11.6703C16.5605 12.4106 16.8713 13.325 16.8713 14.4137C16.8713 15.2846 16.6493 16.1555 16.2497 16.9393C15.8058 17.7232 15.2286 18.3764 14.4738 18.986C13.7191 19.5521 12.8311 19.9876 11.8099 20.3359C10.7888 20.6407 9.67882 20.8149 8.43567 20.8149C6.57094 20.8149 4.88381 20.423 3.41867 19.6827C1.95353 18.8989 0.843576 17.8538 0.0888062 16.5474L3.32987 14.5443Z" fill="white"/>
<path d="M32.5439 20.6841C31.2563 20.6841 30.0576 20.4664 28.9032 19.9874C27.7933 19.5084 26.8165 18.8116 25.973 17.8972V27.9998H21.4443V0.478827H26.0174V2.9174C26.9053 1.95939 27.8821 1.26265 29.0364 0.783648C30.1464 0.304643 31.3451 0.0869141 32.5883 0.0869141C33.9646 0.0869141 35.2522 0.348189 36.4509 0.914286C37.6497 1.48038 38.7152 2.22066 39.6476 3.13513C40.58 4.09314 41.2903 5.18178 41.8231 6.44461C42.3559 7.70744 42.6223 9.05737 42.6223 10.4944C42.6223 11.8878 42.3559 13.1942 41.8231 14.4571C41.2903 15.6763 40.58 16.765 39.692 17.723C38.804 18.6375 37.7385 19.3777 36.4953 19.9003C35.2522 20.4228 33.9646 20.6841 32.5439 20.6841ZM26.0174 10.3637C26.0174 11.2347 26.1949 12.0185 26.5057 12.8023C26.8165 13.5426 27.2605 14.1958 27.7933 14.7619C28.3261 15.328 28.992 15.7634 29.7024 16.0683C30.4128 16.3731 31.2119 16.5473 32.0555 16.5473C32.8991 16.5473 33.6982 16.3731 34.453 16.0683C35.1634 15.7634 35.8294 15.328 36.3621 14.7619C36.8949 14.1958 37.3389 13.5426 37.6497 12.7588C37.9605 11.9749 38.1381 11.1911 38.1381 10.3202C38.1381 9.44928 38.0049 8.66545 37.6941 7.88163C37.3833 7.14135 36.9837 6.48816 36.4509 5.92206C35.9182 5.35597 35.2966 4.96405 34.5418 4.65923C33.8314 4.35441 33.0323 4.18023 32.1443 4.18023C31.3007 4.18023 30.5016 4.35441 29.7468 4.65923C28.992 4.96405 28.3705 5.39951 27.8377 5.96561C27.3049 6.5317 26.8609 7.18489 26.5501 7.92517C26.1505 8.66545 26.0174 9.49282 26.0174 10.3637Z" fill="white"/>
<path d="M55.5865 0.0869141C56.8741 0.0869141 58.0728 0.304643 59.2272 0.783648C60.3371 1.26265 61.3139 1.95939 62.1575 2.87385V0.435281H66.7305V20.3357H62.1575V17.8536C61.2695 18.8116 60.2927 19.5084 59.1384 19.9874C58.0284 20.4664 56.8297 20.7277 55.5865 20.7277C54.2546 20.7277 52.967 20.4664 51.7239 19.9003C50.4807 19.3342 49.4152 18.5939 48.5272 17.6359C47.5949 16.6779 46.8845 15.5892 46.3517 14.3264C45.8189 13.0636 45.5526 11.7137 45.5526 10.2766C45.5526 8.88318 45.8189 7.57681 46.3517 6.31397C46.8845 5.09469 47.5949 4.00604 48.5272 3.04803C49.4152 2.13357 50.4807 1.39329 51.7239 0.87074C52.9226 0.348189 54.2102 0.0869141 55.5865 0.0869141ZM62.1575 10.4073C62.1575 9.53637 61.9799 8.75254 61.6691 7.96872C61.3583 7.22844 60.9143 6.57525 60.3815 6.00915C59.8488 5.44306 59.1828 5.0076 58.4724 4.70278C57.762 4.39796 56.9629 4.22377 56.1193 4.22377C55.2758 4.22377 54.4766 4.39796 53.7218 4.70278C53.0114 5.0076 52.3455 5.44306 51.8127 6.00915C51.2799 6.57525 50.8359 7.22844 50.5251 7.96872C50.2144 8.709 50.0368 9.53637 50.0368 10.4508C50.0368 11.3218 50.17 12.1491 50.4807 12.8894C50.7915 13.6297 51.1911 14.2829 51.7239 14.849C52.2567 15.4151 52.8783 15.807 53.633 16.1118C54.3434 16.4166 55.1426 16.5908 56.0305 16.5908C56.9185 16.5908 57.6733 16.4166 58.428 16.1118C59.1828 15.807 59.8044 15.3715 60.3371 14.8054C60.8699 14.2393 61.3139 13.5861 61.6247 12.8459C61.9799 12.062 62.1575 11.2782 62.1575 10.4073Z" fill="white"/>
<path d="M86.3101 6.74977C85.7329 5.96594 84.9782 5.3563 84.0902 4.87729C83.2022 4.39829 82.2255 4.18056 81.2931 4.18056C80.494 4.18056 79.7392 4.35474 78.9844 4.65956C78.274 5.00793 77.6081 5.44339 77.0753 6.00949C76.5425 6.57558 76.0985 7.22877 75.7877 8.0126C75.477 8.75288 75.2994 9.58025 75.2994 10.4076C75.2994 11.235 75.477 12.0624 75.7877 12.8026C76.0985 13.5429 76.5425 14.1961 77.0753 14.7622C77.6081 15.3283 78.274 15.7638 78.9844 16.0686C79.7392 16.3734 80.5383 16.5476 81.3819 16.5476C82.3587 16.5476 83.2466 16.3299 84.0902 15.9379C84.9338 15.5025 85.6885 14.8928 86.2657 14.0655L89.2404 16.9395C87.0649 19.4216 84.4454 20.6844 81.2931 20.6844C79.828 20.6844 78.4072 20.4232 77.1197 19.9006C75.8321 19.3781 74.7222 18.6378 73.7454 17.7233C72.7687 16.8089 72.0139 15.7202 71.4811 14.4574C70.9483 13.1946 70.6819 11.8882 70.6819 10.4512C70.6819 9.01415 70.9483 7.66423 71.4811 6.4014C72.0139 5.13857 72.7687 4.04992 73.701 3.09191C74.6334 2.1339 75.7877 1.39362 77.0753 0.871073C78.3628 0.304976 79.7392 0.0437012 81.2043 0.0437012C82.7583 0.0437012 84.2234 0.348522 85.5997 1.00171C86.9761 1.6549 88.1748 2.56936 89.2404 3.78865L86.3101 6.74977Z" fill="white"/>
<path d="M110.241 17.0698C109.397 18.1585 108.287 19.0294 106.822 19.6826C105.401 20.3357 103.847 20.6406 102.249 20.6406C100.828 20.6406 99.4519 20.3793 98.2088 19.8567C96.9212 19.3342 95.8113 18.5939 94.8345 17.6359C93.8578 16.6779 93.103 15.5892 92.5702 14.3264C92.0374 13.0636 91.7711 11.7572 91.7711 10.3202C91.7711 8.88318 92.0375 7.57681 92.6146 6.31398C93.1918 5.09469 93.9466 4.00604 94.9233 3.04803C95.9001 2.13357 97.0544 1.39329 98.342 0.87074C99.6295 0.348189 101.05 0.0869141 102.515 0.0869141C104.114 0.0869141 105.623 0.391735 106.955 1.04492C108.287 1.65457 109.442 2.52548 110.374 3.61413C111.306 4.70278 112.017 5.96561 112.461 7.44617C112.949 8.92673 113.082 10.5379 112.949 12.2362H96.7881C96.9656 12.8894 97.1876 13.4555 97.5872 13.978C97.9424 14.5006 98.3864 14.9796 98.9192 15.3715C99.4519 15.7634 100.029 16.0683 100.695 16.286C101.361 16.5037 102.027 16.5908 102.737 16.5908C103.714 16.5908 104.647 16.3731 105.446 15.9812C106.245 15.5892 106.955 14.9796 107.577 14.2393L110.241 17.0698ZM108.065 8.57836C107.71 7.27198 107 6.22688 105.978 5.39951C104.957 4.57214 103.759 4.18023 102.382 4.18023C101.05 4.18023 99.8959 4.57214 98.8748 5.35597C97.8536 6.13979 97.1432 7.22844 96.6993 8.57836H108.065Z" fill="white"/>
<path d="M123.915 20.684C126.196 20.684 128.044 18.8709 128.044 16.6342C128.044 14.3976 126.196 12.5845 123.915 12.5845C121.635 12.5845 119.786 14.3976 119.786 16.6342C119.786 18.8709 121.635 20.684 123.915 20.684Z" fill="#FF0000"/>
</g>
<defs>
<clipPath id="clip0">
<rect width="128" height="28" fill="white"/>
</clipPath>
</defs>
</svg>
