<svg width="23" height="23" viewBox="0 0 23 23" fill="none" xmlns="http://www.w3.org/2000/svg">
<path d="M22.0974 15.747C22.6663 15.9877 22.9487 16.4187 22.9487 17.0445C22.9487 17.1631 22.9334 17.27 22.9029 17.3575L21.876 21.876C21.815 22.1737 21.6588 22.4256 21.4069 22.6358C21.1515 22.846 20.8609 22.9487 20.5333 22.9487H20.4875C17.7473 22.9487 15.1064 22.4103 12.5724 21.3382C10.0383 20.2655 7.86302 18.8118 6.04292 16.98C4.22634 15.144 2.77261 12.9693 1.68466 10.4505C0.5973 7.92761 0.0512695 5.28318 0.0512695 2.51252V2.46673C0.0512695 2.25653 0.0970657 2.05456 0.185135 1.86374C0.276727 1.6694 0.402373 1.51264 0.566769 1.39463C0.730578 1.2725 0.917872 1.18502 1.12395 1.12396L5.6425 0.0970673C5.7611 0.0665366 5.86385 0.0512695 5.95544 0.0512695C6.58132 0.0512695 7.01227 0.333679 7.25299 0.902606L9.3097 5.72998C9.39719 5.90905 9.44357 6.10399 9.44357 6.31359C9.44357 6.72987 9.26391 7.08861 8.90517 7.38628L6.49325 9.3514C8.07321 12.5419 10.4581 14.9274 13.6486 16.5067L15.6137 14.0948C15.9114 13.7361 16.2701 13.5564 16.6864 13.5564C16.896 13.5564 17.0909 13.6022 17.27 13.6903L22.0974 15.747ZM20.4869 21.5173L21.5173 17.0445L16.6858 14.9872L14.049 18.254C11.7246 17.1778 9.85867 15.9413 8.45837 14.541C7.05806 13.1407 5.82157 11.2742 4.74537 8.95039L8.01215 6.31359L5.95485 1.4827L1.4821 2.51311C1.4821 4.56982 1.80268 6.56605 2.44382 8.50475C3.08496 10.4434 3.99325 12.1872 5.17221 13.7367C6.34764 15.2861 7.71389 16.6523 9.26332 17.8278C10.8128 19.0067 12.5571 19.915 14.4952 20.5562C16.4339 21.1973 18.4302 21.5179 20.4869 21.5179V21.5173Z" fill="white"/>
</svg>
