<svg width="110" height="141" viewBox="0 0 110 141" fill="none" xmlns="http://www.w3.org/2000/svg">
<path d="M37.1758 104.334C34.6904 103.53 32.4103 102.193 30.4944 100.417C28.5785 98.6416 27.0728 96.4694 26.0824 94.0521C25.7259 93.2157 25.143 92.4956 24.3993 91.9726C23.6556 91.4497 22.7806 91.1448 21.873 91.0923C19.2544 90.9124 16.7049 90.1722 14.397 88.9219L0.146482 126.412C-0.00439406 126.803 -0.0396207 127.23 0.044991 127.641C0.129603 128.052 0.330492 128.43 0.623771 128.73C0.91705 129.031 1.29038 129.24 1.69936 129.335C2.10834 129.429 2.53577 129.403 2.93081 129.262L20.1849 123.057L28.9544 139.171C29.1469 139.515 29.4267 139.801 29.7655 140.001C30.1044 140.201 30.4901 140.308 30.8837 140.311H31.0372C31.4529 140.283 31.8517 140.136 32.1861 139.887C32.5204 139.638 32.7761 139.298 32.9226 138.908L45.8358 104.97C44.8442 105.146 43.8392 105.234 42.8322 105.233C40.9114 105.231 39.0028 104.928 37.1758 104.334Z" fill="white"/>
<path d="M109.853 126.412L95.6029 88.9219C93.3028 90.1721 90.7604 90.9123 88.1487 91.0923C87.2375 91.1414 86.3581 91.4447 85.6103 91.9677C84.8625 92.4908 84.2761 93.2129 83.9174 94.0521C82.927 96.4694 81.4214 98.6416 79.5054 100.417C77.5895 102.193 75.3094 103.53 72.824 104.334C70.9971 104.928 69.0885 105.231 67.1676 105.233C66.1607 105.234 65.1556 105.146 64.1641 104.97L77.0772 138.908C77.2238 139.298 77.4795 139.638 77.8138 139.887C78.1481 140.136 78.5469 140.283 78.9627 140.311H79.1161C79.5097 140.308 79.8955 140.201 80.2343 140.001C80.5731 139.801 80.853 139.515 81.0454 139.171L89.815 123.057L107.069 129.262C107.464 129.403 107.891 129.429 108.3 129.335C108.709 129.24 109.083 129.031 109.376 128.73C109.669 128.43 109.87 128.052 109.955 127.641C110.039 127.23 110.004 126.803 109.853 126.412Z" fill="white"/>
<path d="M54.9995 19.7302C48.929 19.7302 42.9947 21.5304 37.9472 24.903C32.8997 28.2756 28.9657 33.0693 26.6426 38.6778C24.3195 44.2862 23.7116 50.4576 24.8959 56.4116C26.0802 62.3655 29.0035 67.8345 33.296 72.1271C37.5886 76.4196 43.0576 79.3429 49.0116 80.5272C54.9655 81.7115 61.1369 81.1037 66.7454 78.7806C72.3539 76.4575 77.1475 72.5234 80.5202 67.4759C83.8928 62.4284 85.6929 56.4942 85.6929 50.4236C85.6838 42.286 82.4471 34.4844 76.6929 28.7302C70.9388 22.9761 63.1371 19.7394 54.9995 19.7302ZM73.6519 46.8939L65.9143 54.4335L67.7406 65.0797C67.8095 65.4826 67.7643 65.8968 67.6103 66.2754C67.4562 66.654 67.1994 66.982 66.8688 67.2224C66.5382 67.4628 66.1469 67.6059 65.7392 67.6357C65.3316 67.6655 64.9237 67.5807 64.5616 67.3909L54.9995 62.3651L45.4379 67.3911C45.0759 67.5809 44.668 67.6657 44.2603 67.6359C43.8526 67.6062 43.4614 67.463 43.1307 67.2226C42.8001 66.9823 42.5433 66.6542 42.3892 66.2756C42.2352 65.897 42.1901 65.4828 42.2589 65.0799L44.0852 54.4337L36.3472 46.8939C36.054 46.6083 35.8467 46.2463 35.7486 45.849C35.6505 45.4516 35.6655 45.0348 35.7921 44.6456C35.9186 44.2563 36.1516 43.9103 36.4646 43.6467C36.7777 43.383 37.1582 43.2122 37.5633 43.1537L48.2534 41.6004L53.0341 31.9144C53.2358 31.5725 53.5232 31.2892 53.8678 31.0923C54.2125 30.8955 54.6026 30.792 54.9995 30.792C55.3965 30.792 55.7866 30.8955 56.1312 31.0923C56.4759 31.2892 56.7633 31.5725 56.965 31.9144L61.7457 41.6004L72.4358 43.1537C72.8409 43.2122 73.2214 43.383 73.5345 43.6467C73.8475 43.9103 74.0805 44.2563 74.207 44.6456C74.3336 45.0348 74.3486 45.4516 74.2505 45.849C74.1524 46.2463 73.9451 46.6083 73.6519 46.8939Z" fill="white"/>
<path d="M58.3246 44.5744L54.9997 37.8394L51.6747 44.5744C51.5176 44.8934 51.2853 45.1693 50.9977 45.3784C50.7101 45.5875 50.3759 45.7234 50.024 45.7745L42.5903 46.8547L47.9707 52.098C48.2249 52.3463 48.415 52.6527 48.5247 52.9907C48.6344 53.3287 48.6603 53.6884 48.6003 54.0387L47.3307 61.4423L53.9806 57.947C54.295 57.7817 54.6449 57.6953 55.0001 57.6953C55.3553 57.6953 55.7052 57.7817 56.0196 57.947L62.6695 61.4423L61.3999 54.0387C61.3399 53.6884 61.3659 53.3287 61.4755 52.9907C61.5852 52.6527 61.7753 52.3463 62.0295 52.098L67.4086 46.8547L59.9764 45.7745C59.6243 45.7236 59.2899 45.5878 59.0021 45.3787C58.7143 45.1696 58.4818 44.8935 58.3246 44.5744Z" fill="white"/>
<path d="M71.4659 100.166C73.3447 99.5595 75.0688 98.5511 76.518 97.2104C77.9671 95.8698 79.1065 94.2293 79.8566 92.4032C80.5273 90.8049 81.6304 89.4253 83.0418 88.4192C84.4532 87.4131 86.1171 86.8204 87.8467 86.7076C89.8497 86.5778 91.7994 86.0081 93.5571 85.0391C95.3148 84.0702 96.8374 82.7257 98.0165 81.1014C99.1712 79.5145 99.9615 77.6924 100.331 75.7651C100.701 73.8377 100.641 71.8525 100.155 69.951C99.7451 68.2883 99.8141 66.5434 100.354 64.9183C100.895 63.2932 101.884 61.8543 103.209 60.7684C104.741 59.5119 105.976 57.9305 106.823 56.1385C107.67 54.3465 108.108 52.3888 108.105 50.4068C108.103 48.4247 107.66 46.4681 106.808 44.6782C105.957 42.8883 104.719 41.31 103.183 40.0574C101.863 38.9672 100.88 37.5259 100.345 35.9C99.8108 34.2742 99.7475 32.5303 100.163 30.87C100.644 28.9717 100.702 26.9907 100.331 25.0678C99.9601 23.1448 99.1702 21.3272 98.0174 19.7441C96.8353 18.1179 95.3092 16.7724 93.5477 15.8034C91.7862 14.8344 89.8327 14.2657 87.8263 14.1379C86.1003 14.0218 84.4406 13.4277 83.0328 12.4221C81.6251 11.4166 80.5249 10.0392 79.8553 8.44407C79.1056 6.61804 77.9666 4.97755 76.5176 3.63707C75.0686 2.29659 73.3446 1.28839 71.4659 0.682815C69.5603 0.059728 67.5417 -0.14027 65.5509 0.0967611C63.56 0.333793 61.6448 1.00215 59.9388 2.05525C58.4512 2.9641 56.7417 3.44499 54.9985 3.44499C53.2552 3.44499 51.5457 2.9641 50.0581 2.05525C48.3521 1.00211 46.4369 0.333727 44.4461 0.0966942C42.4552 -0.140338 40.4366 0.0596835 38.531 0.682815C36.6529 1.28889 34.9296 2.29727 33.4812 3.63768C32.0328 4.97809 30.8942 6.61826 30.1447 8.44386C29.4731 10.0419 28.3696 11.4214 26.9579 12.4274C25.5462 13.4335 23.8822 14.0264 22.1524 14.1397C20.1495 14.2695 18.1998 14.8392 16.442 15.8081C14.6843 16.7771 13.1617 18.1215 11.9826 19.7458C10.8279 21.3327 10.0376 23.1548 9.66789 25.0822C9.29818 27.0096 9.3582 28.9948 9.84368 30.8963C10.254 32.559 10.185 34.3039 9.64468 35.9291C9.10435 37.5542 8.11479 38.9931 6.79056 40.0791C5.25771 41.3355 4.02324 42.9169 3.17641 44.7089C2.32959 46.5009 1.89158 48.4586 1.89405 50.4406C1.89653 52.4226 2.33943 54.3793 3.19073 56.1691C4.04203 57.959 5.28045 59.5373 6.81643 60.7899C8.13573 61.88 9.11948 63.3214 9.65391 64.9472C10.1883 66.5731 10.2516 68.317 9.83644 69.9773C9.35488 71.8755 9.29745 73.8566 9.66822 75.7795C10.039 77.7024 10.8289 79.5201 11.9817 81.1032C13.1638 82.7293 14.69 84.0748 16.4515 85.0438C18.2129 86.0128 20.1664 86.5815 22.1728 86.7094C23.8988 86.8255 25.5586 87.4196 26.9663 88.4251C28.374 89.4307 29.4742 90.8081 30.1438 92.4032C30.8934 94.2291 32.0324 95.8695 33.4812 97.2099C34.93 98.5504 36.6538 99.5586 38.5323 100.164C40.438 100.787 42.4565 100.987 44.4474 100.75C46.4382 100.513 48.3534 99.8449 50.0595 98.7918C51.5468 97.8835 53.2559 97.4029 54.9987 97.4029C56.7415 97.4029 58.4505 97.8835 59.9379 98.7918L59.9401 98.7929C61.646 99.8454 63.5608 100.513 65.5512 100.75C67.5415 100.987 69.5597 100.788 71.465 100.165L71.4659 100.166ZM54.9996 85.5018C48.0618 85.5018 41.2798 83.4445 35.5112 79.59C29.7426 75.7356 25.2466 70.2571 22.5916 63.8475C19.9366 57.4378 19.2419 50.3847 20.5954 43.5802C21.9489 36.7757 25.2898 30.5254 30.1956 25.6196C35.1013 20.7139 41.3517 17.373 48.1561 16.0195C54.9606 14.666 62.0137 15.3607 68.4234 18.0156C74.8331 20.6706 80.3115 25.1667 84.166 30.9353C88.0204 36.7038 90.0777 43.4858 90.0777 50.4236C90.0671 59.7237 86.368 68.6398 79.7918 75.2159C73.2157 81.792 64.2996 85.4912 54.9996 85.5018Z" fill="white"/>
</svg>
