<svg width="74" height="81" viewBox="0 0 74 81" fill="none" xmlns="http://www.w3.org/2000/svg">
<path d="M6.76176 27.4761C6.7616 27.4774 6.7616 27.4786 6.76128 27.4799C6.76096 27.4823 6.76048 27.4846 6.76 27.4872L0.0654678 73.7775C-0.48563 77.5902 2.51298 81 6.40766 81H67.1725C71.216 81 74.2471 77.3469 73.454 73.4276L71.1816 62.3418C71.0059 61.4855 70.1609 60.9326 69.294 61.1053C68.427 61.2787 67.8667 62.1136 68.0422 62.9699L70.314 74.0517C70.7105 76.0112 69.1918 77.8359 67.1727 77.8359H48.9343C49.6236 76.6507 49.9276 75.2368 49.7171 73.7774L44.5333 37.9343L44.9089 36.0825C45.2066 34.6087 46.527 33.5391 48.0484 33.5391H59.3907C60.9122 33.5391 62.2325 34.6087 62.531 36.0869L65.181 49.0137C65.3349 49.7641 66.0028 50.282 66.7491 50.282C66.8545 50.282 66.9614 50.2717 67.0688 50.2502C67.9357 50.0768 68.4961 49.242 68.3205 48.3856L65.6714 35.4633C65.1243 32.7553 62.851 30.7306 60.1258 30.4183V22.4648C60.1258 21.5911 59.4088 20.8828 58.5243 20.8828H48.9149C48.0303 20.8828 47.3133 21.5911 47.3133 22.4648V30.4183C45.9329 30.5766 44.6691 31.1741 43.6863 32.0774L41.4804 16.8249C41.0821 14.0633 38.8771 11.8769 36.1024 11.4637V1.58203C36.1024 0.708275 35.3854 0 34.5008 0H15.2821C14.3975 0 13.6805 0.708275 13.6805 1.58203V11.4648C10.9388 11.8822 8.70398 14.0462 8.30262 16.8238L6.76176 27.4761ZM56.9225 24.0469V30.375H50.5163V24.0469H56.9225ZM41.0342 36.1133L42.1601 43.8987L10.0898 26.8419L11.0546 20.1674L41.0342 36.1133ZM46.546 74.2242C46.7536 75.6632 45.9645 77.0131 44.6632 77.5703L5.74605 56.8718L6.71131 50.1977L46.1013 71.1487L46.546 74.2242ZM38.4059 77.8359H13.7226L26.0638 71.2716L38.4059 77.8359ZM5.2635 60.2086L12.5512 64.0846L4.04903 68.6067L5.2635 60.2086ZM7.19386 46.8607L8.15896 40.1879L44.4123 59.4706L45.5381 67.2558L7.19386 46.8607ZM8.64151 36.851L9.60662 30.1782L42.7232 47.7916L43.8493 55.5777L8.64151 36.851ZM40.4713 32.2203L31.8827 27.6522L39.2442 23.7363L40.4713 32.2203ZM3.23656 74.2246L3.48608 72.4997L15.9296 65.8813L22.6858 69.4747L6.96644 77.8359H6.40766C4.45823 77.8359 2.96125 76.1291 3.23656 74.2246ZM38.3093 17.2715L38.7616 20.3992L28.5047 25.8553L21.7493 22.2622L36.0103 14.6756C37.2111 15.0116 38.1292 16.0233 38.3093 17.2715ZM32.8991 3.16406V11.3906H16.8835V3.16406H32.8991ZM14.6445 14.5547H29.4823L18.3713 20.4655L11.5689 16.8472C11.9582 15.515 13.2093 14.5547 14.6445 14.5547Z" fill="#FF0000"/>
</svg>
