<svg width="83" height="81" viewBox="0 0 83 81" fill="none" xmlns="http://www.w3.org/2000/svg">
<path d="M59.7987 81H22.2153C19.3897 81 17.0903 78.7286 17.0903 75.9375V34.452L10.4791 36.7639C9.21491 37.3005 7.66716 37.2668 6.33466 36.6289C4.99874 35.9944 4.01133 34.8165 3.62183 33.4024L0.177827 19.6695C-0.403006 17.5635 0.468243 15.3191 2.36449 14.1176L21.8395 0.833625C22.7176 0.27675 23.6777 0 24.6582 0H57.0209C58.0664 0 59.0777 0.3105 59.9387 0.901125L79.7964 14.3843C81.5833 15.606 82.3999 17.8132 81.8293 19.8821L78.2555 33.4159C77.8865 34.749 77.0255 35.8425 75.8228 36.5107C74.6167 37.1824 73.2296 37.3478 71.9005 36.9664L64.9237 34.4689V75.9375C64.9237 78.7286 62.6242 81 59.7987 81ZM18.7987 30.375C19.1472 30.375 19.4922 30.4796 19.7861 30.6855C20.2371 31.0028 20.507 31.5124 20.507 32.0625V75.9375C20.507 76.869 21.2723 77.625 22.2153 77.625H59.7987C60.7417 77.625 61.507 76.869 61.507 75.9375V32.0625C61.507 31.5124 61.7803 30.996 62.2347 30.6788C62.6926 30.3649 63.2768 30.2839 63.7996 30.4762L72.9494 33.7601C73.274 33.8479 73.7386 33.7939 74.1418 33.5711C74.5416 33.3484 74.8286 32.9839 74.9516 32.5451L78.5254 19.0114C78.7202 18.306 78.4502 17.5669 77.8557 17.1619L58.0015 3.67875C57.7077 3.47963 57.3728 3.375 57.0243 3.375H24.6582C24.3302 3.375 24.0091 3.46613 23.7323 3.645L4.25733 16.929C3.57741 17.3576 3.28699 18.1035 3.48516 18.819L6.92916 32.5519C7.05216 32.9906 7.36991 33.372 7.82433 33.588C8.27191 33.804 8.77758 33.8141 9.24224 33.6184L18.2315 30.4695C18.4126 30.4054 18.6073 30.375 18.7987 30.375Z" fill="#FF0000"/>
</svg>
