<svg width="81" height="81" viewBox="0 0 81 81" fill="none" xmlns="http://www.w3.org/2000/svg">
<path d="M69.442 71.4917C68.569 71.4917 67.8604 72.2003 67.8604 73.0732C67.8604 73.9462 68.569 74.6548 69.442 74.6548C70.315 74.6548 71.0236 73.9462 71.0236 73.0732C71.0236 72.2003 70.315 71.4917 69.442 71.4917Z" fill="#FF0000"/>
<path d="M59.4784 71.4917C58.6054 71.4917 57.8968 72.2003 57.8968 73.0732C57.8968 73.9462 58.6054 74.6548 59.4784 74.6548C60.3513 74.6548 61.0599 73.9462 61.0599 73.0732C61.0599 72.2003 60.3513 71.4917 59.4784 71.4917Z" fill="#FF0000"/>
<path d="M49.9892 71.4917C49.1162 71.4917 48.4076 72.2003 48.4076 73.0732C48.4076 73.9462 49.1162 74.6548 49.9892 74.6548C50.8621 74.6548 51.5707 73.9462 51.5707 73.0732C51.5707 72.2003 50.8621 71.4917 49.9892 71.4917Z" fill="#FF0000"/>
<path d="M39.5511 71.4917C38.6781 71.4917 37.9695 72.2003 37.9695 73.0732C37.9695 73.9462 38.6781 74.6548 39.5511 74.6548C40.4241 74.6548 41.1327 73.9462 41.1327 73.0732C41.1327 72.2003 40.4241 71.4917 39.5511 71.4917Z" fill="#FF0000"/>
<path d="M30.0619 71.4917C29.189 71.4917 28.4804 72.2003 28.4804 73.0732C28.4804 73.9462 29.189 74.6548 30.0619 74.6548C30.9349 74.6548 31.6435 73.9462 31.6435 73.0732C31.6435 72.2003 30.9349 71.4917 30.0619 71.4917Z" fill="#FF0000"/>
<path d="M20.5727 71.4917C19.6998 71.4917 18.9912 72.2003 18.9912 73.0732C18.9912 73.9462 19.6998 74.6548 20.5727 74.6548C21.4457 74.6548 22.1543 73.9462 22.1543 73.0732C22.1543 72.2003 21.4457 71.4917 20.5727 71.4917Z" fill="#FF0000"/>
<path d="M11.0836 71.4917C10.2106 71.4917 9.502 72.2003 9.502 73.0732C9.502 73.9462 10.2106 74.6548 11.0836 74.6548C11.9565 74.6548 12.6651 73.9462 12.6651 73.0732C12.6651 72.2003 11.9565 71.4917 11.0836 71.4917Z" fill="#FF0000"/>
<path d="M73.0796 65.1533H71.0236V49.0345C71.0236 48.161 70.3154 47.4529 69.442 47.4529H56.3152C55.4418 47.4529 54.7337 48.161 54.7337 49.0345V65.1533H41.1325V44.2898C41.1325 41.5092 40.2477 38.8705 38.5734 36.6592C37.0352 34.6274 34.8808 33.086 32.4751 32.2847L22.0951 22.4093L54.4111 18.4783C54.9797 19.1118 55.6162 19.6742 56.3151 20.1606V25.3114H54.7335C54.1344 25.3114 53.5869 25.6498 53.319 26.1857L50.1559 32.5117C49.8515 33.1206 49.9708 33.856 50.4521 34.3372L56.7782 40.6633C57.3958 41.2809 58.3972 41.2809 59.015 40.6633C59.6326 40.0457 59.6326 39.0442 59.015 38.4265L53.4948 32.9064L55.7111 28.4742H69.5716L71.7878 32.9064L66.2677 38.4265C65.65 39.0441 65.65 40.0455 66.2677 40.6633C66.5765 40.9721 66.9813 41.1265 67.386 41.1265C67.7907 41.1265 68.1955 40.9721 68.5043 40.6633L74.8304 34.3372C75.3117 33.8558 75.4311 33.1205 75.1265 32.5117L71.9634 26.1857C71.6956 25.6498 71.1479 25.3114 70.5489 25.3114H68.9674V20.1613C71.9147 18.1034 73.7119 14.7037 73.7119 11.0776C73.7119 4.97315 68.7456 0.00683594 62.6412 0.00683594C58.5315 0.00683594 54.8114 2.26123 52.893 5.82887L14.3536 6.64978C14.2149 6.65279 14.0817 6.67525 13.9543 6.71148C13.0201 6.46168 12.0578 6.33306 11.0836 6.33306C4.97913 6.33306 0.0128145 11.2994 0.0128145 17.4038C0.0128145 23.3016 4.64896 28.1361 10.4681 28.4565L17.6586 37.7362C16.459 39.7068 15.8282 41.9487 15.8282 44.2898V65.1531H7.92044C5.80558 65.1531 3.81681 65.9772 2.32052 67.4737C0.82408 68.9701 0 70.9587 0 73.0737C0 77.4411 3.55308 80.9942 7.92044 80.9942H73.0796C75.1944 80.9942 77.1832 80.1701 78.6795 78.6736C80.1759 77.1774 81 75.1886 81 73.0737C81 68.7064 77.4469 65.1533 73.0796 65.1533ZM65.8044 25.3114H59.4784V21.687C60.4999 21.9909 61.5657 22.1483 62.6415 22.1483C63.7173 22.1483 64.7831 21.9909 65.8046 21.687V25.3114H65.8044ZM55.3524 8.00527C55.3524 8.00511 55.3526 8.00495 55.3526 8.00479C56.5927 5.06775 59.4537 3.17011 62.6413 3.17011C67.0016 3.17011 70.5489 6.71749 70.5489 11.0777C70.5489 13.8922 69.0335 16.5171 66.5937 17.9281C65.3985 18.6199 64.0318 18.9854 62.6413 18.9854C61.2509 18.9854 59.884 18.6197 58.6886 17.9279C57.7683 17.3956 56.9769 16.6965 56.3355 15.8487C55.2877 14.4672 54.7338 12.8173 54.7338 11.0777C54.734 10.0102 54.942 8.97648 55.3524 8.00527ZM57.8968 50.616H67.8604V65.1661H57.8968V50.616ZM31.191 35.1944C31.192 35.1947 31.1931 35.195 31.1942 35.1953C35.1834 36.382 37.9695 40.1218 37.9695 44.2899C37.9695 49.5224 33.7128 53.7791 28.4804 53.7791C23.2479 53.7791 18.9912 49.5222 18.9912 44.2899C18.9912 42.2256 19.6425 40.2638 20.8749 38.6161C22.6863 36.1914 25.4585 34.8008 28.4804 34.8008C29.4074 34.8006 30.3193 34.933 31.191 35.1944ZM37.9695 52.6453V65.1661H18.9912V52.6453C21.3114 55.2771 24.7042 56.9421 28.4804 56.9421C32.2565 56.9421 35.6493 55.277 37.9695 52.6453ZM51.7642 9.01666C51.6372 9.69124 51.5707 10.3791 51.5707 11.0776C51.5707 12.6329 51.8886 14.1366 52.4994 15.5245L22.0012 19.2345C22.1011 18.6337 22.1543 18.0228 22.1543 17.4038C22.1543 14.4649 20.997 11.7317 19.0505 9.71339L51.7642 9.01666ZM10.7634 25.3032C6.55103 25.1346 3.17577 21.6566 3.17577 17.4038C3.17577 13.0436 6.72316 9.49617 11.0834 9.49617C11.9508 9.49617 12.805 9.63587 13.6219 9.9113C16.8334 10.9991 18.991 14.01 18.991 17.4038C18.991 18.4714 18.7828 19.5051 18.372 20.4771C18.2639 20.7329 18.138 20.9914 17.9996 21.2418C16.6931 23.5902 14.268 25.114 11.5939 25.2909C11.3231 25.2219 11.0364 25.2246 10.7634 25.3032ZM14.1468 28.0401C16.2867 27.4206 18.2066 26.1629 19.6335 24.4331L27.2693 31.6976C24.4255 31.9749 21.743 33.2195 19.6911 35.1952L14.1468 28.0401ZM76.4246 76.4189C75.5306 77.3129 74.3425 77.8054 73.0796 77.8054H7.92044C5.31119 77.8054 3.18874 75.6828 3.18874 73.0736C3.18874 71.8106 3.68123 70.6225 4.57539 69.7284C5.4694 68.8344 6.6575 68.3419 7.92044 68.3419H17.4096C17.4751 68.3419 17.5393 68.3368 17.6028 68.3291H39.3581C39.4215 68.3368 39.4858 68.3419 39.5513 68.3419H56.3154C56.3809 68.3419 56.4451 68.3368 56.5086 68.3291H69.2493C69.3127 68.3368 69.377 68.3419 69.4425 68.3419H73.08C75.6891 68.3419 77.8117 70.4645 77.8117 73.0737C77.8113 74.3367 77.3188 75.5248 76.4246 76.4189Z" fill="#FF0000"/>
<path d="M62.6415 6.33252C60.0253 6.33252 57.8968 8.46098 57.8968 11.0772C57.8968 13.6934 60.0253 15.8217 62.6415 15.8217C65.2577 15.8217 67.386 13.6932 67.386 11.0772C67.386 8.46098 65.2575 6.33252 62.6415 6.33252ZM62.6415 12.6587C61.7695 12.6587 61.0599 11.9492 61.0599 11.0772C61.0599 10.2052 61.7695 9.49563 62.6415 9.49563C63.5135 9.49563 64.223 10.2052 64.223 11.0772C64.223 11.9492 63.5135 12.6587 62.6415 12.6587Z" fill="#FF0000"/>
<path d="M11.0836 12.6588C8.46735 12.6588 6.33888 14.7872 6.33888 17.4034C6.33888 20.0196 8.46735 22.1479 11.0836 22.1479C13.6998 22.1479 15.8282 20.0195 15.8282 17.4034C15.8281 14.7871 13.6998 12.6588 11.0836 12.6588ZM11.0836 18.9848C10.2115 18.9848 9.502 18.2753 9.502 17.4033C9.502 16.5312 10.2115 15.8217 11.0836 15.8217C11.9556 15.8217 12.6651 16.5312 12.6651 17.4033C12.6651 18.2753 11.9556 18.9848 11.0836 18.9848Z" fill="#FF0000"/>
<path d="M28.4804 37.9632C24.9921 37.9632 22.1543 40.8009 22.1543 44.2893C22.1543 47.7775 24.9921 50.6153 28.4804 50.6153C31.9686 50.6153 34.8064 47.7775 34.8064 44.2893C34.8064 40.801 31.9686 37.9632 28.4804 37.9632ZM28.4804 47.4524C26.7362 47.4524 25.3173 46.0335 25.3173 44.2893C25.3173 42.5452 26.7362 41.1262 28.4804 41.1262C30.2244 41.1262 31.6435 42.5451 31.6435 44.2893C31.6435 46.0335 30.2246 47.4524 28.4804 47.4524Z" fill="#FF0000"/>
</svg>
